<svg width="12" height="12" viewBox="0 0 12 12" fill="none" xmlns="http://www.w3.org/2000/svg">
<g clip-path="url(#clip0_350_977)">
<path d="M1.83203 5.55568C1.62493 5.55626 1.42222 5.61547 1.24736 5.72645C1.0725 5.83742 0.932634 5.99564 0.843944 6.1828C0.755254 6.36995 0.721363 6.57839 0.746193 6.784C0.771024 6.98961 0.85356 7.18399 0.984253 7.34465L3.77033 10.7576C3.86967 10.8809 3.997 10.9788 4.14176 11.0431C4.28651 11.1073 4.44451 11.1361 4.60262 11.127C4.94079 11.1089 5.2461 10.928 5.44075 10.6305L11.2281 1.30994C11.2291 1.30839 11.2301 1.30685 11.2311 1.30533C11.2854 1.22195 11.2678 1.05672 11.1557 0.95292C11.1249 0.924415 11.0886 0.902515 11.049 0.88857C11.0095 0.874624 10.9675 0.868927 10.9256 0.871831C10.8837 0.874734 10.8429 0.886176 10.8057 0.905452C10.7684 0.924728 10.7355 0.951429 10.7089 0.983912C10.7068 0.986466 10.7047 0.988981 10.7025 0.991458L4.86581 7.58601C4.84361 7.61111 4.81663 7.63154 4.78646 7.64612C4.75629 7.6607 4.72352 7.66914 4.69006 7.67095C4.65659 7.67276 4.62311 7.66791 4.59154 7.65666C4.55997 7.64542 4.53095 7.62802 4.50616 7.60547L2.56908 5.84271C2.3679 5.65829 2.10495 5.55589 1.83203 5.55568Z" fill="white"/>
</g>
<defs>
<clipPath id="clip0_350_977">
<rect width="12" height="12" fill="white"/>
</clipPath>
</defs>
</svg>
