<svg width="25" height="22" viewBox="0 0 25 22" fill="none" xmlns="http://www.w3.org/2000/svg">
<path d="M11.1993 21.629C11.125 21.629 11.0515 21.6136 10.9835 21.5838C10.9155 21.5541 10.8543 21.5105 10.8039 21.456L0.143057 9.92403C0.0719893 9.84715 0.0248757 9.75122 0.0074827 9.64798C-0.00991032 9.54474 0.00317155 9.43867 0.0451274 9.34274C0.0870833 9.24682 0.156093 9.16521 0.243711 9.1079C0.331328 9.05059 0.433753 9.02007 0.538449 9.02007H5.66999C5.74703 9.02008 5.82318 9.03661 5.89329 9.06856C5.96341 9.1005 6.02585 9.14711 6.07642 9.20524L9.63931 13.3042C10.0244 12.4811 10.7698 11.1106 12.0778 9.44066C14.0115 6.97181 17.6083 3.34091 23.7621 0.0631881C23.881 -0.000149992 24.0194 -0.0165887 24.1499 0.017118C24.2803 0.0508248 24.3934 0.132227 24.4668 0.24525C24.5402 0.358274 24.5685 0.494703 24.5462 0.627598C24.5239 0.760494 24.4526 0.880195 24.3463 0.963065C24.3228 0.981427 21.9502 2.84989 19.2195 6.2723C16.7064 9.42176 13.3657 14.5716 11.7218 21.22C11.6929 21.3368 11.6258 21.4406 11.531 21.5147C11.4363 21.5889 11.3194 21.6292 11.1991 21.6292L11.1993 21.629Z" fill="#00796B"/>
</svg>
