<svg width="16" height="16" viewBox="0 0 16 16" fill="none" xmlns="http://www.w3.org/2000/svg">
<path d="M14.5923 2.19367C14.3122 1.89613 13.915 1.7246 13.5054 1.7246H12.2015C12.2068 1.49006 12.2102 1.24855 12.2102 1H3.80046C3.80046 1.24852 3.80395 1.49006 3.80922 1.7246H2.49656C2.087 1.7246 1.68971 1.89613 1.40968 2.19367C1.12612 2.49298 0.979134 2.9025 1.00361 3.31732C1.23815 7.22731 3.25615 9.68109 6.45552 10.0452L5.83594 12.2014C5.09911 12.2014 4.50229 12.7982 4.50229 13.5351V15.0017H11.5102V13.5351C11.5102 12.7982 10.9133 12.2014 10.1765 12.2014L9.55692 10.0452C12.7493 9.67761 14.7656 7.22556 14.9983 3.31732C15.0228 2.90428 14.8758 2.49472 14.5923 2.19367ZM2.40204 3.2333C2.40029 3.19481 2.41605 3.16856 2.43003 3.15454C2.45629 3.12654 2.4878 3.12654 2.49656 3.12654H3.87574C4.08402 5.87964 4.69133 7.44082 5.28117 8.32293C3.03563 7.38131 2.50004 4.86626 2.40204 3.2333ZM10.7296 8.31767C11.3194 7.43381 11.925 5.87438 12.1332 3.1248H13.5071C13.5176 3.1248 13.5474 3.1248 13.5737 3.1528C13.5877 3.16681 13.6034 3.19307 13.6017 3.23156C13.5019 4.86452 12.9681 7.37256 10.7296 8.31767Z" fill="#7A7A7A"/>
</svg>
