<svg width="16" height="16" viewBox="0 0 16 16" fill="none" xmlns="http://www.w3.org/2000/svg">
<path d="M4.83317 4.66667C4.83317 2.92067 6.25384 1.5 7.99984 1.5C9.74584 1.5 11.1665 2.92067 11.1665 4.66667C11.1665 6.41267 9.74584 7.83333 7.99984 7.83333C6.25384 7.83333 4.83317 6.41267 4.83317 4.66667ZM9.99984 8.83333H5.99984C3.8865 8.83333 2.1665 10.5533 2.1665 12.6667C2.16686 13.1528 2.36012 13.6189 2.70386 13.9626C3.0476 14.3064 3.51372 14.4996 3.99984 14.5H11.9998C12.486 14.4996 12.9521 14.3064 13.2958 13.9626C13.6396 13.6189 13.8328 13.1528 13.8332 12.6667C13.8332 10.5533 12.1132 8.83333 9.99984 8.83333Z" fill="#7A7A7A"/>
</svg>
