<svg width="16" height="16" viewBox="0 0 16 16" fill="none" xmlns="http://www.w3.org/2000/svg">
<g clip-path="url(#clip0_1687_523)">
<path d="M15.3452 2.30278C15.5392 2.18157 15.6846 1.96338 15.7331 1.72096C15.7816 1.47854 15.7331 1.23611 15.6119 1.04217C15.3452 0.630051 14.7634 0.508839 14.3513 0.775506L7.17552 5.45429H5.59976C5.47855 5.45429 5.35734 5.55126 5.35734 5.69672V7.87854H2.69067C1.9634 7.87854 1.38158 8.46036 1.38158 9.18763V10.0119C1.38158 10.7391 1.9634 11.321 2.69067 11.321H2.71491V11.8543H1.93916C0.993703 11.8543 0.242188 12.6058 0.242188 13.5513V13.6967C0.242188 14.6422 0.993703 15.3937 1.93916 15.3937H9.47855C10.3998 15.3937 11.1755 14.6422 11.1755 13.6967V13.5513C11.1755 12.6058 10.424 11.8543 9.47855 11.8543H8.77552V11.321H9.7937C9.86643 11.321 9.91492 11.2967 9.9634 11.2482C10.0119 11.1997 10.0361 11.127 10.0361 11.0543L9.47855 6.23005C9.47855 6.18157 9.45431 6.15732 9.45431 6.10884L14.5937 2.78763V6.98157C14.2543 7.07854 14.0119 7.39369 14.0119 7.75732C14.0119 7.95126 14.0846 8.12096 14.1816 8.26642C12.3634 8.72702 11.9028 8.46035 11.7816 8.24217C11.7331 8.1452 11.6119 8.07248 11.5149 8.12096C11.3937 8.1452 11.321 8.24217 11.321 8.36339C11.321 9.40581 12.1695 10.2301 13.1876 10.2301C14.1573 10.2301 14.9331 9.50278 15.0543 8.55732C15.3937 8.46035 15.6361 8.1452 15.6361 7.78157C15.6361 7.41793 15.3937 7.10278 15.0543 7.00581V2.47248L15.3452 2.30278ZM2.01188 14.3513C1.57552 14.3513 1.23613 14.0119 1.23613 13.5755C1.23613 13.1391 1.57552 12.7997 2.01188 12.7997C2.44825 12.7997 2.78764 13.1391 2.78764 13.5755C2.78764 13.9876 2.44825 14.3513 2.01188 14.3513ZM4.48461 14.3997C4.04825 14.3997 3.70885 14.0604 3.70885 13.624C3.70885 13.1876 4.04825 12.8482 4.48461 12.8482C4.92098 12.8482 5.26037 13.1876 5.26037 13.624C5.26037 14.0361 4.89673 14.3997 4.48461 14.3997ZM6.9331 14.424C6.49673 14.424 6.15734 14.0846 6.15734 13.6482C6.15734 13.2119 6.49673 12.8725 6.9331 12.8725C7.36946 12.8725 7.70885 13.2119 7.70885 13.6482C7.70885 14.0846 7.36946 14.424 6.9331 14.424ZM8.29067 11.8543H3.19976V11.321H8.31491V11.8543H8.29067ZM6.18158 9.59975C6.18158 9.47854 6.27855 9.35732 6.42401 9.35732H7.32098C7.44219 9.35732 7.5634 9.47854 7.5634 9.59975C7.5634 9.72096 7.44219 9.84217 7.32098 9.84217H6.42401C6.27855 9.84217 6.18158 9.72096 6.18158 9.59975ZM9.40582 12.8482C9.84219 12.8482 10.1816 13.1876 10.1816 13.624C10.1816 14.0604 9.84219 14.3997 9.40582 14.3997C8.96946 14.3997 8.63007 14.0604 8.63007 13.624C8.63007 13.1876 8.96946 12.8482 9.40582 12.8482ZM8.87249 8.82399C8.82401 8.87248 8.75128 8.89672 8.67855 8.89672H6.42401C6.27855 8.89672 6.18158 8.79975 6.18158 8.65429V6.52096C6.18158 6.39975 6.27855 6.27854 6.42401 6.27854H8.43613C8.55734 6.27854 8.65431 6.37551 8.67855 6.49672L8.92098 8.63005C8.94522 8.70278 8.92098 8.75126 8.87249 8.82399Z" fill="#7A7A7A"/>
</g>
<defs>
<clipPath id="clip0_1687_523">
<rect width="16" height="16" fill="white"/>
</clipPath>
</defs>
</svg>
