<svg width="16" height="16" viewBox="0 0 16 16" fill="none" xmlns="http://www.w3.org/2000/svg">
<path fill-rule="evenodd" clip-rule="evenodd" d="M13.5391 2.13595L13.5537 2.15126L13.8487 2.44626L13.864 2.46088C14.127 2.72388 14.3462 2.94304 14.5111 3.13716C14.6823 3.33893 14.8242 3.54767 14.9063 3.79814C15.0312 4.18251 15.0312 4.59657 14.9063 4.98095C14.8249 5.23142 14.6823 5.44015 14.5104 5.64193C14.3462 5.83604 14.127 6.05521 13.8634 6.31821L13.8494 6.33282L13.5537 6.62783L13.5391 6.64314C13.2761 6.90614 13.057 7.1253 12.8628 7.2902C12.6611 7.46136 12.4523 7.60329 12.2019 7.6854C11.8175 7.81032 11.4034 7.81032 11.0191 7.6854C10.7686 7.60399 10.5598 7.46136 10.3581 7.2895C10.164 7.1253 9.94479 6.90544 9.68179 6.64244L9.66718 6.62852L9.37217 6.33282L9.35686 6.31821C9.13274 6.10101 8.9169 5.87542 8.7098 5.64193C8.53864 5.44015 8.39671 5.23142 8.3146 4.98095C8.18968 4.59657 8.18968 4.18251 8.3146 3.79814C8.39601 3.54767 8.53864 3.33893 8.7105 3.13716C8.8747 2.94304 9.09387 2.72388 9.35756 2.46088L9.37148 2.44626L9.66718 2.15126L9.68179 2.13595C9.94479 1.87295 10.164 1.65379 10.3581 1.48889C10.5598 1.31773 10.7686 1.17579 11.0191 1.09369C11.4034 0.968769 11.8175 0.968769 12.2019 1.09369C12.4523 1.1751 12.6611 1.31773 12.8628 1.48958C13.057 1.65379 13.2761 1.87295 13.5391 2.13665V2.13595ZM3.72741 1.43253H4.18662C4.55885 1.43253 4.86847 1.43253 5.12242 1.4534C5.38682 1.47428 5.63451 1.52159 5.86898 1.64126C6.22887 1.82435 6.52161 2.1166 6.70529 2.47618C6.82497 2.71135 6.87228 2.95905 6.89315 3.22344C6.91403 3.4767 6.91402 3.78701 6.91402 4.15855V4.61845C6.91402 4.99069 6.91403 5.3003 6.89315 5.55426C6.87228 5.81865 6.82497 6.06634 6.70529 6.30082C6.52184 6.66091 6.22908 6.95368 5.86898 7.13713C5.63451 7.2568 5.38682 7.30411 5.12242 7.32499C4.86847 7.34586 4.55885 7.34586 4.18662 7.34586H3.72741C3.35517 7.34586 3.04556 7.34586 2.7916 7.32499C2.52721 7.30411 2.27952 7.2568 2.04504 7.13713C1.68505 6.95386 1.3923 6.66135 1.20873 6.30151C1.08906 6.06704 1.04175 5.81935 1.02087 5.55496C1 5.301 1 4.99138 1 4.61915V4.15994C1 3.7877 1 3.47809 1.02087 3.22413C1.04175 2.95974 1.08906 2.71205 1.20873 2.47688C1.3923 2.11704 1.68505 1.82453 2.04504 1.64126C2.27952 1.52159 2.52721 1.47428 2.7916 1.4534C3.04556 1.43253 3.35517 1.43253 3.72741 1.43253ZM3.74828 9.08597H3.72741C3.35517 9.08597 3.04556 9.08597 2.7916 9.10685C2.52721 9.12772 2.27952 9.17503 2.04504 9.29471C1.68516 9.4778 1.39242 9.77005 1.20873 10.1296C1.08906 10.3648 1.04175 10.6125 1.02087 10.8769C1 11.1308 1 11.4405 1 11.8127V12.2719C1 12.6441 1 12.9537 1.02087 13.2077C1.04175 13.4721 1.08906 13.7198 1.20873 13.9543C1.39218 14.3144 1.68495 14.6071 2.04504 14.7906C2.27952 14.9102 2.52721 14.9576 2.7916 14.9784C3.04556 14.9993 3.35517 14.9993 3.72671 14.9993H4.18662C4.55885 14.9993 4.86847 14.9993 5.12242 14.9784C5.38682 14.9576 5.63451 14.9102 5.86898 14.7906C6.22908 14.6071 6.52184 14.3144 6.70529 13.9543C6.82497 13.7198 6.87228 13.4714 6.89315 13.2077C6.91403 12.9537 6.91402 12.6441 6.91402 12.2719V11.8127C6.91402 11.4405 6.91403 11.1308 6.89315 10.8769C6.87228 10.6125 6.82497 10.3648 6.70529 10.1296C6.52172 9.76979 6.22897 9.47728 5.86898 9.29401C5.63451 9.17434 5.38682 9.12703 5.12242 9.10615C4.86847 9.08528 4.55885 9.08528 4.18662 9.08528H4.16574L3.74828 9.08597ZM11.3809 9.08597H11.8401C12.2123 9.08597 12.5219 9.08597 12.7759 9.10685C13.0403 9.12772 13.288 9.17503 13.5231 9.29471C13.8829 9.4781 14.1753 9.77059 14.3587 10.1303C14.4784 10.3655 14.5257 10.6132 14.5466 10.8776C14.5675 11.1315 14.5675 11.4411 14.5675 11.8134V12.2726C14.5675 12.6448 14.5675 12.9544 14.5466 13.2084C14.5257 13.4728 14.4784 13.7205 14.3587 13.955C14.1753 14.3151 13.8825 14.6078 13.5224 14.7913C13.288 14.9109 13.0403 14.9583 12.7759 14.9791C12.5226 15 12.2123 15 11.8408 15H11.3809C11.0086 15 10.699 15 10.445 14.9791C10.1807 14.9583 9.93296 14.9109 9.69779 14.7913C9.33795 14.6077 9.04545 14.3149 8.86217 13.955C8.7425 13.7205 8.69519 13.4721 8.67432 13.2084C8.65344 12.9544 8.65344 12.6448 8.65344 12.2726V11.8134C8.65344 11.4411 8.65344 11.1315 8.67432 10.8776C8.69519 10.6132 8.7425 10.3655 8.86217 10.1303C9.04556 9.77059 9.33806 9.4781 9.69779 9.29471C9.93296 9.17503 10.1807 9.12772 10.445 9.10685C10.699 9.08597 11.0086 9.08597 11.3809 9.08597Z" fill="#7A7A7A"/>
</svg>
