<svg width="16" height="16" viewBox="0 0 16 16" fill="none" xmlns="http://www.w3.org/2000/svg">
<g clip-path="url(#clip0_1687_516)">
<path d="M14.605 5.92024C14.3133 5.87786 14.0348 5.77021 13.7904 5.6053C13.546 5.4404 13.342 5.22248 13.1935 4.96779C13.045 4.71309 12.9559 4.42818 12.9328 4.13427C12.9097 3.84036 12.9532 3.54502 13.06 3.27024C13.1279 3.0906 13.1379 2.89421 13.0886 2.7086C13.0393 2.52299 12.9331 2.35747 12.785 2.23524C12.131 1.68607 11.3866 1.25466 10.585 0.960238C10.4025 0.89243 10.2032 0.883958 10.0156 0.936029C9.82792 0.9881 9.6615 1.09806 9.54002 1.25024C9.35715 1.48407 9.12345 1.67318 8.85662 1.80324C8.58979 1.93331 8.29685 2.0009 8.00001 2.0009C7.70318 2.0009 7.41023 1.93331 7.14341 1.80324C6.87658 1.67318 6.64287 1.48407 6.46001 1.25024C6.33852 1.09806 6.17211 0.9881 5.98447 0.936029C5.79684 0.883958 5.59755 0.89243 5.41501 0.960238C4.67485 1.23206 3.98281 1.62028 3.36501 2.11024C3.20928 2.23352 3.09712 2.40342 3.04493 2.59506C2.99275 2.78671 3.00329 2.99002 3.07501 3.17524C3.19039 3.45728 3.23806 3.76244 3.2142 4.06624C3.19034 4.37004 3.09561 4.66401 2.93761 4.92458C2.77962 5.18516 2.56275 5.40507 2.30441 5.56669C2.04607 5.72831 1.75344 5.82714 1.45001 5.85524C1.25302 5.8763 1.06799 5.96006 0.922167 6.09418C0.776347 6.2283 0.677441 6.40569 0.640011 6.60024C0.54691 7.06109 0.500011 7.53008 0.500011 8.00024C0.499327 8.39386 0.531101 8.78685 0.595011 9.17524C0.626818 9.37603 0.723884 9.56074 0.871201 9.70083C1.01852 9.84092 1.20788 9.92857 1.41001 9.95024C1.72011 9.97934 2.01872 10.0823 2.28086 10.2505C2.543 10.4187 2.76104 10.6472 2.91673 10.917C3.07241 11.1867 3.16122 11.4899 3.17571 11.801C3.1902 12.1121 3.12995 12.4222 3.00001 12.7052C2.91498 12.8894 2.89388 13.0966 2.94008 13.2941C2.98628 13.4916 3.09712 13.668 3.25501 13.7952C3.90507 14.3344 4.6423 14.7589 5.43501 15.0502C5.53638 15.0854 5.64274 15.1039 5.75001 15.1052C5.8971 15.1049 6.04196 15.0693 6.17246 15.0015C6.30296 14.9336 6.41528 14.8355 6.50001 14.7152C6.67822 14.4556 6.91711 14.2434 7.19593 14.097C7.47476 13.9506 7.7851 13.8745 8.10002 13.8752C8.40514 13.8756 8.70596 13.9473 8.97853 14.0844C9.25109 14.2216 9.48787 14.4204 9.67002 14.6652C9.79117 14.8281 9.96278 14.9463 10.1581 15.0015C10.3535 15.0567 10.5616 15.0457 10.75 14.9702C11.4749 14.6785 12.1497 14.2753 12.75 13.7752C12.9008 13.6506 13.0082 13.4813 13.0567 13.2917C13.1052 13.1021 13.0924 12.9021 13.02 12.7202C12.9024 12.4418 12.8511 12.1399 12.8702 11.8383C12.8893 11.5367 12.9783 11.2436 13.13 10.9822C13.2818 10.7209 13.4923 10.4984 13.7448 10.3323C13.9973 10.1662 14.2849 10.0611 14.585 10.0252C14.7796 9.99833 14.9606 9.91017 15.1017 9.77353C15.2429 9.63689 15.3368 9.45886 15.37 9.26524C15.4503 8.8482 15.4938 8.4249 15.5 8.00024C15.5001 7.55232 15.4583 7.10536 15.375 6.66524C15.3413 6.47589 15.2487 6.30199 15.1105 6.16826C14.9722 6.03452 14.7954 5.94773 14.605 5.92024ZM10.5 8.00024C10.5 8.4947 10.3534 8.97805 10.0787 9.38917C9.80399 9.80029 9.41354 10.1207 8.95672 10.3099C8.49991 10.4992 7.99724 10.5487 7.51229 10.4522C7.02734 10.3557 6.58188 10.1176 6.23225 9.76801C5.88262 9.41838 5.64451 8.97292 5.54805 8.48797C5.45159 8.00302 5.5011 7.50035 5.69031 7.04353C5.87953 6.58672 6.19997 6.19627 6.61109 5.92157C7.02221 5.64686 7.50556 5.50024 8.00001 5.50024C8.66306 5.50024 9.29894 5.76363 9.76778 6.23247C10.2366 6.70132 10.5 7.3372 10.5 8.00024Z" fill="#7A7A7A"/>
</g>
<defs>
<clipPath id="clip0_1687_516">
<rect width="16" height="16" fill="white"/>
</clipPath>
</defs>
</svg>
