<svg width="16" height="16" viewBox="0 0 16 16" fill="none" xmlns="http://www.w3.org/2000/svg">
<path d="M3.10008 1C1.94894 1 1.00345 1.95233 1.00345 3.10347V5.20014C1.00345 6.35134 1.94891 7.30224 3.10011 7.30224H5.19677C6.34795 7.30224 7.30025 6.35131 7.30025 5.20014V3.10347C7.30022 1.95233 6.34792 1 5.19675 1H3.10008ZM10.7965 1C9.6453 1 8.69981 1.95233 8.69981 3.10347V5.20014C8.69981 6.35134 9.64527 7.30224 10.7965 7.30224H12.8999C14.0511 7.30224 14.9966 6.35131 14.9966 5.20014V3.10347C14.9966 1.9523 14.0511 1 12.8999 1H10.7965ZM3.10008 8.7032C1.94891 8.7032 1.00342 9.64869 1.00342 10.7999V12.8979C1.00342 14.0491 1.94888 15 3.10008 15H5.19675C6.34792 15 7.30022 14.049 7.30022 12.8979V10.7999C7.30022 9.64869 6.34792 8.7032 5.19675 8.7032H3.10008ZM10.7965 8.7032C9.6453 8.7032 8.69981 9.64869 8.69981 10.7999V12.8979C8.69981 14.0491 9.64527 15 10.7965 15H12.8999C14.0511 15 14.9966 14.049 14.9966 12.8979V10.7999C14.9966 9.64869 14.0511 8.7032 12.8999 8.7032H10.7965Z" fill="white"/>
</svg>
