<svg width="30" height="30" viewBox="0 0 30 30" fill="none" xmlns="http://www.w3.org/2000/svg">
<path d="M25.29 3.54718H23.1385V3.42718C23.1385 2.97252 22.9579 2.53648 22.6364 2.21499C22.315 1.8935 21.8789 1.71289 21.4243 1.71289H8.56712C7.62426 1.71289 6.85284 2.48432 6.85284 3.42718V3.54718H4.70998C3.28712 3.54718 2.13855 4.70432 2.13855 6.1186V6.98432C2.13855 9.7786 4.21284 12.1015 6.91284 12.4872C7.08852 14.0524 7.71506 15.5328 8.71631 16.7486C9.71755 17.9644 11.0504 18.8632 12.5528 19.3357L11.4557 22.1815H18.5443L17.4471 19.3357C18.9497 18.8634 20.2826 17.9646 21.2839 16.7488C22.2852 15.533 22.9116 14.0524 23.0871 12.4872C25.7785 12.1015 27.8614 9.7786 27.8614 6.98432V6.1186C27.8614 4.70432 26.7043 3.54718 25.29 3.54718ZM6.85284 10.7386C5.13855 10.3443 3.85284 8.8186 3.85284 6.98432V6.1186C3.85284 5.64718 4.23855 5.26146 4.70998 5.26146H6.85284V10.7386ZM18.9385 10.3957L17.6014 11.7072L17.91 13.55C18.03 14.2615 17.2928 14.8015 16.65 14.4672L14.9957 13.5929L13.3328 14.4672C12.7071 14.8015 11.9614 14.2615 12.0814 13.55L12.3986 11.7072L11.0614 10.3957C10.5385 9.89003 10.83 9.01575 11.5328 8.91289L13.3928 8.64718L14.2243 6.96718C14.2959 6.82264 14.4065 6.70099 14.5435 6.61593C14.6806 6.53088 14.8387 6.48582 15 6.48582C15.1613 6.48582 15.3194 6.53088 15.4564 6.61593C15.5935 6.70099 15.7041 6.82264 15.7757 6.96718L16.6071 8.64718L18.4586 8.92146C19.17 9.02432 19.4528 9.8986 18.9385 10.3957ZM26.1471 6.98432C26.1471 8.81003 24.8614 10.3443 23.1385 10.7386V5.26146H25.29C25.7614 5.26146 26.1471 5.64718 26.1471 6.1186V6.98432ZM23.4565 26.5735H21.888V26.5529C21.888 26.2039 21.8193 25.8584 21.6857 25.536C21.5522 25.2137 21.3565 24.9207 21.1097 24.674C20.863 24.4273 20.5701 24.2315 20.2477 24.098C19.9253 23.9645 19.5798 23.8957 19.2308 23.8957H10.7657C10.061 23.8957 9.38512 24.1757 8.88681 24.674C8.3885 25.1723 8.10855 25.8482 8.10855 26.5529V26.5735H6.53998C6.42742 26.5735 6.31596 26.5956 6.21196 26.6387C6.10797 26.6818 6.01348 26.7449 5.93389 26.8245C5.85429 26.9041 5.79116 26.9986 5.74808 27.1026C5.70501 27.2066 5.68284 27.318 5.68284 27.4306C5.68284 27.5432 5.70501 27.6546 5.74808 27.7586C5.79116 27.8626 5.85429 27.9571 5.93389 28.0367C6.01348 28.1163 6.10797 28.1794 6.21196 28.2225C6.31596 28.2656 6.42742 28.2877 6.53998 28.2877H23.4574C23.6847 28.2877 23.9028 28.1974 24.0635 28.0367C24.2242 27.8759 24.3146 27.6579 24.3146 27.4306C24.3146 27.2033 24.2242 26.9853 24.0635 26.8245C23.9028 26.6638 23.6847 26.5735 23.4574 26.5735H23.4565Z" fill="white"/>
</svg>
