<svg width="30" height="30" viewBox="0 0 30 30" fill="none" xmlns="http://www.w3.org/2000/svg">
<path d="M7.96875 18.2812V26.7188C7.96875 26.8431 7.91936 26.9623 7.83146 27.0502C7.74355 27.1381 7.62432 27.1875 7.5 27.1875H4.21875C4.09443 27.1875 3.9752 27.1381 3.88729 27.0502C3.79939 26.9623 3.75 26.8431 3.75 26.7188V18.2812C3.75 18.1569 3.79939 18.0377 3.88729 17.9498C3.9752 17.8619 4.09443 17.8125 4.21875 17.8125H7.5C7.62432 17.8125 7.74355 17.8619 7.83146 17.9498C7.91936 18.0377 7.96875 18.1569 7.96875 18.2812ZM25.3125 1.875H13.125C12.8764 1.875 12.6379 1.97377 12.4621 2.14959C12.2863 2.3254 12.1875 2.56386 12.1875 2.8125V10.3125C12.1875 10.5611 12.2863 10.7996 12.4621 10.9754C12.6379 11.1512 12.8764 11.25 13.125 11.25H25.3125C25.5611 11.25 25.7996 11.1512 25.9754 10.9754C26.1512 10.7996 26.25 10.5611 26.25 10.3125V2.8125C26.25 2.56386 26.1512 2.3254 25.9754 2.14959C25.7996 1.97377 25.5611 1.875 25.3125 1.875ZM21.9637 4.62938L19.3781 8.76656C19.3209 8.85837 19.2419 8.93468 19.1482 8.98875C19.0545 9.04282 18.949 9.073 18.8408 9.07661C18.7327 9.08022 18.6254 9.05717 18.5283 9.00947C18.4312 8.96177 18.3473 8.89091 18.2841 8.80313L16.5234 6.36281C16.4531 6.26584 16.4196 6.14695 16.4291 6.02751C16.4385 5.90807 16.4902 5.79592 16.5749 5.7112C16.6597 5.62648 16.7718 5.57475 16.8913 5.56531C17.0107 5.55587 17.1296 5.58933 17.2266 5.65969L18.6553 6.69L21.0825 3.96938C21.1742 3.86498 21.302 3.79902 21.4402 3.78467C21.5785 3.77031 21.717 3.80861 21.8283 3.89193C21.9395 3.97524 22.0153 4.09744 22.0404 4.23413C22.0655 4.37083 22.0381 4.51196 21.9637 4.62938ZM23.0859 21.27L21.7894 27.1059C21.7249 27.3948 21.5639 27.6531 21.333 27.8383C21.1021 28.0236 20.8151 28.1247 20.5191 28.125H15C13.125 28.125 12.5006 27.1875 11.25 26.25H9.375V18.75H11.25C11.6016 17.3287 13.6959 15 15.4688 15H16.4062V18.75C16.4062 18.9986 16.505 19.2371 16.6808 19.4129C16.8567 19.5887 17.0951 19.6875 17.3438 19.6875H21.8156C22.6481 19.6875 23.2659 20.4581 23.0859 21.27Z" fill="white"/>
<path d="M20.625 12.6562V18.2812H17.8125V12.6562H20.625Z" fill="white"/>
</svg>
