<svg width="30" height="30" viewBox="0 0 30 30" fill="none" xmlns="http://www.w3.org/2000/svg">
<path d="M27.5063 10.3876C27.24 10.051 26.9009 9.77908 26.5144 9.59235C26.128 9.40561 25.7042 9.30891 25.275 9.30951H24.7491L25.0312 7.7167C25.0533 7.59517 25.0511 7.47048 25.0246 7.34983C24.9982 7.22918 24.9481 7.11497 24.8772 7.01382C24.8063 6.91268 24.7161 6.8266 24.6117 6.76058C24.5073 6.69456 24.3908 6.6499 24.2691 6.6292L17.2425 5.40201C17.1214 5.38056 16.9973 5.3832 16.8772 5.40976C16.7571 5.43633 16.6435 5.48631 16.5427 5.55683C16.442 5.62736 16.3561 5.71706 16.2901 5.82079C16.224 5.92453 16.1791 6.04026 16.1578 6.16139L15.5962 9.30951H14.6409L15.2344 6.00014C15.2759 5.75777 15.365 5.52602 15.4966 5.31827C15.6281 5.11051 15.7995 4.93086 16.0008 4.78967C16.2022 4.64848 16.4295 4.54854 16.6696 4.49563C16.9097 4.44272 17.158 4.43788 17.4 4.48139L21.1406 5.13764L20.7 2.65326C20.6789 2.5318 20.6339 2.41573 20.5677 2.31172C20.5015 2.20771 20.4154 2.11783 20.3143 2.04725C20.2132 1.97666 20.0992 1.92678 19.9787 1.90046C19.8583 1.87414 19.7338 1.8719 19.6125 1.89389L10.2 3.53451C9.94688 3.58139 9.73125 3.71264 9.59062 3.91889C9.45 4.12514 9.39375 4.37826 9.43125 4.62201L10.2516 9.30951H8.38125L7.575 5.81264C7.48125 5.39076 7.10625 5.09076 6.66563 5.09076H2.8125C2.29688 5.09076 1.875 5.51264 1.875 6.02826C1.875 6.54389 2.29688 6.96576 2.8125 6.96576H5.91563L8.85938 19.7158C9.00278 20.3454 9.35706 20.9071 9.86347 21.3078C10.3699 21.7085 10.998 21.9241 11.6438 21.9189H23.6719C25.0125 21.9189 26.1562 21.0189 26.4562 19.7158L28.05 12.7876C28.2469 11.9439 28.05 11.0626 27.5063 10.3876ZM22.0031 18.3189H13.5844C13.0687 18.3189 12.6469 17.897 12.6469 17.3814C12.6469 16.8564 13.0687 16.4439 13.5844 16.4439H22.0031C22.5281 16.4439 22.9406 16.8564 22.9406 17.3814C22.9406 17.897 22.5281 18.3189 22.0031 18.3189ZM24.1125 14.5126H11.475C10.9594 14.5126 10.5375 14.0908 10.5375 13.5751C10.5375 13.0501 10.9594 12.6376 11.475 12.6376H24.1125C24.6281 12.6376 25.05 13.0501 25.05 13.5751C25.05 14.0908 24.6281 14.5126 24.1125 14.5126ZM12.0422 23.3945C11.4144 23.3945 10.8123 23.6434 10.3677 24.0866C9.92307 24.5298 9.6723 25.1311 9.67031 25.7589C9.67031 27.0639 10.7344 28.1242 12.0422 28.1242C13.35 28.1242 14.4141 27.0629 14.4141 25.7589C14.4121 25.1311 14.1613 24.5298 13.7167 24.0866C13.2721 23.6434 12.67 23.3945 12.0422 23.3945ZM23.2716 23.3945C22.6437 23.3943 22.0414 23.643 21.5968 24.0863C21.1521 24.5295 20.9014 25.1311 20.8997 25.7589C20.8997 27.0639 21.9638 28.1242 23.2716 28.1242C24.5794 28.1242 25.6434 27.0629 25.6434 25.7589C25.6419 25.131 25.3913 24.5293 24.9466 24.086C24.5019 23.6427 23.8995 23.394 23.2716 23.3945Z" fill="white"/>
</svg>
