<svg width="30" height="30" viewBox="0 0 30 30" fill="none" xmlns="http://www.w3.org/2000/svg">
<path d="M18.0249 26.5776H17.178C16.8207 24.8247 15.2674 23.5014 13.4107 23.5014H7.25832C5.40155 23.5014 3.84824 24.8247 3.49095 26.5776H2.64408C2.219 26.5776 1.87504 26.9216 1.87504 27.3466C1.87504 27.7717 2.219 28.1157 2.64408 28.1157H18.0249C18.45 28.1157 18.7939 27.7717 18.7939 27.3466C18.7939 26.9216 18.45 26.5776 18.0249 26.5776ZM21.9021 8.85101L15.3766 2.32554C14.7759 1.72482 13.802 1.72482 13.2014 2.32554C12.6008 2.92616 12.6008 3.90003 13.2014 4.5007L19.727 11.0262C20.3276 11.6268 21.3015 11.6268 21.9021 11.0262C22.5028 10.4255 22.5028 9.45173 21.9021 8.85101ZM11.0263 19.7269L4.5007 13.2014C3.90008 12.6007 2.92621 12.6007 2.32554 13.2014C1.72482 13.802 1.72482 14.7759 2.32554 15.3766L8.85106 21.9021C9.45178 22.5027 10.4255 22.5027 11.0263 21.9021C11.6269 21.3015 11.6269 20.3276 11.0263 19.7269ZM5.58792 12.1138L12.1134 5.58843L18.6388 12.1138L12.1134 18.6393L5.58792 12.1138ZM27.4493 24.1772L26.355 22.9897L23.0923 26.2525L24.1865 27.44C25.0875 28.341 26.5483 28.341 27.4493 27.44C28.3502 26.539 28.3502 25.0782 27.4493 24.1772ZM20.1041 16.8412C20.2337 16.3325 20.1251 15.7747 19.727 15.3766C19.1263 14.7759 18.1524 14.7759 17.5518 15.3766L15.3766 17.5517C14.7759 18.1524 14.7759 19.1262 15.3766 19.7269C15.7748 20.1251 16.3326 20.2337 16.8413 20.104L22.0046 25.1648L25.2674 21.902L20.1041 16.8412Z" fill="white"/>
</svg>
