<svg width="20" height="20" viewBox="0 0 20 20" fill="none" xmlns="http://www.w3.org/2000/svg">
<path d="M12.7523 1.25C11.6697 1.25029 10.6097 1.55902 9.69623 2.14005C8.78279 2.72108 8.05382 3.55034 7.59468 4.53072C7.13554 5.5111 6.96525 6.60201 7.10374 7.67569C7.24224 8.74936 7.68379 9.76135 8.37668 10.5931C8.47231 10.5869 8.56668 10.5719 8.66356 10.5719C8.95793 10.5719 9.25231 10.6025 9.53856 10.6625L12.2204 11.225C12.5614 11.2987 12.8771 11.4607 13.1356 11.695C13.3942 11.9292 13.5866 12.2273 13.6936 12.5594C16.3911 12.11 18.4492 9.77187 18.4492 6.94687C18.4486 3.80062 15.8986 1.25 12.7523 1.25ZM13.3117 9.53937V9.84875C13.3117 9.99793 13.2524 10.141 13.1469 10.2465C13.0414 10.352 12.8984 10.4113 12.7492 10.4113C12.6 10.4113 12.4569 10.352 12.3514 10.2465C12.2459 10.141 12.1867 9.99793 12.1867 9.84875V9.69562C11.884 9.69492 11.5932 9.57763 11.3748 9.36812C11.2624 9.26013 11.173 9.13045 11.1121 8.98693C11.0512 8.84341 11.02 8.68903 11.0204 8.53312C11.0204 8.38394 11.0797 8.24087 11.1852 8.13538C11.2907 8.02989 11.4337 7.97062 11.5829 7.97062C11.7321 7.97062 11.8752 8.02989 11.9807 8.13538C12.0862 8.24087 12.1454 8.38394 12.1454 8.53312C12.1454 8.5375 12.1454 8.54875 12.1567 8.55937C12.4136 8.55687 13.5642 8.4975 13.5773 7.99312C13.5804 7.865 13.3323 7.65812 12.6229 7.49687C11.3598 7.20937 10.7486 6.64625 10.8048 5.82313C10.8354 5.37 11.0779 4.66938 12.1867 4.3575V4.045C12.1867 3.89582 12.2459 3.75274 12.3514 3.64725C12.4569 3.54176 12.6 3.4825 12.7492 3.4825C12.8984 3.4825 13.0414 3.54176 13.1469 3.64725C13.2524 3.75274 13.3117 3.89582 13.3117 4.045V4.2025C13.6148 4.20375 13.9004 4.31312 14.1192 4.52375C14.3448 4.74187 14.4748 5.0475 14.4748 5.36188C14.4748 5.51106 14.4155 5.65413 14.3101 5.75962C14.2046 5.86511 14.0615 5.92438 13.9123 5.92438C13.7631 5.92438 13.62 5.86511 13.5146 5.75962C13.4091 5.65413 13.3498 5.51106 13.3498 5.36188C12.8136 5.34313 11.9579 5.43937 11.9267 5.89813C11.9198 6.0025 12.0336 6.2075 12.8736 6.39875C14.1079 6.68 14.7229 7.22562 14.7023 8.02125C14.6917 8.40437 14.5161 9.2 13.3117 9.53937ZM4.63355 17.8719C4.63339 17.9555 4.60008 18.0357 4.54093 18.0949C4.48177 18.154 4.40159 18.1873 4.31793 18.1875H2.8273C2.43355 18.1875 2.1123 17.8669 2.1123 17.4725V12.0844C2.1123 11.69 2.43293 11.3694 2.8273 11.3694H4.3173C4.49168 11.3694 4.63293 11.5112 4.63293 11.685L4.63355 17.8719ZM17.2911 14.7519L15.6467 16.3312C15.2342 16.7272 14.7221 17.0039 14.1648 17.1319L11.1411 17.8256C10.653 17.9375 10.1453 17.9319 9.65981 17.8094L5.75793 16.8244V13.0062L6.88168 12.2425C7.23335 12.0044 7.62924 11.8392 8.04589 11.7569C8.46254 11.6745 8.89149 11.6767 9.30731 11.7631L11.9886 12.3256C12.1967 12.3683 12.3815 12.4869 12.5071 12.6583C12.6326 12.8297 12.69 13.0416 12.668 13.2529C12.6461 13.4643 12.5463 13.6599 12.3882 13.8017C12.23 13.9436 12.0248 14.0216 11.8123 14.0206H9.96356C9.81437 14.0206 9.6713 14.0799 9.56581 14.1854C9.46032 14.2909 9.40106 14.4339 9.40106 14.5831C9.40106 14.7323 9.46032 14.8754 9.56581 14.9809C9.6713 15.0864 9.81437 15.1456 9.96356 15.1456H12.8098C13.1948 15.1456 13.5692 15.0344 13.8917 14.8238L16.1617 13.3438C16.33 13.2342 16.5314 13.1872 16.7309 13.211C16.9303 13.2347 17.1151 13.3277 17.2529 13.4738L17.3198 13.5437C17.4747 13.7085 17.5585 13.9276 17.5531 14.1537C17.5478 14.3798 17.4536 14.5947 17.2911 14.7519Z" fill="#212121"/>
</svg>
