<svg width="20" height="20" viewBox="0 0 20 20" fill="none" xmlns="http://www.w3.org/2000/svg">
<g clip-path="url(#clip0_1013_84)">
<path d="M14.167 4.96V7.79313C14.167 7.97313 14.1601 8.14688 14.147 8.32C10.8932 8.58688 8.33324 11.3138 8.33324 14.6331C8.33324 15.12 8.38699 15.5869 8.49324 16.04L7.27324 15.2669C4.70012 13.64 3.16699 10.8469 3.16699 7.79313V4.96L8.66699 3.33313L14.167 4.96Z" fill="#212121"/>
<path d="M8.66687 0.0330811L0 2.59996V7.79371C0 11.9062 2.10625 15.7331 5.58 17.94L8.66687 19.9L10.08 19C9.58 18.48 9.17375 17.8668 8.87375 17.2C8.79876 17.2358 8.71574 17.2516 8.63282 17.2458C8.54989 17.24 8.46989 17.2128 8.40062 17.1668L6.74 16.1068C3.87313 14.3 2.16688 11.1868 2.16688 7.79308V4.58746C2.16688 4.47927 2.20196 4.374 2.26688 4.28746C2.33179 4.20091 2.42302 4.13775 2.52688 4.10746L8.52687 2.33371C8.61831 2.30707 8.71544 2.30707 8.80687 2.33371L14.8069 4.10746C14.9107 4.13775 15.002 4.20091 15.0669 4.28746C15.1318 4.374 15.1669 4.47927 15.1669 4.58746V7.79371C15.1669 7.97371 15.16 8.14746 15.1531 8.32058C15.9063 8.37371 16.6269 8.56746 17.2863 8.86058C17.32 8.51371 17.3331 8.15433 17.3331 7.79371V2.59996L8.66687 0.0330811Z" fill="#212121"/>
<path d="M14.6668 9.30005C11.7199 9.30005 9.33301 11.6869 9.33301 14.6332C9.33301 17.5794 11.7205 19.9669 14.6668 19.9669C17.613 19.9669 19.9999 17.5794 19.9999 14.6332C19.9999 11.6869 17.613 9.30005 14.6668 9.30005ZM14.593 14.1L14.9799 14.1938C15.3328 14.2831 15.6457 14.4876 15.8691 14.775C16.0925 15.0623 16.2135 15.4161 16.213 15.78V15.9469C16.2119 16.2696 16.1106 16.5839 15.9232 16.8466C15.7358 17.1092 15.4715 17.3072 15.1668 17.4132V17.8532C15.1668 18.1269 14.9399 18.3532 14.6668 18.3532C14.3936 18.3532 14.1668 18.1269 14.1668 17.8532V17.4132C13.8619 17.3073 13.5974 17.1093 13.4099 16.8467C13.2224 16.584 13.121 16.2696 13.1199 15.9469C13.1199 15.6669 13.3399 15.4469 13.6199 15.4469C13.893 15.4469 14.1199 15.6669 14.1199 15.9469C14.1199 16.2469 14.3668 16.4932 14.6668 16.4932C14.9668 16.4932 15.213 16.2469 15.213 15.9469V15.78C15.213 15.4863 15.0199 15.24 14.7399 15.1669L14.353 15.0732C14.0001 14.9839 13.6872 14.7794 13.4638 14.492C13.2404 14.2046 13.1194 13.8509 13.1199 13.4869V13.32C13.1199 12.64 13.5599 12.0669 14.1668 11.8532V11.4132C14.1668 11.14 14.393 10.9132 14.6668 10.9132C14.9405 10.9132 15.1668 11.14 15.1668 11.4132V11.8532C15.4716 11.9592 15.736 12.1573 15.9234 12.42C16.1108 12.6828 16.212 12.9973 16.213 13.32C16.213 13.6 15.993 13.82 15.713 13.82C15.6473 13.8201 15.5823 13.8073 15.5216 13.7822C15.4609 13.7571 15.4057 13.7202 15.3593 13.6738C15.3128 13.6273 15.276 13.5722 15.2509 13.5115C15.2258 13.4508 15.2129 13.3857 15.213 13.32C15.213 13.02 14.9668 12.7732 14.6668 12.7732C14.3668 12.7732 14.1199 13.02 14.1199 13.32V13.4869C14.1199 13.78 14.3136 14.0269 14.593 14.1Z" fill="#212121"/>
</g>
<defs>
<clipPath id="clip0_1013_84">
<rect width="20" height="20" fill="white"/>
</clipPath>
</defs>
</svg>
