<svg width="40" height="40" viewBox="0 0 40 40" fill="none" xmlns="http://www.w3.org/2000/svg">
<path d="M35.6062 20.4663C35.5347 20.3212 35.4975 20.1617 35.4975 20C35.4975 19.8383 35.5347 19.6788 35.6062 19.5338L36.9488 16.787C37.6964 15.2577 37.1041 13.4348 35.6004 12.637L32.8997 11.2041C32.7567 11.1287 32.6328 11.0215 32.5378 10.8907C32.4428 10.7599 32.379 10.609 32.3516 10.4497L31.8234 7.43832C31.5293 5.76167 29.9784 4.63499 28.2932 4.87342L25.2661 5.30162C25.1061 5.32475 24.9429 5.31079 24.7891 5.26082C24.6353 5.21084 24.4951 5.1262 24.3792 5.01341L22.1819 2.88775C20.9584 1.70412 19.0417 1.70405 17.8183 2.88775L15.6209 5.01362C15.5051 5.12638 15.3648 5.21101 15.2111 5.26098C15.0573 5.31095 14.8941 5.32493 14.7341 5.30183L11.707 4.87363C10.0212 4.63506 8.47087 5.76188 8.17676 7.43853L7.64857 10.4498C7.62112 10.6091 7.55742 10.76 7.46239 10.8908C7.36736 11.0216 7.24354 11.1288 7.10049 11.2042L4.39982 12.6372C2.89614 13.4349 2.30383 15.2579 3.05139 16.7872L4.39399 19.5339C4.46545 19.6789 4.50262 19.8385 4.50262 20.0002C4.50262 20.1619 4.46545 20.3214 4.39399 20.4664L3.05132 23.2131C2.30376 24.7424 2.89607 26.5653 4.39975 27.3631L7.10042 28.796C7.24349 28.8714 7.36732 28.9786 7.46237 29.1094C7.55741 29.2402 7.62112 29.3911 7.64857 29.5504L8.17676 32.5618C8.4445 34.0881 9.75328 35.1585 11.2575 35.1584C11.4056 35.1584 11.5559 35.148 11.707 35.1266L14.7342 34.6984C14.8942 34.6753 15.0574 34.6892 15.2112 34.7392C15.3649 34.7892 15.5052 34.8738 15.621 34.9866L17.8183 37.1123C18.4302 37.7042 19.215 38.0001 20.0001 38C20.785 37.9999 21.5703 37.704 22.1819 37.1123L24.3792 34.9866C24.6163 34.7573 24.9395 34.6526 25.2661 34.6984L28.2932 35.1266C29.9791 35.3651 31.5293 34.2384 31.8234 32.5617L32.3517 29.5505C32.3791 29.3911 32.4428 29.2403 32.5378 29.1094C32.6329 28.9786 32.7567 28.8714 32.8997 28.796L35.6004 27.3631C37.1041 26.5653 37.6964 24.7424 36.9488 23.213L35.6062 20.4663ZM15.8474 10.6566C17.9463 10.6566 19.654 12.3643 19.654 14.4632C19.654 16.5622 17.9463 18.2698 15.8474 18.2698C13.7485 18.2698 12.0408 16.5622 12.0408 14.4632C12.0408 12.3643 13.7485 10.6566 15.8474 10.6566ZM13.8826 27.5856C13.6799 27.7883 13.4142 27.8897 13.1486 27.8897C12.8829 27.8897 12.6171 27.7883 12.4145 27.5856C12.0091 27.1801 12.0091 26.5228 12.4145 26.1174L26.1175 12.4144C26.5228 12.009 27.1802 12.009 27.5857 12.4144C27.9911 12.8198 27.9911 13.4772 27.5857 13.8826L13.8826 27.5856ZM24.1526 29.3435C22.0537 29.3435 20.346 27.6358 20.346 25.5369C20.346 23.4379 22.0537 21.7303 24.1526 21.7303C26.2516 21.7303 27.9592 23.4379 27.9592 25.5369C27.9592 27.6358 26.2516 29.3435 24.1526 29.3435Z" fill="white"/>
<path d="M24.1526 23.8066C23.1986 23.8066 22.4223 24.5828 22.4223 25.5369C22.4223 26.4909 23.1985 27.2671 24.1526 27.2671C25.1067 27.2671 25.8829 26.4909 25.8829 25.5369C25.8829 24.5828 25.1067 23.8066 24.1526 23.8066ZM15.8474 12.7329C14.8934 12.7329 14.1172 13.5091 14.1172 14.4631C14.1172 15.4172 14.8934 16.1934 15.8474 16.1934C16.8015 16.1934 17.5777 15.4173 17.5777 14.4631C17.5776 13.5092 16.8015 12.7329 15.8474 12.7329Z" fill="white"/>
</svg>
