<svg width="40" height="40" viewBox="0 0 40 40" fill="none" xmlns="http://www.w3.org/2000/svg">
<path fill-rule="evenodd" clip-rule="evenodd" d="M14.5435 3C22.1885 3 27.3248 5.7206 27.3248 8.26133C27.3248 10.8021 22.1884 13.5227 14.5435 13.5227C6.90051 13.5227 1.76492 10.8038 1.76172 8.26382V8.2599C1.76421 5.71918 6.89945 3 14.5435 3ZM4.83219 12.9682C3.51709 12.3921 2.48438 11.7118 1.76172 10.9605V16.0889C1.76421 18.6296 6.89945 21.3489 14.5435 21.3489C16.0877 21.3526 17.6296 21.2305 19.1539 20.9836C19.0747 20.7342 19.066 20.4678 19.1289 20.2138C19.1918 19.9598 19.3237 19.7282 19.5101 19.5445L21.3908 17.6638C21.6228 17.4283 21.9297 17.2812 22.2585 17.2476C22.5874 17.214 22.9177 17.2962 23.1924 17.4799L24.713 18.4811C24.88 18.4047 25.0492 18.3336 25.2206 18.2678L25.5876 16.488C25.6519 16.1638 25.8272 15.8722 26.0834 15.6634C26.3396 15.4545 26.6606 15.3415 26.9911 15.3438H27.3248V10.9605C26.6021 11.7118 25.5694 12.3924 24.255 12.9682C21.6508 14.1099 18.2014 14.7386 14.5434 14.7386C10.8843 14.7386 7.43596 14.1099 4.83183 12.9682H4.83219ZM4.83219 20.794C7.43603 21.9357 10.8844 22.5646 14.5435 22.5646C16.3133 22.5695 18.08 22.4139 19.8217 22.0997L20.3597 22.917C20.2963 23.0633 20.2368 23.2113 20.1812 23.3608L18.3345 23.7415C18.0102 23.8058 17.7184 23.9812 17.5095 24.2375C17.3006 24.4938 17.1876 24.8149 17.1899 25.1455V27.8056C17.1886 28.0404 17.2454 28.2718 17.3554 28.4792C17.4654 28.6866 17.625 28.8636 17.8201 28.9942C16.7321 29.1156 15.6382 29.1758 14.5435 29.1746C6.89873 29.1743 1.76243 26.4544 1.76172 23.9136V18.7863C2.48438 19.5376 3.51709 20.2182 4.83219 20.794ZM25.1163 34.636C25.1439 34.6195 25.1728 34.6052 25.2027 34.5933L25.1769 34.4682C25.0814 34.4312 24.9867 34.3925 24.8927 34.352L23.1929 35.4712C22.9181 35.6549 22.5878 35.737 22.259 35.7034C21.9301 35.6698 21.6233 35.5227 21.3913 35.2872L19.5105 33.4065C19.275 33.1744 19.1278 32.8675 19.0943 32.5386C19.0607 32.2097 19.1429 31.8793 19.3266 31.6045L20.4124 29.9545C20.3927 29.9112 20.3752 29.8667 20.3561 29.823C18.4429 30.2082 16.4955 30.3984 14.5438 30.3908C10.8844 30.3901 7.43603 29.7614 4.83219 28.6201C3.51709 28.0437 2.48438 27.3633 1.76172 26.612V31.7386C1.76172 34.2793 6.89816 37 14.5435 37C18.7428 37 22.6947 36.116 25.116 34.6356L25.1163 34.636ZM38.2369 27.8053C38.2383 27.8558 38.2215 27.905 38.1895 27.9441C38.1576 27.9832 38.1127 28.0095 38.063 28.0183L35.8062 28.4835C35.7038 28.5046 35.6085 28.5517 35.5296 28.6204C35.4506 28.689 35.3907 28.7768 35.3556 28.8753C35.2518 29.1668 35.1299 29.4515 34.9907 29.7277C34.9428 29.8233 34.9208 29.9298 34.9271 30.0365C34.9333 30.1432 34.9676 30.2464 35.0264 30.3357L36.3016 32.2725C36.3304 32.3139 36.3434 32.3643 36.3382 32.4146C36.3331 32.4648 36.3102 32.5115 36.2736 32.5463L34.3928 34.4271C34.358 34.4636 34.3112 34.4866 34.2609 34.4917C34.2106 34.4968 34.1601 34.4838 34.1186 34.4551L32.1387 33.151C32.0511 33.0934 31.95 33.0593 31.8454 33.0522C31.7408 33.0452 31.6361 33.0652 31.5415 33.1105C31.2815 33.2351 31.0145 33.3444 30.7417 33.4378C30.6419 33.4722 30.5527 33.532 30.4829 33.6113C30.4132 33.6906 30.3653 33.7867 30.3439 33.8901L29.8643 36.2165C29.8557 36.2662 29.8294 36.3111 29.7904 36.3431C29.7514 36.375 29.7021 36.3918 29.6517 36.3904H26.9911C26.9407 36.3918 26.8915 36.375 26.8524 36.3431C26.8134 36.3111 26.7871 36.2662 26.7786 36.2165L26.299 33.8901C26.2775 33.7867 26.2296 33.6906 26.1598 33.6113C26.0901 33.532 26.0009 33.4722 25.9011 33.4378C25.6283 33.3444 25.3613 33.2351 25.1013 33.1105C25.0067 33.0653 24.9021 33.0453 24.7975 33.0524C24.6928 33.0594 24.5918 33.0934 24.5042 33.151L22.5244 34.4547C22.4829 34.4835 22.4324 34.4965 22.3821 34.4914C22.3319 34.4862 22.2851 34.4633 22.2502 34.4267L20.3695 32.5456C20.3329 32.5109 20.3099 32.4642 20.3048 32.414C20.2997 32.3638 20.3127 32.3135 20.3415 32.2721L21.6167 30.3357C21.6754 30.2464 21.7096 30.1433 21.7158 30.0366C21.7219 29.9299 21.6999 29.8235 21.6519 29.7281C21.5131 29.4514 21.3913 29.1665 21.287 28.875C21.2521 28.7764 21.1924 28.6886 21.1136 28.6199C21.0347 28.5513 20.9395 28.5042 20.8371 28.4832L18.5803 28.0179C18.5306 28.0091 18.4857 27.9828 18.4538 27.9437C18.4219 27.9047 18.4051 27.8554 18.4064 27.805V25.1448C18.405 25.0943 18.4217 25.045 18.4537 25.0059C18.4856 24.9667 18.5305 24.9404 18.5803 24.9316L20.7651 24.4814C20.8703 24.4597 20.968 24.4104 21.0481 24.3387C21.1282 24.267 21.1878 24.1754 21.221 24.0731C21.3255 23.7497 21.4525 23.434 21.601 23.1282C21.6466 23.0335 21.6669 22.9285 21.66 22.8235C21.6531 22.7186 21.6192 22.6172 21.5615 22.5292L20.3413 20.6778C20.3124 20.6365 20.2994 20.5861 20.3045 20.5359C20.3096 20.4857 20.3326 20.4391 20.3692 20.4044L22.2499 18.5232C22.2848 18.4865 22.3316 18.4636 22.3819 18.4585C22.4322 18.4535 22.4827 18.4666 22.5241 18.4955L24.3322 19.6852C24.4217 19.7444 24.5254 19.7787 24.6326 19.7847C24.7397 19.7908 24.8466 19.7683 24.9423 19.7197C25.2644 19.5555 25.5982 19.4152 25.9409 19.2999C26.0416 19.2661 26.1317 19.2064 26.2021 19.1268C26.2725 19.0472 26.3208 18.9506 26.3421 18.8465L26.7783 16.733C26.7869 16.6833 26.8131 16.6384 26.8521 16.6065C26.8912 16.5745 26.9404 16.5578 26.9908 16.5592H29.6516C29.702 16.5578 29.7513 16.5745 29.7903 16.6065C29.8294 16.6384 29.8556 16.6833 29.8642 16.733L30.2997 18.8468C30.3213 18.9509 30.3697 19.0474 30.4402 19.1269C30.5107 19.2064 30.6008 19.2661 30.7016 19.2999C31.0441 19.4156 31.3779 19.5559 31.7002 19.7197C31.7959 19.7683 31.9027 19.7908 32.0099 19.7847C32.1171 19.7787 32.2207 19.7444 32.3103 19.6852L34.1183 18.4955C34.1598 18.4666 34.2102 18.4535 34.2605 18.4585C34.3109 18.4636 34.3577 18.4865 34.3925 18.5232L36.2733 20.4044C36.3098 20.4391 36.3327 20.4858 36.3378 20.5359C36.3429 20.5861 36.33 20.6364 36.3013 20.6778L35.0828 22.529C35.0249 22.6169 34.9907 22.7184 34.9838 22.8235C34.9769 22.9286 34.9974 23.0336 35.0434 23.1284C35.1912 23.4345 35.318 23.7503 35.423 24.0736C35.4561 24.1757 35.5157 24.2673 35.5956 24.3389C35.6756 24.4106 35.7731 24.4598 35.8783 24.4815L38.063 24.9318C38.1128 24.9405 38.1578 24.9669 38.1897 25.0061C38.2216 25.0453 38.2384 25.0947 38.2369 25.1452V27.8053ZM28.3213 21.227C29.3593 21.2269 30.374 21.5347 31.2371 22.1114C32.1001 22.6881 32.7728 23.5077 33.17 24.4667C33.5673 25.4257 33.6712 26.4809 33.4687 27.4989C33.2662 28.517 32.7664 29.4521 32.0324 30.1861C31.2985 30.9201 30.3633 31.4199 29.3453 31.6224C28.3273 31.8249 27.272 31.721 26.313 31.3238C25.3541 30.9266 24.5344 30.2539 23.9577 29.3908C23.3811 28.5278 23.0733 27.5131 23.0733 26.4751C23.0748 25.0837 23.6282 23.7497 24.6121 22.7658C25.596 21.782 26.9299 21.2285 28.3213 21.227ZM28.3213 30.5077C27.5237 30.5077 26.744 30.2712 26.0809 29.8281C25.4177 29.3849 24.9008 28.7551 24.5956 28.0182C24.2903 27.2813 24.2105 26.4705 24.3661 25.6882C24.5218 24.9059 24.9059 24.1874 25.4699 23.6234C26.0339 23.0594 26.7525 22.6754 27.5348 22.5198C28.3171 22.3643 29.1279 22.4442 29.8648 22.7495C30.6016 23.0548 31.2314 23.5717 31.6745 24.2349C32.1176 24.8982 32.354 25.6779 32.3539 26.4755C32.3528 27.5446 31.9276 28.5697 31.1716 29.3257C30.4155 30.0817 29.3905 30.5069 28.3213 30.508V30.5077Z" fill="white"/>
</svg>
