<svg width="40" height="40" viewBox="0 0 40 40" fill="none" xmlns="http://www.w3.org/2000/svg">
<path d="M23.3154 2.34375C22.8313 0.979609 21.5278 0 20 0C18.4722 0 17.1688 0.979609 16.6846 2.34375H12.9688C12.321 2.34375 11.7969 2.86789 11.7969 3.51562V5.85938C11.7969 6.50711 12.321 7.03125 12.9688 7.03125H27.0312C27.679 7.03125 28.2031 6.50711 28.2031 5.85938V3.51562C28.2031 2.86789 27.679 2.34375 27.0312 2.34375H23.3154Z" fill="white"/>
<path d="M17.6562 28.2031C20.8923 28.2031 23.5156 25.5798 23.5156 22.3438C23.5156 19.1077 20.8923 16.4844 17.6562 16.4844C14.4202 16.4844 11.7969 19.1077 11.7969 22.3438C11.7969 25.5798 14.4202 28.2031 17.6562 28.2031Z" fill="white"/>
<path d="M4.76562 38.8281C4.76562 39.4759 5.28977 40 5.9375 40H34.0625C34.7102 40 35.2344 39.4759 35.2344 38.8281V5.85938C35.2344 5.21164 34.7102 4.6875 34.0625 4.6875H30.5469V5.85938C30.5469 7.79797 28.9698 9.375 27.0312 9.375H12.9688C11.0302 9.375 9.45312 7.79797 9.45312 5.85938V4.6875H5.9375C5.28977 4.6875 4.76562 5.21164 4.76562 5.85938V38.8281ZM17.6562 14.1406C22.179 14.1406 25.8594 17.821 25.8594 22.3438C25.8594 24.1825 25.2291 25.864 24.2031 27.2335L30.2035 33.2339C30.6613 33.6916 30.6613 34.4333 30.2035 34.891C29.7458 35.3488 29.0042 35.3488 28.5464 34.891L22.546 28.8906C21.1765 29.9166 19.495 30.5469 17.6562 30.5469C13.1335 30.5469 9.45312 26.8665 9.45312 22.3438C9.45312 17.821 13.1335 14.1406 17.6562 14.1406Z" fill="white"/>
</svg>
