<svg width="40" height="40" viewBox="0 0 40 40" fill="none" xmlns="http://www.w3.org/2000/svg">
<path d="M35.0418 30.2918C33.4197 30.2918 32.0294 31.2689 31.4171 32.6668H24.4593C23.8052 30.8233 22.0658 29.5 20 29.5C17.9342 29.5 16.1962 30.8233 15.5407 32.6668H8.5829C7.97063 31.2689 6.5803 30.2918 4.95817 30.2918C2.77175 30.2918 1 32.0636 1 34.25C1 36.4364 2.77175 38.2082 4.95817 38.2082C6.58173 38.2082 7.97205 37.2282 8.5829 35.8332H15.5407C16.1948 37.6733 17.9342 39 20 39C22.0658 39 23.8052 37.6733 24.4593 35.8332H31.4171C32.028 37.2282 33.4183 38.2082 35.0418 38.2082C37.2282 38.2082 39 36.4364 39 34.25C39 32.0636 37.2282 30.2918 35.0418 30.2918ZM20 35.8332C19.1246 35.8332 18.4168 35.1254 18.4168 34.25C18.4168 33.3746 19.1246 32.6668 20 32.6668C20.8754 32.6668 21.5832 33.3746 21.5832 34.25C21.5832 35.1254 20.8754 35.8332 20 35.8332ZM20 1C13.8815 1 8.91682 5.95995 8.91682 12.0832C8.91682 15.1417 10.1566 17.9124 12.1639 19.9197L20 27.125L27.838 19.9164C28.8693 18.8891 29.687 17.6677 30.244 16.3228C30.801 14.9779 31.0862 13.536 31.0832 12.0803C31.0832 5.96327 26.1218 1 20 1ZM20 16.8332C17.3775 16.8332 15.25 14.7057 15.25 12.0832C15.25 9.4607 17.3775 7.33318 20 7.33318C22.6239 7.33318 24.75 9.4607 24.75 12.0832C24.75 14.7057 22.6239 16.8332 20 16.8332Z" fill="white"/>
</svg>
