<svg width="40" height="40" viewBox="0 0 40 40" fill="none" xmlns="http://www.w3.org/2000/svg">
<path fill-rule="evenodd" clip-rule="evenodd" d="M20.4985 4.00857C17.3146 3.90173 14.1774 4.79608 11.5285 6.56573C8.55013 8.55695 6.3689 11.5342 5.36816 14.9743C5.09716 14.9412 4.77265 14.9558 4.38733 15.0648C2.94868 15.4735 1.86714 16.6518 1.38062 17.6901C0.749112 19.0431 0.482985 20.833 0.763708 22.6798C1.04249 24.5213 1.82044 26.0393 2.79348 26.9817C3.76944 27.9246 4.87142 28.2311 5.96609 28.0009C7.59594 27.6531 8.40406 27.3928 8.17588 25.8748L7.07147 18.5138C7.18363 16.5103 7.76006 14.5604 8.75522 12.818C9.75037 11.0756 11.137 9.58837 12.8056 8.47387C15.0544 6.96947 17.7182 6.20803 20.4223 6.2967C23.1264 6.38537 25.7347 7.31969 27.88 8.96818C29.3612 10.1038 30.5792 11.5464 31.4505 13.197C32.3218 14.8476 32.8257 16.6671 32.9277 18.5308L32.1551 23.6796C31.3168 25.9776 29.8443 27.9908 27.9082 29.4857C25.9721 30.9806 23.6519 31.896 21.2166 32.1257H17.9248C17.7234 32.1252 17.5239 32.1646 17.3377 32.2414C17.1515 32.3182 16.9823 32.4311 16.8398 32.5735C16.6973 32.7159 16.5844 32.885 16.5074 33.0711C16.4304 33.2573 16.391 33.4568 16.3913 33.6582V34.4668C16.3909 34.6683 16.4303 34.8679 16.5073 35.0541C16.5842 35.2403 16.6971 35.4094 16.8396 35.5519C16.9821 35.6943 17.1513 35.8072 17.3375 35.8841C17.5238 35.961 17.7233 36.0003 17.9248 35.9999H22.0753C22.2766 36.0002 22.4759 35.9607 22.6618 35.8838C22.8478 35.8069 23.0167 35.694 23.1589 35.5515C23.3011 35.4091 23.4137 35.2401 23.4903 35.054C23.567 34.8679 23.6061 34.6685 23.6055 34.4673V34.044C27.3345 33.131 30.5832 30.8476 32.7054 27.6482L34.035 28.0009C35.1171 28.2817 36.2322 27.9241 37.2076 26.9817C38.1807 26.0388 38.9582 24.5213 39.2374 22.6798C39.5196 20.8325 39.2452 19.046 38.6215 17.6901C37.9953 16.3341 37.0627 15.473 35.986 15.164C35.535 15.0341 35.0455 14.9865 34.6257 14.9743C33.7219 11.863 31.8488 9.12141 29.2788 7.14859C26.7525 5.20924 23.6817 4.11103 20.4985 4.00857Z" fill="white"/>
<path fill-rule="evenodd" clip-rule="evenodd" d="M25.3576 17.2511C25.8848 17.2517 26.3903 17.4615 26.7631 17.8344C27.1359 18.2072 27.3455 18.7127 27.346 19.24C27.3451 19.7672 27.1353 20.2726 26.7625 20.6454C26.3897 21.0182 25.8843 21.228 25.3571 21.2289C24.8293 21.229 24.323 21.0196 23.9496 20.6467C23.5761 20.2737 23.3659 19.7678 23.3653 19.24C23.3654 18.9786 23.417 18.7197 23.5172 18.4783C23.6174 18.2368 23.7641 18.0174 23.9491 17.8327C24.1341 17.648 24.3536 17.5015 24.5952 17.4016C24.8368 17.3017 25.0957 17.2504 25.3571 17.2506L25.3576 17.2511ZM20.001 17.2511C20.3943 17.2513 20.7787 17.3681 21.1056 17.5867C21.4326 17.8054 21.6873 18.116 21.8377 18.4794C21.9881 18.8428 22.0274 19.2427 21.9506 19.6284C21.8738 20.0142 21.6843 20.3685 21.4062 20.6465C21.1281 20.9246 20.7737 21.114 20.388 21.1907C20.0022 21.2674 19.6024 21.228 19.239 21.0775C18.8756 20.9271 18.565 20.6722 18.3465 20.3452C18.1279 20.0182 18.0112 19.6338 18.0111 19.2405C18.0108 18.9791 18.0621 18.7202 18.1621 18.4787C18.262 18.2371 18.4085 18.0177 18.5934 17.8329C18.7782 17.648 18.9976 17.5015 19.2392 17.4016C19.4807 17.3016 19.7396 17.2508 20.001 17.2511ZM14.6458 17.2511C14.9107 17.2452 15.1741 17.2923 15.4205 17.3897C15.667 17.487 15.8915 17.6325 16.0809 17.8178C16.2703 18.0031 16.4208 18.2243 16.5235 18.4685C16.6263 18.7128 16.6792 18.975 16.6792 19.24C16.6792 19.5049 16.6263 19.7672 16.5235 20.0115C16.4208 20.2557 16.2703 20.4769 16.0809 20.6622C15.8915 20.8474 15.667 20.993 15.4205 21.0903C15.1741 21.1876 14.9107 21.2348 14.6458 21.2289C14.1237 21.2207 13.6256 21.0076 13.2593 20.6354C12.8929 20.2633 12.6875 19.762 12.6875 19.2398C12.6875 18.7175 12.8929 18.2162 13.2593 17.8441C13.6256 17.4719 14.1237 17.2593 14.6458 17.2511ZM20.001 8.70581C14.1676 8.70581 9.4668 13.2519 9.4668 19.2395C9.4668 22.1153 10.5542 24.6569 12.3256 26.5218L11.697 29.3397C11.4898 30.267 12.1329 30.8907 12.9668 30.4266L15.7181 28.8916C17.0699 29.4769 18.5279 29.7774 20.001 29.7742C25.8363 29.7742 30.5342 25.231 30.5342 19.241C30.5342 13.2528 25.8363 8.70678 20.001 8.70678V8.70581Z" fill="white"/>
</svg>
