<svg width="40" height="40" viewBox="0 0 40 40" fill="none" xmlns="http://www.w3.org/2000/svg">
<path d="M34.04 16.94C33.68 15.32 32.96 13.7 32.06 12.26L33.86 8.48L31.34 5.96L27.56 7.76C26.12 6.86 24.68 6.32 23.06 5.96L21.8 2H18.2L16.76 5.96C15.14 6.32 13.7 7.04 12.26 7.94L8.48 6.14L5.96 8.48L7.76 12.26C6.86 13.7 6.32 15.14 5.96 16.76L2 18.2V21.8L5.96 23.24C6.32 24.86 7.04 26.48 7.76 27.74L5.96 31.52L8.48 34.04L12.26 32.24C13.7 33.14 15.14 33.86 16.76 34.22L18.2 38H21.8L23.24 34.04C23.78 33.86 24.5 33.68 25.04 33.5L22.16 30.62C15.32 31.88 9.2 26.84 9.2 20C9.2 14.06 14.06 9.2 20 9.2C26.66 9.2 31.7 15.14 30.62 21.44L33.68 24.5C33.86 23.96 34.04 23.6 34.04 23.06L38 21.8V18.2L34.04 16.94Z" fill="white"/>
<path d="M37.2802 33.32L26.6602 22.7C29.1802 17.12 23.9602 11.18 18.2002 12.8L21.4402 16.04C22.8802 17.48 22.8802 19.82 21.4402 21.08C20.1802 22.52 17.6602 22.52 16.4002 21.08L13.1602 18.02C11.5402 23.06 16.7602 28.82 22.7002 26.48L33.3202 37.1C34.4002 38.18 36.0202 38.18 37.1002 37.1C38.1802 36.2 38.1802 34.4 37.2802 33.32Z" fill="white"/>
</svg>
