<svg width="35" height="35" viewBox="0 0 35 35" fill="none" xmlns="http://www.w3.org/2000/svg">
<g clip-path="url(#clip0_2556_14)">
<path d="M4.70056 0.878468C4.59588 0.888601 4.49623 0.928271 4.41323 0.992855C4.33022 1.05744 4.26727 1.14428 4.23172 1.24326C4.19617 1.34224 4.18947 1.44929 4.21241 1.55192C4.23535 1.65456 4.28698 1.74857 4.36129 1.823L8.08287 5.53831V6.74463L6.74461 8.0808H5.54248L1.82089 4.3634C1.74308 4.28752 1.64469 4.23615 1.53795 4.21568C1.43121 4.19521 1.32081 4.20653 1.22044 4.24823C1.12007 4.28994 1.03416 4.3602 0.973366 4.4503C0.91257 4.54039 0.879566 4.64635 0.87845 4.75503V9.19287C0.87942 9.33815 0.937318 9.47726 1.03971 9.58032L3.81048 12.3511C3.91458 12.4545 4.05539 12.5125 4.20212 12.5124H8.4033L13.1616 17.2685L17.2706 13.1616L12.5144 8.40332V4.20004C12.5135 4.05374 12.4547 3.91374 12.3511 3.8105L9.5824 1.03764C9.47745 0.934478 9.33582 0.877225 9.18867 0.878468H4.75292C4.73478 0.877577 4.7187 0.877577 4.70056 0.878468ZM31.8449 0.878468C31.7793 0.886239 31.7155 0.905374 31.6564 0.935014L26.1191 3.70579C26.0267 3.75173 25.9489 3.82251 25.8946 3.91019C25.8402 3.99786 25.8113 4.09896 25.8112 4.20214V6.19173L13.2977 18.701L16.2968 21.7043L28.8102 9.19078H30.7998C31.0093 9.19078 31.1999 9.06931 31.2941 8.88292L34.067 3.34138C34.1185 3.23733 34.1362 3.11974 34.1174 3.00515C34.0986 2.89056 34.0443 2.78474 33.9622 2.70261L32.2994 1.03764C32.2404 0.978676 32.169 0.933751 32.0903 0.906196C32.0116 0.878641 31.9277 0.869163 31.8449 0.878468ZM21.8425 17.7293L17.7314 21.8425L22.4854 26.5966V30.802C22.4859 30.8749 22.5008 30.947 22.5292 31.0142C22.5576 31.0814 22.5989 31.1424 22.6509 31.1936L25.4196 33.9644C25.5233 34.0685 25.6642 34.1273 25.8112 34.1277H30.2469C30.3566 34.127 30.4635 34.0938 30.5543 34.0324C30.6451 33.971 30.7156 33.884 30.7571 33.7826C30.7985 33.6811 30.809 33.5696 30.7871 33.4622C30.7653 33.3548 30.7122 33.2562 30.6344 33.179L26.9212 29.4637V28.2616L28.2574 26.9212H29.4616L33.179 30.6386C33.2568 30.7153 33.3556 30.7673 33.4629 30.7881C33.5701 30.8089 33.6812 30.7976 33.7821 30.7556C33.8829 30.7135 33.9691 30.6426 34.0299 30.5518C34.0906 30.4609 34.1232 30.3542 34.1235 30.2449V25.8154C34.1231 25.6684 34.0643 25.5275 33.9602 25.4238L31.1915 22.6488C31.0865 22.5457 30.9449 22.4884 30.7977 22.4896H26.5987L21.8425 17.7293ZM11.4003 18.6047C11.2554 18.6068 11.1171 18.6654 11.0149 18.7681L9.74366 20.0414L14.9585 25.2562L16.2297 23.985C16.3327 23.8811 16.3904 23.7407 16.3904 23.5944C16.3904 23.4481 16.3327 23.3077 16.2297 23.2038L11.7982 18.7681C11.7458 18.7155 11.6834 18.6739 11.6147 18.6459C11.546 18.6178 11.4745 18.6038 11.4003 18.6047ZM8.96039 20.8247L2.05545 27.7275C0.551737 29.2312 0.463776 31.6313 1.91513 33.0827C3.36649 34.534 5.76866 34.444 7.27028 32.9423L14.1731 26.0395L8.96039 20.8247Z" fill="white"/>
</g>
<defs>
<clipPath id="clip0_2556_14">
<rect width="35" height="35" fill="white"/>
</clipPath>
</defs>
</svg>
