<svg width="35" height="35" viewBox="0 0 35 35" fill="none" xmlns="http://www.w3.org/2000/svg">
<path d="M15.531 33.25C16.6183 33.25 17.4998 32.3686 17.4998 31.2812C17.4998 30.1939 16.6183 29.3125 15.531 29.3125C14.4437 29.3125 13.5623 30.1939 13.5623 31.2812C13.5623 32.3686 14.4437 33.25 15.531 33.25Z" fill="white"/>
<path d="M26.031 33.25C27.1183 33.25 27.9998 32.3686 27.9998 31.2812C27.9998 30.1939 27.1183 29.3125 26.031 29.3125C24.9437 29.3125 24.0623 30.1939 24.0623 31.2812C24.0623 32.3686 24.9437 33.25 26.031 33.25Z" fill="white"/>
<path d="M33.2498 10.2812C33.2498 14.9853 29.4225 18.8125 24.7185 18.8125C20.0145 18.8125 16.1873 14.9853 16.1873 10.2812C16.1873 5.57725 20.0145 1.75 24.7185 1.75C29.4225 1.75 33.2498 5.57725 33.2498 10.2812ZM28.8634 6.34113C28.6013 6.11226 28.2591 5.99671 27.9119 6.01984C27.5647 6.04297 27.2409 6.20289 27.0114 6.4645L23.3417 10.6593L21.7089 9.0265C21.4628 8.7804 21.129 8.64214 20.781 8.64214C20.433 8.64214 20.0992 8.7804 19.8531 9.0265C19.607 9.2726 19.4687 9.60639 19.4687 9.95444C19.4687 10.3025 19.607 10.6363 19.8531 10.8824L22.4781 13.5074C22.6051 13.6344 22.7568 13.7339 22.9238 13.7999C23.0909 13.8659 23.2697 13.8969 23.4492 13.891C23.6287 13.8851 23.8051 13.8424 23.9674 13.7656C24.1298 13.6888 24.2746 13.5794 24.393 13.4444L28.9868 8.19438C29.1004 8.06464 29.1874 7.91376 29.2428 7.75038C29.2981 7.58699 29.3207 7.4143 29.3092 7.24217C29.2978 7.07005 29.2525 6.90188 29.176 6.74727C29.0995 6.59266 28.9933 6.45465 28.8634 6.34113Z" fill="white"/>
<path d="M13.5623 10.2813C13.5623 10.0594 13.582 9.84288 13.5951 9.625H10.096L9.59721 7.25463C9.42393 6.44857 8.98125 5.72557 8.34211 5.20476C7.70296 4.68395 6.90547 4.39638 6.08102 4.38944L2.73809 4.375H2.73415C2.47308 4.37448 2.22249 4.47769 2.03751 4.66193C1.85254 4.84616 1.74833 5.09634 1.7478 5.35741C1.74728 5.61848 1.85049 5.86907 2.03473 6.05404C2.21897 6.23902 2.46914 6.34323 2.73021 6.34375L6.07184 6.35819C6.83965 6.36081 7.51165 6.90944 7.67046 7.66019L8.33327 10.8115L10.7089 22.0938H9.9529C8.32409 22.0938 6.99977 23.4181 6.99977 25.0469C6.99977 26.6757 8.32409 28 9.9529 28H29.6404C29.9015 28 30.1518 27.8963 30.3365 27.7117C30.5211 27.5271 30.6248 27.2767 30.6248 27.0156C30.6248 26.7546 30.5211 26.5042 30.3365 26.3196C30.1518 26.135 29.9015 26.0313 29.6404 26.0313H9.9529C9.69183 26.0313 9.44145 25.9275 9.25684 25.7429C9.07223 25.5583 8.96852 25.308 8.96852 25.0469C8.96852 24.7858 9.07223 24.5354 9.25684 24.3508C9.44145 24.1662 9.69183 24.0625 9.9529 24.0625H29.6404C29.8663 24.0623 30.0853 23.9844 30.2606 23.842C30.436 23.6996 30.5571 23.5013 30.6038 23.2803L31.4766 19.1367C29.5393 20.6279 27.1633 21.4369 24.7185 21.4375C18.5668 21.4375 13.5623 16.4329 13.5623 10.2813Z" fill="white"/>
</svg>
