<svg width="35" height="35" viewBox="0 0 35 35" fill="none" xmlns="http://www.w3.org/2000/svg">
<path fill-rule="evenodd" clip-rule="evenodd" d="M5.05674 8.7494H9.31813V11.0634C9.31813 11.4667 9.64509 11.7937 10.0484 11.7937C10.4517 11.7937 10.7787 11.4667 10.7787 11.0634V8.7494H18.4273V11.0634C18.4273 11.4667 18.7543 11.7937 19.1576 11.7937C19.5609 11.7937 19.8879 11.4667 19.8879 11.0634V8.7494H24.1492C24.377 8.74887 24.5967 8.83374 24.7649 8.98726C24.9332 9.14078 25.0378 9.3518 25.0581 9.57867L25.7452 17.0527C25.4167 17.0186 25.0867 17.0014 24.7565 17.0014C19.5379 17.0014 15.3074 21.2319 15.3074 26.4504C15.3074 27.734 15.5639 28.9575 16.0274 30.0732H4.22351C3.70254 30.0732 3.25404 29.8753 2.90294 29.4903C2.55178 29.1055 2.39579 28.6407 2.44343 28.1219L4.14777 9.57867C4.16809 9.3518 4.2727 9.14078 4.44098 8.98726C4.60925 8.83374 4.82896 8.74887 5.05674 8.7494ZM9.31813 8.62916V6.02576C9.31813 4.57169 9.91245 3.2503 10.87 2.29279C11.8275 1.33528 13.1489 0.740967 14.6029 0.740967C16.057 0.740967 17.3784 1.33528 18.3359 2.29279C19.2934 3.2503 19.8877 4.57176 19.8877 6.02576V8.62916H18.4272V6.02576C18.4272 4.97487 17.9968 4.01887 17.3033 3.32543C16.6097 2.63192 15.6539 2.20146 14.6029 2.20146C13.552 2.20146 12.5961 2.63192 11.9026 3.32543C11.2091 4.01887 10.7786 4.9748 10.7786 6.02576V8.62916H9.31813ZM24.7564 18.642C20.444 18.642 16.948 22.138 16.948 26.4504C16.948 30.7629 20.444 34.2589 24.7564 34.2589C29.0689 34.2589 32.5648 30.7629 32.5648 26.4504C32.5648 22.138 29.0689 18.642 24.7564 18.642ZM20.9396 26.9127L23.2757 29.0582C23.6031 29.3593 24.1098 29.3433 24.4176 29.0259L28.5861 25.0348C28.9117 24.7216 28.9217 24.2036 28.6085 23.878C28.2953 23.5524 27.7773 23.5424 27.4517 23.8556L23.8189 27.3339L22.0484 25.7079C21.7156 25.4018 21.1977 25.4233 20.8916 25.756C20.5854 26.0886 20.6069 26.6066 20.9396 26.9127Z" fill="white"/>
</svg>
