<svg width="35" height="35" viewBox="0 0 35 35" fill="none" xmlns="http://www.w3.org/2000/svg">
<path d="M32.6963 7.10938C32.6963 6.50655 32.4568 5.92842 32.0306 5.50216C31.6043 5.0759 31.0262 4.83643 30.4233 4.83643H3.14795C2.54513 4.83643 1.96699 5.0759 1.54073 5.50216C1.11447 5.92842 0.875 6.50655 0.875 7.10938L0.875 9.09528H32.6963V7.10938ZM19.8379 17.3266C19.8388 16.5518 20.1469 15.809 20.6948 15.2611C21.2426 14.7133 21.9855 14.4051 22.7603 14.4042C23.6564 14.4058 24.5305 14.1272 25.2605 13.6074L26.2638 12.8931C26.7582 12.542 27.3495 12.3534 27.9559 12.3534C28.5622 12.3534 29.1536 12.542 29.6479 12.8931L30.6506 13.6074C31.2542 14.0381 31.9589 14.3052 32.6963 14.3828V11.0435H0.875V24.6585C0.875 25.2613 1.11447 25.8394 1.54073 26.2657C1.96699 26.692 2.54513 26.9314 3.14795 26.9314H21.1685C20.2928 25.3314 19.8351 23.5361 19.8379 21.7121V17.3266ZM5.32284 15.6044H5.95926C6.08719 15.6044 6.21386 15.6296 6.33204 15.6785C6.45023 15.7275 6.55761 15.7992 6.64807 15.8897C6.73853 15.9801 6.81028 16.0875 6.85923 16.2057C6.90819 16.3239 6.93338 16.4506 6.93338 16.5785C6.93338 16.7064 6.90819 16.8331 6.85923 16.9513C6.81028 17.0694 6.73853 17.1768 6.64807 17.2673C6.55761 17.3577 6.45023 17.4295 6.33204 17.4785C6.21386 17.5274 6.08719 17.5526 5.95926 17.5526H5.32284C5.19491 17.5526 5.06824 17.5274 4.95006 17.4785C4.83187 17.4295 4.72448 17.3577 4.63403 17.2673C4.54357 17.1768 4.47182 17.0694 4.42287 16.9513C4.37391 16.8331 4.34872 16.7064 4.34872 16.5785C4.34872 16.4506 4.37391 16.3239 4.42287 16.2057C4.47182 16.0875 4.54357 15.9801 4.63403 15.8897C4.72448 15.7992 4.83187 15.7275 4.95006 15.6785C5.06824 15.6296 5.19491 15.6044 5.32284 15.6044ZM13.6594 21.7212H5.32284C5.06448 21.7212 4.81671 21.6186 4.63403 21.4359C4.45135 21.2532 4.34872 21.0054 4.34872 20.7471C4.34872 20.4887 4.45135 20.2409 4.63403 20.0583C4.81671 19.8756 5.06448 19.7729 5.32284 19.7729H13.6594C13.9177 19.7729 14.1655 19.8756 14.3482 20.0583C14.5309 20.2409 14.6335 20.4887 14.6335 20.7471C14.6335 21.0054 14.5309 21.2532 14.3482 21.4359C14.1655 21.6186 13.9177 21.7212 13.6594 21.7212ZM13.6594 17.5526H9.78042C9.52206 17.5526 9.27429 17.45 9.09161 17.2673C8.90892 17.0846 8.80629 16.8368 8.80629 16.5785C8.80629 16.3201 8.90892 16.0724 9.09161 15.8897C9.27429 15.707 9.52206 15.6044 9.78042 15.6044H13.6594C13.9177 15.6044 14.1655 15.707 14.3482 15.8897C14.5309 16.0724 14.6335 16.3201 14.6335 16.5785C14.6335 16.8368 14.5309 17.0846 14.3482 17.2673C14.1655 17.45 13.9177 17.5526 13.6594 17.5526Z" fill="white"/>
<path d="M33.1509 16.3524C31.8506 16.3546 30.5823 15.9502 29.5233 15.1958L28.5193 14.4814C28.3545 14.3645 28.1575 14.3018 27.9556 14.3018C27.7536 14.3018 27.5566 14.3645 27.3919 14.4814L26.3879 15.1958C25.3289 15.9502 24.0605 16.3546 22.7603 16.3524C22.5019 16.3524 22.2541 16.455 22.0714 16.6377C21.8888 16.8204 21.7861 17.0682 21.7861 17.3265V21.712C21.786 23.5382 22.3445 25.3208 23.3865 26.8205C24.4286 28.3203 25.9044 29.4655 27.6159 30.1024C27.835 30.1839 28.0761 30.1839 28.2952 30.1024C30.0068 29.4655 31.4826 28.3203 32.5246 26.8205C33.5666 25.3208 34.1251 23.5382 34.125 21.712V17.3265C34.125 17.0682 34.0224 16.8204 33.8397 16.6377C33.657 16.455 33.4092 16.3524 33.1509 16.3524ZM30.635 21.538L28.2751 24.2168C28.1837 24.3205 28.0712 24.4037 27.9452 24.4606C27.8192 24.5175 27.6824 24.547 27.5442 24.547C27.4059 24.547 27.2692 24.5175 27.1431 24.4606C27.0171 24.4037 26.9047 24.3205 26.8132 24.2168L25.2761 22.4725C25.1915 22.3764 25.1267 22.2647 25.0853 22.1436C25.044 22.0225 25.0268 21.8945 25.035 21.7668C25.0513 21.5089 25.1695 21.2681 25.3634 21.0973C25.5574 20.9266 25.8112 20.8398 26.0691 20.8562C26.327 20.8726 26.5678 20.9907 26.7386 21.1847L27.5438 22.099L29.1726 20.2502C29.3433 20.0562 29.5842 19.9381 29.842 19.9217C30.0999 19.9053 30.3538 19.992 30.5477 20.1628C30.7416 20.3336 30.8598 20.5744 30.8762 20.8323C30.8926 21.0902 30.8058 21.344 30.635 21.538Z" fill="white"/>
</svg>
