<svg width="35" height="35" viewBox="0 0 35 35" fill="none" xmlns="http://www.w3.org/2000/svg">
<path fill-rule="evenodd" clip-rule="evenodd" d="M24.9512 7.38391C27.9856 8.08801 29.1465 9.86241 30.6018 12.3047H24.9512V7.38391ZM7.21725 12.5098C7.81143 12.5098 8.24264 12.7965 8.24264 13.4668C8.24264 14.0321 7.78524 14.4906 7.22019 14.4922H1.02539C0.459033 14.4922 0 14.9515 0 15.5176C0 16.0839 0.459033 16.543 1.02539 16.543H10.2539C10.8256 16.543 11.2833 17.0017 11.2833 17.5684C11.2833 18.1347 10.8243 18.5938 10.2579 18.5938H1.02539C0.459033 18.5938 0 19.0528 0 19.6191C0 20.1855 0.459033 20.6445 1.02539 20.6445H3.28125V23.7207C3.28125 24.2871 3.74028 24.7461 4.30664 24.7461H6.36781C6.73524 26.556 8.33451 27.8906 10.2197 27.8906C12.1049 27.8906 13.7042 26.556 14.0716 24.7461H24.483C24.8505 26.556 26.4497 27.8906 28.335 27.8906C30.2202 27.8906 31.8194 26.556 32.1869 24.7461H33.9746C34.541 24.7461 35 24.2871 35 23.7207V17.5684C35 14.5597 31.8266 14.36 31.8237 14.3555H23.9258C23.3594 14.3555 22.9004 13.8964 22.9004 13.3301V7.17773H4.30664C3.74028 7.17773 3.28125 7.63677 3.28125 8.20312V10.459H2.05078C1.48442 10.459 1.02539 10.918 1.02539 11.4844C1.02539 12.0507 1.48442 12.5098 2.05078 12.5098H7.21725ZM29.6642 22.6307C30.3983 23.3648 30.3983 24.5554 29.6642 25.2895C28.4834 26.4703 26.4551 25.6303 26.4551 23.96C26.4551 22.2899 28.4834 21.4499 29.6642 22.6307ZM11.549 22.6307C12.2831 23.3648 12.2831 24.5554 11.549 25.2895C10.3682 26.4703 8.33984 25.6303 8.33984 23.96C8.33984 22.2899 10.3682 21.4499 11.549 22.6307Z" fill="white"/>
</svg>
