<svg width="40" height="40" viewBox="0 0 40 40" fill="none" xmlns="http://www.w3.org/2000/svg">
<path d="M12.4095 5C9.59927 5 7.1686 7.09182 6.75747 9.87038C6.7168 10.146 6.69421 10.4306 6.69421 10.7152C6.69421 10.8643 6.69873 11.0089 6.71229 11.158C6.72584 11.3342 6.74843 11.5104 6.77554 11.6866C6.82524 11.9938 6.90656 12.2965 7.00595 12.5857C7.12794 12.9381 7.43968 13.6022 8.24388 14.7724C9.54054 16.6609 11.42 18.8521 12.4095 19.9726L12.5314 19.837C13.548 18.6804 15.3281 16.5886 16.575 14.7724C17.3792 13.6022 17.691 12.9381 17.813 12.5857C17.9124 12.292 17.9892 11.9938 18.0434 11.6866C18.0615 11.5917 18.075 11.4923 18.084 11.3929C18.1111 11.167 18.1247 10.9411 18.1247 10.7198C18.1247 7.5617 15.5585 5 12.4095 5ZM12.4095 12.5089C11.42 12.5089 10.6158 11.7047 10.6158 10.7152C10.6158 9.72581 11.42 8.92161 12.4095 8.92161C13.3989 8.92161 14.2031 9.72581 14.2031 10.7152C14.2031 11.7047 13.3989 12.5089 12.4095 12.5089Z" fill="white"/>
<path d="M21.1789 11.1536H19.9184C19.9093 11.3027 19.8958 11.4472 19.8822 11.5963C19.8732 11.6731 19.8642 11.7545 19.8506 11.8313C19.8416 11.881 19.8325 11.9352 19.828 11.9849C19.7602 12.387 19.6563 12.7846 19.5253 13.1641C19.2904 13.8418 18.816 14.7002 18.066 15.7845C16.1684 18.5495 13.2046 21.7934 13.0781 21.9289L12.8342 22.1955L12.4095 22.6609L11.7408 21.9335C11.6143 21.7979 8.65053 18.554 6.75297 15.789C6.00751 14.7002 5.5286 13.8463 5.29818 13.1731C5.22138 12.9562 5.15813 12.7349 5.10391 12.5135C5.05873 12.3418 5.02259 12.1656 4.99548 11.9894C4.98644 11.9397 4.97741 11.8855 4.97289 11.8358C4.94126 11.6099 4.91416 11.384 4.90512 11.1581H3.59942C2.19433 11.1581 1.0061 12.3011 1.0061 13.652V29.3294C1.0061 30.0026 1.29074 30.6306 1.80579 31.105C2.28921 31.5477 2.94432 31.8053 3.59942 31.8053H6.84785C7.15507 33.617 8.73637 35.004 10.6339 35.004C12.5315 35.004 14.1128 33.617 14.42 31.8053H23.6412V13.652C23.6367 12.2514 22.5569 11.1536 21.1789 11.1536ZM10.6294 33.1923C9.50894 33.1923 8.59631 32.2796 8.59631 31.1592V31.1366C8.60986 30.0297 9.5225 29.1261 10.6294 29.1261C11.7363 29.1261 12.6489 30.0297 12.6625 31.1366V31.1592C12.6625 32.2796 11.7499 33.1923 10.6294 33.1923ZM30.5266 23.1172V21.31H38.4827L33.0386 14.5014H25.4439V31.8053H28.2495C28.5567 33.617 30.138 35.004 32.0356 35.004C33.9331 35.004 35.5144 33.6215 35.8217 31.8053H38.9978V23.1172H30.5266ZM33.9648 31.8053C33.6937 32.6095 32.9347 33.1968 32.0356 33.1968C31.141 33.1968 30.3775 32.614 30.1064 31.8053C30.0372 31.5969 30.0021 31.3787 30.0025 31.1592V31.1276C30.007 30.8881 30.0522 30.6622 30.129 30.4499C30.4182 29.6818 31.1636 29.1261 32.0311 29.1261C32.8985 29.1261 33.644 29.6773 33.9331 30.4499C34.0145 30.6622 34.0596 30.8881 34.0596 31.1276V31.1592C34.0687 31.3851 34.0325 31.6019 33.9648 31.8053Z" fill="white"/>
</svg>
