<svg width="40" height="40" viewBox="0 0 40 40" fill="none" xmlns="http://www.w3.org/2000/svg">
<path d="M33.6936 31.4325C32.888 29.0349 29.6772 27.5341 27.388 26.5281C26.4912 26.1353 24.0084 25.4689 23.71 24.3397C23.6032 23.9329 23.6176 23.5493 23.7052 23.1817C23.5659 23.209 23.4244 23.2231 23.2824 23.2237H21.7908C21.2185 23.223 20.6698 22.9954 20.2651 22.5906C19.8605 22.1859 19.6329 21.6372 19.6324 21.0649C19.6324 19.8757 20.6004 18.9089 21.7908 18.9089H23.2824C23.7752 18.9089 24.2424 19.0757 24.6192 19.3733C25.1554 19.3026 25.6846 19.1867 26.2012 19.0269C26.8536 17.6601 27.3624 16.0257 27.4764 14.6189C27.9632 8.59967 24.2732 5.07807 18.9824 5.68687C15.1356 6.12967 12.8376 8.99807 12.5892 12.6909C12.338 16.4549 13.7336 19.2349 15.216 21.2741C15.8652 22.1657 16.5472 22.7389 16.4424 23.8133C16.3208 25.0837 14.9624 25.4377 13.9908 25.8281C12.8396 26.2905 11.5996 26.9921 11.014 27.3165C8.9968 28.4305 6.7828 29.7721 6.2852 31.6073C5.1832 35.6745 8.9048 36.9065 11.9772 37.4753C14.614 37.9617 17.5872 38.0001 20.0328 38.0001C24.4564 38.0001 32.4108 37.8229 33.6936 34.4977C34.0584 33.5541 33.902 32.0505 33.6936 31.4325Z" fill="#D3D3D3"/>
<path d="M24.2264 20.4572C24.1243 20.3 23.9845 20.1707 23.8198 20.0811C23.6551 19.9915 23.4707 19.9443 23.2832 19.944H21.7916C21.6415 19.94 21.4922 19.9661 21.3523 20.0208C21.2125 20.0754 21.0851 20.1575 20.9775 20.2623C20.8699 20.367 20.7844 20.4922 20.7261 20.6305C20.6677 20.7689 20.6376 20.9175 20.6376 21.0676C20.6376 21.2177 20.6677 21.3663 20.7261 21.5047C20.7844 21.643 20.8699 21.7682 20.9775 21.8729C21.0851 21.9777 21.2125 22.0598 21.3523 22.1144C21.4922 22.1691 21.6415 22.1952 21.7916 22.1912H23.2832C23.4884 22.191 23.6896 22.1342 23.8645 22.027C24.0395 21.9198 24.1815 21.7664 24.2748 21.5836C26.3544 21.42 28.1632 20.7848 29.4328 19.8468C29.7244 20.0348 30.0692 20.1448 30.4412 20.1448H30.5348C30.7812 20.1449 31.0253 20.0963 31.2529 20.002C31.4806 19.9076 31.6874 19.7693 31.8616 19.595C32.0358 19.4206 32.1738 19.2136 32.2679 18.9859C32.362 18.7581 32.4103 18.514 32.41 18.2676V14.5204C32.4101 14.1665 32.3097 13.8198 32.1205 13.5207C31.9313 13.2216 31.661 12.9824 31.3412 12.8308C31.066 6.8136 26.0848 2 20 2C13.9152 2 8.9332 6.8136 8.6592 12.8308C8.33913 12.9821 8.06865 13.2213 7.87928 13.5204C7.68991 13.8196 7.58945 14.1664 7.5896 14.5204V18.2676C7.58929 18.5139 7.63751 18.7579 7.73151 18.9855C7.82551 19.2132 7.96345 19.4201 8.13744 19.5944C8.31144 19.7687 8.51808 19.9071 8.74556 20.0015C8.97304 20.096 9.2169 20.1446 9.4632 20.1448H9.558C9.80439 20.1447 10.0484 20.0961 10.2759 20.0018C10.5035 19.9074 10.7103 19.7691 10.8844 19.5947C11.0585 19.4204 11.1966 19.2134 11.2907 18.9857C11.3848 18.758 11.4331 18.514 11.4328 18.2676V14.5204C11.4326 14.1714 11.3348 13.8295 11.1505 13.5331C10.9661 13.2368 10.7026 12.998 10.3896 12.8436C10.6572 7.7736 14.8644 3.7324 20 3.7324C25.1336 3.7324 29.3428 7.7736 29.6092 12.8436C29.2965 12.9983 29.0333 13.2372 28.8492 13.5335C28.6651 13.8298 28.5674 14.1716 28.5672 14.5204V18.2676C28.5672 18.5164 28.6156 18.748 28.7008 18.9644C27.608 19.7464 26.0172 20.3036 24.2264 20.4572Z" fill="#D3D3D3"/>
</svg>
