<svg width="40" height="40" viewBox="0 0 40 40" fill="none" xmlns="http://www.w3.org/2000/svg">
<path d="M17.7499 38C18.9925 38 19.9999 36.9926 19.9999 35.75C19.9999 34.5074 18.9925 33.5 17.7499 33.5C16.5072 33.5 15.4999 34.5074 15.4999 35.75C15.4999 36.9926 16.5072 38 17.7499 38Z" fill="white"/>
<path d="M29.7498 38C30.9925 38 31.9998 36.9926 31.9998 35.75C31.9998 34.5074 30.9925 33.5 29.7498 33.5C28.5072 33.5 27.4998 34.5074 27.4998 35.75C27.4998 36.9926 28.5072 38 29.7498 38Z" fill="white"/>
<path d="M37.9998 11.75C37.9998 17.126 33.6258 21.5 28.2498 21.5C22.8738 21.5 18.4998 17.126 18.4998 11.75C18.4998 6.374 22.8738 2 28.2498 2C33.6258 2 37.9998 6.374 37.9998 11.75ZM32.9868 7.247C32.6873 6.98543 32.2962 6.85338 31.8994 6.87981C31.5026 6.90625 31.1325 7.08901 30.8703 7.388L26.6763 12.182L24.8103 10.316C24.5291 10.0347 24.1476 9.87673 23.7498 9.87673C23.3521 9.87673 22.9706 10.0347 22.6893 10.316C22.4081 10.5973 22.2501 10.9787 22.2501 11.3765C22.2501 11.7743 22.4081 12.1557 22.6893 12.437L25.6893 15.437C25.8345 15.5821 26.0079 15.6959 26.1988 15.7713C26.3897 15.8467 26.5941 15.8822 26.7992 15.8754C27.0044 15.8687 27.2059 15.8199 27.3915 15.7321C27.577 15.6443 27.7425 15.5193 27.8778 15.365L33.1278 9.365C33.2578 9.21673 33.3572 9.0443 33.4204 8.85757C33.4837 8.67084 33.5095 8.47348 33.4964 8.27677C33.4833 8.08006 33.4316 7.88786 33.3441 7.71116C33.2567 7.53447 33.1353 7.37674 32.9868 7.247Z" fill="white"/>
<path d="M15.4999 11.75C15.4999 11.4965 15.5224 11.249 15.5374 11H11.5384L10.9684 8.291C10.7703 7.36979 10.2644 6.54351 9.53397 5.9483C8.80351 5.35308 7.89209 5.02443 6.94987 5.0165L3.12937 5H3.12487C2.8265 4.99941 2.54012 5.11736 2.32872 5.32792C2.11732 5.53847 1.99822 5.82438 1.99762 6.12275C1.99703 6.42112 2.11498 6.70751 2.32554 6.91891C2.53609 7.13031 2.822 7.24941 3.12037 7.25L6.93937 7.2665C7.81687 7.2695 8.58487 7.8965 8.76637 8.7545L9.52387 12.356L12.2389 25.25H11.3749C9.51337 25.25 7.99987 26.7635 7.99987 28.625C7.99987 30.4865 9.51337 32 11.3749 32H33.8749C34.1732 32 34.4594 31.8815 34.6704 31.6705C34.8813 31.4595 34.9999 31.1734 34.9999 30.875C34.9999 30.5766 34.8813 30.2905 34.6704 30.0795C34.4594 29.8685 34.1732 29.75 33.8749 29.75H11.3749C11.0765 29.75 10.7904 29.6315 10.5794 29.4205C10.3684 29.2095 10.2499 28.9234 10.2499 28.625C10.2499 28.3266 10.3684 28.0405 10.5794 27.8295C10.7904 27.6185 11.0765 27.5 11.3749 27.5H33.8749C34.133 27.4997 34.3833 27.4108 34.5837 27.248C34.7841 27.0853 34.9226 26.8586 34.9759 26.606L35.9734 21.8705C33.7593 23.5748 31.0439 24.4993 28.2499 24.5C21.2194 24.5 15.4999 18.7805 15.4999 11.75Z" fill="white"/>
</svg>
