<svg width="40" height="40" viewBox="0 0 40 40" fill="none" xmlns="http://www.w3.org/2000/svg">
<path d="M38.8281 37.6561H37.5376C36.9932 34.985 34.6262 32.9687 31.7969 32.9687H27.1094C24.28 32.9687 21.9131 34.985 21.3686 37.6561H20.0781C19.4304 37.6561 18.9063 38.1803 18.9063 38.828C18.9063 39.4757 19.4304 39.9999 20.0781 39.9999H38.8281C39.4758 39.9999 40 39.4757 40 38.828C40 38.1803 39.4758 37.6561 38.8281 37.6561ZM16.4488 18.8499L1.02841 33.9986C-0.342607 35.3697 -0.342607 37.599 1.02723 38.97C1.69106 39.6337 2.5745 39.9999 3.5141 39.9999C4.45254 39.9999 5.33598 39.6336 5.99972 38.9699L21.42 23.8213L16.4488 18.8499ZM24.4535 2.49551C23.8012 1.1909 22.6019 0.30395 21.1622 0.063638C19.7271 -0.177846 18.3 0.270747 17.1899 1.36137L12.2175 6.33378L12.2095 6.34183C11.1727 7.39698 10.7183 8.84011 10.9621 10.3003C11.2059 11.7594 12.1053 12.976 13.4306 13.6374L14.3826 14.1125L24.9685 3.5266L24.4535 2.49551ZM26.3041 5.50527L16.3614 15.4478L24.6475 23.7351L34.5907 13.7919L26.3041 5.50527ZM39.9397 19.0975C39.6959 17.5857 38.7403 16.2663 37.3854 15.5681L36.5555 15.1414L25.9899 25.707L26.399 26.5143C27.0891 27.875 28.4028 28.8374 29.9158 29.0904C30.1669 29.1322 30.4211 29.1532 30.6757 29.1533C31.8144 29.1533 32.897 28.7196 33.7622 27.8785L38.7781 22.8626C39.744 21.8761 40.1674 20.504 39.9397 19.0975Z" fill="#D3D3D3"/>
</svg>
