<svg width="40" height="40" viewBox="0 0 40 40" fill="none" xmlns="http://www.w3.org/2000/svg">
<path d="M5 27.7501C5.00007 27.99 5.06917 28.2248 5.19905 28.4265C5.32894 28.6282 5.51412 28.7883 5.7325 28.8876L19.3075 35.2501L19.3737 18.1501L5 11.5139V27.7501ZM27.5463 14.9551L20.625 18.1514L20.5575 35.2501L34.2675 28.8876C34.4859 28.7883 34.6711 28.6282 34.8009 28.4265C34.9308 28.2248 34.9999 27.99 35 27.7501V16.1314C33.7491 16.5079 32.4295 16.5978 31.139 16.3944C29.8486 16.191 28.6206 15.6995 27.5463 14.9564V14.9551ZM23.75 7.75011C23.75 7.04261 23.8437 6.35636 24.0037 5.69761L20.5163 4.11261C20.354 4.03841 20.1778 4 19.9994 4C19.821 4 19.6447 4.03841 19.4825 4.11261C19.4825 4.11261 5.665 10.4076 5.62875 10.4289L20 17.0626L26.47 14.0764C25.6108 13.2618 24.9265 12.2808 24.4589 11.1932C23.9912 10.1055 23.75 8.93403 23.75 7.75011Z" fill="white"/>
<path d="M32.5 0C31.5151 -1.46764e-08 30.5398 0.193993 29.6299 0.570903C28.7199 0.947814 27.8931 1.50026 27.1967 2.1967C26.5003 2.89314 25.9478 3.71993 25.5709 4.62987C25.194 5.53982 25 6.51509 25 7.5C25 8.48491 25.194 9.46018 25.5709 10.3701C25.9478 11.2801 26.5003 12.1069 27.1967 12.8033C27.8931 13.4997 28.7199 14.0522 29.6299 14.4291C30.5398 14.806 31.5151 15 32.5 15C34.4891 15 36.3968 14.2098 37.8033 12.8033C39.2098 11.3968 40 9.48912 40 7.5C40 5.51088 39.2098 3.60322 37.8033 2.1967C36.3968 0.790176 34.4891 2.96403e-08 32.5 0ZM35.58 4.6075L33.08 10.8575C33.0416 10.9536 32.98 11.0387 32.9006 11.105C32.8213 11.1714 32.7267 11.2171 32.6253 11.2379C32.524 11.2587 32.419 11.2541 32.3199 11.2243C32.2208 11.1946 32.1306 11.1407 32.0575 11.0675L29.5575 8.5675C29.4994 8.50939 29.4533 8.4404 29.4218 8.36448C29.3904 8.28856 29.3742 8.20718 29.3742 8.125C29.3742 8.04282 29.3904 7.96144 29.4218 7.88552C29.4533 7.8096 29.4994 7.74061 29.5575 7.6825C29.6156 7.62439 29.6846 7.57829 29.7605 7.54685C29.8364 7.5154 29.9178 7.49921 30 7.49921C30.0822 7.49921 30.1636 7.5154 30.2395 7.54685C30.3154 7.57829 30.3844 7.62439 30.4425 7.6825L32.2712 9.5125L34.42 4.1425C34.4493 4.06468 34.4939 3.99349 34.5511 3.93311C34.6083 3.87273 34.677 3.82438 34.7531 3.79088C34.8292 3.75738 34.9113 3.73941 34.9944 3.73803C35.0776 3.73664 35.1602 3.75187 35.2374 3.78282C35.3146 3.81376 35.3848 3.8598 35.444 3.91825C35.5032 3.97669 35.5501 4.04635 35.582 4.12315C35.6139 4.19996 35.6302 4.28236 35.6298 4.36553C35.6295 4.4487 35.6125 4.53096 35.58 4.6075Z" fill="white"/>
</svg>
