<svg width="40" height="40" viewBox="0 0 40 40" fill="none" xmlns="http://www.w3.org/2000/svg">
<g clip-path="url(#clip0_22_260)">
<path d="M35.6 16.6C35.2 14.8 34.4 13 33.4 11.4L35.4 7.2L32.6 4.4L28.4 6.4C26.8 5.4 25.2 4.8 23.4 4.4L22 0H18L16.4 4.4C14.6 4.8 13 5.6 11.4 6.6L7.2 4.6L4.4 7.2L6.4 11.4C5.4 13 4.8 14.6 4.4 16.4L0 18V22L4.4 23.6C4.8 25.4 5.6 27.2 6.4 28.6L4.4 32.8L7.2 35.6L11.4 33.6C13 34.6 14.6 35.4 16.4 35.8L18 40H22L23.6 35.6C24.2 35.4 25 35.2 25.6 35L22.4 31.8C14.8 33.2 8 27.6 8 20C8 13.4 13.4 8 20 8C27.4 8 33 14.6 31.8 21.6L35.2 25C35.4 24.4 35.6 24 35.6 23.4L40 22V18L35.6 16.6Z" fill="#D3D3D3"/>
<path d="M39.2 34.8001L27.4 23.0001C30.2 16.8001 24.4 10.2001 18 12.0001L21.6 15.6001C23.2 17.2001 23.2 19.8001 21.6 21.2001C20.2 22.8001 17.4 22.8001 16 21.2001L12.4 17.8001C10.6 23.4001 16.4 29.8001 23 27.2001L34.8 39.0001C36 40.2001 37.8 40.2001 39 39.0001C40.2 38.0001 40.2 36.0001 39.2 34.8001Z" fill="#D3D3D3"/>
</g>
<defs>
<clipPath id="clip0_22_260">
<rect width="40" height="40" fill="white"/>
</clipPath>
</defs>
</svg>
