<svg width="40" height="40" viewBox="0 0 40 40" fill="none" xmlns="http://www.w3.org/2000/svg">
<path d="M17.2267 31.8325L15.3971 37.6254C15.3705 37.7099 15.3177 37.7838 15.2463 37.8361C15.1749 37.8885 15.0886 37.9167 15 37.9167H7.5C7.3675 37.9167 7.2425 37.8533 7.16375 37.7463C7.085 37.6392 7.0625 37.5013 7.10291 37.3746L10.0587 28.0146C10.1592 28.2488 10.2508 28.5113 10.3412 28.7708C10.6475 29.6517 10.9946 30.6496 11.8729 31.1579C12.7392 31.6592 13.7696 31.4638 14.6775 31.2925C15.2512 31.1838 15.8442 31.0721 16.2246 31.1738C16.515 31.2508 16.8696 31.5288 17.2267 31.8325ZM29.9412 28.0142C29.8383 28.2632 29.744 28.5157 29.6583 28.7713C29.3521 29.6517 29.005 30.65 28.1271 31.1579C27.2608 31.6592 26.2304 31.4646 25.3225 31.2925C24.7479 31.1838 24.155 31.0729 23.7754 31.1733C23.485 31.2513 23.1304 31.5288 22.7733 31.8325L24.6025 37.6254C24.6292 37.7099 24.6821 37.7837 24.7536 37.8361C24.8251 37.8885 24.9114 37.9167 25 37.9167H32.5C32.6325 37.9167 32.7575 37.8533 32.8362 37.7463C32.915 37.6392 32.9375 37.5013 32.8971 37.3746L29.9412 28.0142ZM28.75 17.0833C28.75 21.9079 24.8246 25.8333 20 25.8333C15.1754 25.8333 11.25 21.9079 11.25 17.0833C11.25 12.2587 15.1754 8.33333 20 8.33333C24.8246 8.33333 28.75 12.2587 28.75 17.0833ZM25.395 15.3542C25.3706 15.2816 25.3267 15.2171 25.2682 15.1678C25.2096 15.1185 25.1386 15.0863 25.0629 15.0746L21.8275 14.58L20.3771 11.4896C20.3433 11.4181 20.2899 11.3578 20.2232 11.3155C20.1564 11.2732 20.079 11.2507 20 11.2507C19.921 11.2507 19.8436 11.2732 19.7768 11.3155C19.7101 11.3578 19.6567 11.4181 19.6229 11.4896L18.1725 14.58L14.9371 15.0746C14.8613 15.0861 14.7902 15.1183 14.7316 15.1677C14.673 15.217 14.6291 15.2815 14.6048 15.3542C14.5804 15.4268 14.5766 15.5048 14.5937 15.5795C14.6108 15.6541 14.6482 15.7227 14.7017 15.7775L17.0429 18.1771L16.2604 21.5733C16.2422 21.6507 16.2466 21.7317 16.273 21.8067C16.2994 21.8818 16.3468 21.9476 16.4095 21.9965C16.4722 22.0454 16.5476 22.0753 16.6268 22.0826C16.706 22.09 16.7856 22.0745 16.8562 22.0379L20 20.4267L23.1433 22.0371C23.2138 22.0737 23.2933 22.0893 23.3724 22.0819C23.4515 22.0745 23.5267 22.0445 23.5892 21.9954C23.7171 21.8958 23.7754 21.7308 23.7392 21.5729L22.9567 18.1767L25.2979 15.7771C25.3515 15.7224 25.389 15.654 25.4061 15.5793C25.4233 15.5047 25.4194 15.4268 25.395 15.3542ZM32.4796 20.4296C32.28 21.1754 32.4279 21.9583 32.5712 22.7158C32.6892 23.3388 32.8229 24.0454 32.6317 24.3758C32.4338 24.7175 31.7467 24.9571 31.14 25.1675C30.4192 25.4183 29.6729 25.6775 29.1346 26.2158C28.5946 26.7563 28.3354 27.5021 28.0846 28.2233C27.8733 28.83 27.6346 29.5167 27.2933 29.7146C27.2517 29.7383 27.1271 29.8104 26.8033 29.8104C26.4596 29.8104 26.0396 29.7313 25.6333 29.6542C25.1675 29.5658 24.6404 29.4663 24.1337 29.4663C23.8471 29.4663 23.59 29.4975 23.3492 29.5613C22.6254 29.7554 22.0362 30.2646 21.4662 30.7575C20.9492 31.205 20.4154 31.6667 20 31.6667C19.5837 31.6667 19.05 31.205 18.5333 30.7575C17.9633 30.2646 17.3737 29.755 16.6533 29.5629C16.3955 29.4964 16.13 29.4642 15.8637 29.4671C15.3587 29.4671 14.8317 29.5667 14.3667 29.655C13.9583 29.7321 13.5383 29.8113 13.195 29.8113C12.8725 29.8113 12.7475 29.7388 12.7067 29.7154C12.3646 29.5171 12.125 28.83 11.9146 28.2233C11.6637 27.5025 11.4046 26.7563 10.8662 26.2179C10.3258 25.6779 9.58 25.4188 8.85875 25.1679C8.25208 24.9567 7.56541 24.7179 7.3675 24.3767C7.17666 24.0463 7.31 23.3404 7.42791 22.7171C7.57166 21.9554 7.71875 21.1746 7.52 20.43C7.32708 19.7096 6.8175 19.12 6.325 18.5504C5.87833 18.0325 5.41666 17.4988 5.41666 17.0833C5.41666 16.6671 5.87833 16.1333 6.32583 15.6167C6.81875 15.0467 7.32833 14.4571 7.52041 13.7367C7.72 12.9908 7.57208 12.2079 7.42875 11.4504C7.31083 10.8275 7.17708 10.1208 7.36833 9.79042C7.56625 9.44875 8.25333 9.20917 8.86 8.99875C9.58083 8.74792 10.3271 8.48875 10.8654 7.95042C11.4054 7.41 11.6646 6.66417 11.9154 5.94292C12.1267 5.33625 12.3654 4.64958 12.7067 4.45167C12.7483 4.42792 12.8733 4.35542 13.1971 4.35542C13.5417 4.35542 13.9608 4.435 14.3662 4.51208C14.8312 4.6 15.3571 4.69958 15.8662 4.69958C16.1295 4.70244 16.392 4.67093 16.6471 4.60583C17.3746 4.41083 17.9637 3.90167 18.5333 3.40875C19.0508 2.96167 19.5846 2.5 20 2.5C20.4162 2.5 20.95 2.96167 21.4667 3.40917C22.0367 3.90208 22.6262 4.41167 23.3467 4.60375C23.5879 4.66792 23.8458 4.69958 24.135 4.69958C24.6379 4.69958 25.1662 4.6 25.6321 4.51208C26.04 4.43458 26.4608 4.35542 26.8042 4.35542C27.1267 4.35542 27.2521 4.42792 27.2929 4.45125C27.635 4.64958 27.8746 5.33667 28.085 5.94333C28.3358 6.66417 28.595 7.41042 29.1333 7.94875C29.6737 8.48875 30.4196 8.74792 31.1408 8.99875C31.7475 9.21 32.4342 9.44875 32.6321 9.79C32.8229 10.1204 32.6896 10.8263 32.5717 11.4496C32.4279 12.2113 32.2808 12.9921 32.4796 13.7367C32.6725 14.4571 33.1821 15.0467 33.6746 15.6163C34.1217 16.1342 34.5833 16.6679 34.5833 17.0833C34.5833 17.4996 34.1217 18.0333 33.6742 18.55C33.1817 19.12 32.6717 19.7096 32.4796 20.4296ZM30.4167 17.0833C30.4167 11.3396 25.7437 6.66667 20 6.66667C14.2562 6.66667 9.58333 11.3396 9.58333 17.0833C9.58333 22.8271 14.2562 27.5 20 27.5C25.7437 27.5 30.4167 22.8271 30.4167 17.0833Z" fill="#D3D3D3"/>
</svg>
