<svg width="36" height="36" viewBox="0 0 36 36" fill="none" xmlns="http://www.w3.org/2000/svg">
<path fill-rule="evenodd" clip-rule="evenodd" d="M3 7.28571C3 6.14907 3.45153 5.05898 4.25526 4.25526C5.05898 3.45153 6.14907 3 7.28571 3H9.24571C10.4743 3 11.5457 3.83714 11.8443 5.02857L13.4229 11.3471C13.5508 11.8586 13.5249 12.3964 13.3486 12.8932C13.1722 13.39 12.8532 13.8237 12.4314 14.14L10.5843 15.5257C10.3914 15.67 10.35 15.8814 10.4043 16.0286C11.2105 18.2212 12.4837 20.2124 14.1356 21.8644C15.7876 23.5163 17.7788 24.7895 19.9714 25.5957C20.1186 25.65 20.3286 25.6086 20.4743 25.4157L21.86 23.5686C22.1763 23.1468 22.61 22.8278 23.1068 22.6514C23.6036 22.4751 24.1414 22.4492 24.6529 22.5771L30.9714 24.1557C32.1629 24.4543 33 25.5257 33 26.7557V28.7143C33 29.8509 32.5485 30.941 31.7447 31.7447C30.941 32.5485 29.8509 33 28.7143 33H25.5C13.0743 33 3 22.9257 3 10.5V7.28571Z" fill="white"/>
</svg>
