<svg width="36" height="36" viewBox="0 0 36 36" fill="none" xmlns="http://www.w3.org/2000/svg">
<path d="M2.72656 13.1565V25.6365C2.72656 26.7938 3.1863 27.9037 4.00464 28.7221C4.82298 29.5404 5.93289 30.0001 7.0902 30.0001H28.9084C30.0657 30.0001 31.1756 29.5404 31.9939 28.7221C32.8123 27.9037 33.272 26.7938 33.272 25.6365V13.1565L20.2858 21.1463C19.5982 21.5694 18.8067 21.7934 17.9993 21.7934C17.1919 21.7934 16.4004 21.5694 15.7127 21.1463L2.72656 13.1565Z" fill="white"/>
<path d="M33.272 10.5935V10.3636C33.272 9.20633 32.8123 8.09642 31.9939 7.27808C31.1756 6.45974 30.0657 6 28.9084 6H7.0902C5.93289 6 4.82298 6.45974 4.00464 7.27808C3.1863 8.09642 2.72656 9.20633 2.72656 10.3636V10.5935L16.856 19.2887C17.1998 19.5003 17.5956 19.6123 17.9993 19.6123C18.403 19.6123 18.7987 19.5003 19.1426 19.2887L33.272 10.5935Z" fill="white"/>
</svg>
