<svg width="22" height="22" viewBox="0 0 22 22" fill="none" xmlns="http://www.w3.org/2000/svg">
<path d="M11 6.99999C8.79001 6.99999 7.00004 8.79001 7.00004 11C7.00004 13.2099 8.79001 15 11 15C13.21 15 15 13.21 15 11C15 8.79005 13.21 6.99999 11 6.99999ZM19.94 9.99999C19.48 5.82999 16.17 2.52 12 2.06002V0H9.99999V2.06002C5.82999 2.52 2.52 5.82999 2.06002 9.99999H0V12H2.06002C2.52 16.17 5.83004 19.48 10 19.94V22H12V19.94C16.17 19.48 19.48 16.17 19.94 12H22V9.99999H19.94ZM11 18C7.13504 18 4.00003 14.865 4.00003 11C4.00003 7.13504 7.13504 4.00003 11 4.00003C14.865 4.00003 18 7.13499 18 11C18 14.8651 14.865 18 11 18Z" fill="#212121"/>
</svg>
