<svg width="20" height="20" viewBox="0 0 20 20" fill="none" xmlns="http://www.w3.org/2000/svg">
<path d="M6.28205 5.89744C6.28205 3.74851 8.03056 2 10.1795 2C12.3284 2 14.0769 3.74851 14.0769 5.89744C14.0769 8.04636 12.3284 9.79487 10.1795 9.79487C8.03056 9.79487 6.28205 8.04636 6.28205 5.89744ZM12.641 11.0256H7.71795C5.11692 11.0256 3 13.1426 3 15.7436C3.00043 16.3419 3.2383 16.9156 3.66137 17.3386C4.08443 17.7617 4.65811 17.9996 5.25641 18H15.1026C15.7009 17.9996 16.2745 17.7617 16.6976 17.3386C17.1207 16.9156 17.3585 16.3419 17.359 15.7436C17.359 13.1426 15.2421 11.0256 12.641 11.0256Z" fill="white"/>
</svg>
