<svg width="20" height="20" viewBox="0 0 20 20" fill="none" xmlns="http://www.w3.org/2000/svg">
<path d="M16.2854 14.5718H9.42766C8.97301 14.5718 8.53697 14.7525 8.21548 15.0739C7.89399 15.3954 7.71338 15.8315 7.71338 16.2861C7.71338 16.7408 7.89399 17.1768 8.21548 17.4983C8.53697 17.8198 8.97301 18.0004 9.42766 18.0004H16.2848C16.7395 18.0004 17.1755 17.8198 17.497 17.4983C17.8185 17.1768 17.9991 16.7408 17.9991 16.2861C17.9991 15.8315 17.8185 15.3954 17.497 15.0739C17.1755 14.7525 16.74 14.5718 16.2854 14.5718ZM9.42766 17.429C9.12456 17.429 8.83387 17.3086 8.61954 17.0943C8.40522 16.8799 8.28481 16.5892 8.28481 16.2861C8.28481 15.983 8.40522 15.6923 8.61954 15.478C8.83387 15.2637 9.12456 15.1433 9.42766 15.1433C9.73077 15.1433 10.0215 15.2637 10.2358 15.478C10.4501 15.6923 10.5705 15.983 10.5705 16.2861C10.5705 16.5892 10.4501 16.8799 10.2358 17.0943C10.0215 17.3086 9.73077 17.429 9.42766 17.429ZM12.8562 17.429C12.5531 17.429 12.2624 17.3086 12.0481 17.0943C11.8338 16.8799 11.7134 16.5892 11.7134 16.2861C11.7134 15.983 11.8338 15.6923 12.0481 15.478C12.2624 15.2637 12.5531 15.1433 12.8562 15.1433C13.1593 15.1433 13.45 15.2637 13.6644 15.478C13.8787 15.6923 13.9991 15.983 13.9991 16.2861C13.9991 16.5892 13.8787 16.8799 13.6644 17.0943C13.45 17.3086 13.1593 17.429 12.8562 17.429ZM16.2848 17.429C15.9817 17.429 15.691 17.3086 15.4767 17.0943C15.2624 16.8799 15.142 16.5892 15.142 16.2861C15.142 15.983 15.2624 15.6923 15.4767 15.478C15.691 15.2637 15.9817 15.1433 16.2848 15.1433C16.5879 15.1433 16.8786 15.2637 17.0929 15.478C17.3073 15.6923 17.4277 15.983 17.4277 16.2861C17.4277 16.5892 17.3073 16.8799 17.0929 17.0943C16.8786 17.3086 16.5879 17.429 16.2848 17.429ZM8.28481 11.1433V13.429C8.28481 13.5805 8.34501 13.7259 8.45218 13.8331C8.55934 13.9402 8.70468 14.0004 8.85624 14.0004H16.8562C17.0078 14.0004 17.1531 13.9402 17.2603 13.8331C17.3675 13.7259 17.4277 13.5805 17.4277 13.429V11.7147C17.4277 11.5632 17.3675 11.4178 17.2603 11.3106C17.1531 11.2035 17.0078 11.1433 16.8562 11.1433H13.4277V8.85756C13.4277 8.70601 13.3675 8.56066 13.2603 8.4535C13.1531 8.34634 13.0078 8.28613 12.8562 8.28613H10.5705C10.4818 8.28609 10.3943 8.30672 10.3149 8.3464C10.2356 8.38608 10.1666 8.4437 10.1134 8.5147L8.39909 10.8004C8.3248 10.8993 8.28468 11.0196 8.28481 11.1433ZM9.19909 10.6861L10.5705 8.85756H12.8562V11.1433H9.42766C9.3746 11.1433 9.32259 11.1285 9.27746 11.1006C9.23232 11.0727 9.19584 11.0328 9.17211 10.9853C9.14838 10.9379 9.13834 10.8847 9.14311 10.8319C9.14787 10.7791 9.16726 10.7286 9.19909 10.6861Z" fill="white"/>
<path d="M7.14159 14.6677H6.27987L4.38787 12.146C4.0828 12.2769 3.74612 12.3159 3.41923 12.258C3.09233 12.2001 2.78947 12.048 2.54787 11.8203C1.70216 13.1186 1.8353 14.894 2.94902 16.0392C3.46844 16.574 4.14616 16.8569 4.90559 16.8569C5.83644 16.8569 6.8233 16.414 7.54559 15.6706C7.70959 15.5026 7.75816 15.25 7.67016 15.0306C7.58216 14.8112 7.37302 14.6677 7.14159 14.6677Z" fill="white"/>
<path d="M3.71317 11.7144C4.34435 11.7144 4.85603 11.2028 4.85603 10.5716C4.85603 9.94039 4.34435 9.42871 3.71317 9.42871C3.08199 9.42871 2.57031 9.94039 2.57031 10.5716C2.57031 11.2028 3.08199 11.7144 3.71317 11.7144Z" fill="white"/>
<path d="M6.57073 5.42857C7.5175 5.42857 8.28502 4.66106 8.28502 3.71429C8.28502 2.76751 7.5175 2 6.57073 2C5.62396 2 4.85645 2.76751 4.85645 3.71429C4.85645 4.66106 5.62396 5.42857 6.57073 5.42857Z" fill="white"/>
<path d="M6.97127 5.96018L8.28555 10.0002L9.99984 7.82875L8.44041 5.02246C8.09397 5.51664 7.56597 5.85357 6.97184 5.9596L6.97127 5.96018ZM4.69813 9.17275L6.29813 5.97275C5.74964 5.9077 5.24373 5.64479 4.87527 5.23332L3.55127 8.87332C3.60556 8.86875 3.65756 8.85732 3.71298 8.85732C4.08041 8.85732 4.4187 8.9756 4.69813 9.17275Z" fill="white"/>
</svg>
