<svg width="20" height="20" viewBox="0 0 20 20" fill="none" xmlns="http://www.w3.org/2000/svg">
<path d="M16.4672 7.93898C16.3281 7.83285 16.2195 7.69194 16.1522 7.53046C16.0849 7.36897 16.0614 7.19261 16.084 7.01913C16.2682 5.57807 16.153 4.73604 15.7074 4.2919C15.2618 3.84629 14.4205 3.72957 12.9801 3.91604C12.8066 3.93793 12.6304 3.91401 12.469 3.84665C12.3077 3.77929 12.1667 3.67084 12.0603 3.53209C11.2322 2.47277 10.5965 2 9.99817 2C9.40133 2 8.76485 2.47203 7.93677 3.53063C7.8301 3.66892 7.68925 3.77705 7.52809 3.84437C7.36693 3.91169 7.19101 3.93589 7.01766 3.91457C5.17137 3.67525 4.58922 3.98945 4.2897 4.28897C3.84483 4.73384 3.72957 5.57513 3.91383 7.01766C3.93627 7.19113 3.91266 7.36744 3.8454 7.5289C3.77814 7.69036 3.66958 7.83128 3.53063 7.93751C2.47203 8.76412 2 9.39986 2 9.99817C2 10.5972 2.47203 11.2329 3.53209 12.061C3.67104 12.1671 3.77961 12.3079 3.84688 12.4692C3.91415 12.6306 3.93775 12.8068 3.9153 12.9801C3.73104 14.4212 3.84629 15.2632 4.2919 15.7074C4.73677 16.1522 5.5766 16.269 7.01913 16.0832C7.19261 16.0616 7.36872 16.0857 7.53005 16.153C7.69138 16.2204 7.83233 16.3286 7.93898 16.4672C8.76706 17.5265 9.40353 18 10.0011 18C10.5979 18 11.2344 17.5272 12.0625 16.4686C12.169 16.33 12.31 16.2216 12.4713 16.1543C12.6327 16.0869 12.8088 16.0629 12.9823 16.0847C14.8272 16.3226 15.4093 16.0098 15.7096 15.7103C16.1544 15.2654 16.2697 14.4241 16.0854 12.9816C16.063 12.8081 16.0866 12.6318 16.1539 12.4704C16.2211 12.3089 16.3297 12.168 16.4686 12.0618C17.5272 11.2351 17.9993 10.5994 17.9993 10.0011C17.9993 9.40206 17.5272 8.76706 16.4672 7.93898Z" fill="white"/>
<path d="M8.54619 12.2971L7.2145 10.9654C7.04088 10.7916 6.94336 10.5559 6.94336 10.3102C6.94336 10.0645 7.04088 9.82887 7.2145 9.65502C7.38838 9.48118 7.62419 9.38351 7.87007 9.38351C8.11594 9.38351 8.35175 9.48118 8.52563 9.65502L9.16651 10.2944L11.468 7.73678C11.5494 7.64624 11.6479 7.57263 11.7578 7.52016C11.8677 7.46769 11.9869 7.43738 12.1085 7.43097C12.2301 7.42456 12.3518 7.44218 12.4666 7.48281C12.5814 7.52344 12.6871 7.58629 12.7776 7.66778C12.9603 7.83225 13.0701 8.06251 13.0831 8.30796C13.096 8.5534 13.011 8.79394 12.8466 8.9767L9.89035 12.2619C9.80615 12.3553 9.70381 12.4306 9.58957 12.4833C9.47533 12.5359 9.35157 12.5648 9.22583 12.5681C9.10009 12.5714 8.97499 12.549 8.85815 12.5025C8.74131 12.4559 8.63517 12.386 8.54619 12.2971Z" fill="#32CD37"/>
</svg>
