<svg width="20" height="20" viewBox="0 0 20 20" fill="none" xmlns="http://www.w3.org/2000/svg">
<path d="M11.5 2H3.83333C2.82 2 2 2.82 2 3.83333V14.1667C2 15.18 2.82 16 3.83333 16H8.75333L8.9 15.18C8.96667 14.8067 9.14 14.4733 9.40667 14.2L13.3333 10.28V3.83333C13.3333 2.82 12.5133 2 11.5 2ZM4.66667 4.66667H7.33333C7.7 4.66667 8 4.96667 8 5.33333C8 5.7 7.7 6 7.33333 6H4.66667C4.3 6 4 5.7 4 5.33333C4 4.96667 4.3 4.66667 4.66667 4.66667ZM8 11.3333H4.66667C4.3 11.3333 4 11.0333 4 10.6667C4 10.3 4.3 10 4.66667 10H8C8.36667 10 8.66667 10.3 8.66667 10.6667C8.66667 11.0333 8.36667 11.3333 8 11.3333ZM10.6667 8.66667H4.66667C4.3 8.66667 4 8.36667 4 8C4 7.63333 4.3 7.33333 4.66667 7.33333H10.6667C11.0333 7.33333 11.3333 7.63333 11.3333 8C11.3333 8.36667 11.0333 8.66667 10.6667 8.66667ZM10.352 18C10.2789 18.0002 10.2066 17.9843 10.1404 17.9535C10.0741 17.9226 10.0154 17.8776 9.96845 17.8216C9.92151 17.7655 9.88746 17.6998 9.86872 17.6292C9.84998 17.5585 9.847 17.4846 9.86 17.4127L10.2133 15.4093C10.2312 15.3084 10.2796 15.2153 10.352 15.1427L15.302 10.1933C15.91 9.584 16.5073 9.74867 16.834 10.0753L17.6587 10.9C17.767 11.0083 17.853 11.137 17.9116 11.2785C17.9702 11.4201 18.0004 11.5718 18.0004 11.725C18.0004 11.8782 17.9702 12.0299 17.9116 12.1715C17.853 12.313 17.767 12.4417 17.6587 12.55L12.7087 17.5C12.6364 17.5729 12.5432 17.6213 12.442 17.6387L10.4387 17.992C10.4101 17.9973 10.3811 18 10.352 18Z" fill="white"/>
</svg>
