<svg width="26" height="25" viewBox="0 0 26 25" fill="none" xmlns="http://www.w3.org/2000/svg">
<path d="M21.7215 2.64286H20.893V1.82143C20.893 1.60357 20.8057 1.39464 20.6504 1.24059C20.495 1.08654 20.2842 1 20.0645 1C19.8448 1 19.634 1.08654 19.4787 1.24059C19.3233 1.39464 19.236 1.60357 19.236 1.82143V2.64286H15.9219V1.82143C15.9219 1.60357 15.8346 1.39464 15.6792 1.24059C15.5239 1.08654 15.3131 1 15.0934 1C14.8736 1 14.6629 1.08654 14.5075 1.24059C14.3522 1.39464 14.2649 1.60357 14.2649 1.82143V2.64286H10.9508V1.82143C10.9508 1.60357 10.8635 1.39464 10.7081 1.24059C10.5527 1.08654 10.342 1 10.1223 1C9.90253 1 9.69179 1.08654 9.53641 1.24059C9.38104 1.39464 9.29375 1.60357 9.29375 1.82143V2.64286H5.97967V1.82143C5.97967 1.60357 5.89237 1.39464 5.737 1.24059C5.58162 1.08654 5.37088 1 5.15115 1C4.93141 1 4.72067 1.08654 4.56529 1.24059C4.40992 1.39464 4.32263 1.60357 4.32263 1.82143V2.64286H3.49411C2.83489 2.64286 2.20268 2.90249 1.73655 3.36463C1.27042 3.82677 1.00854 4.45357 1.00854 5.10714V7.57143H24.2071V5.10714C24.2071 4.45357 23.9452 3.82677 23.4791 3.36463C23.013 2.90249 22.3808 2.64286 21.7215 2.64286ZM1.00854 21.5357C1.00854 22.1893 1.27042 22.8161 1.73655 23.2782C2.20268 23.7404 2.83489 24 3.49411 24H21.7215C22.3808 24 23.013 23.7404 23.4791 23.2782C23.9452 22.8161 24.2071 22.1893 24.2071 21.5357V9.21429H1.00854V21.5357ZM17.5789 13.3214H19.236C19.4557 13.3214 19.6665 13.408 19.8218 13.562C19.9772 13.7161 20.0645 13.925 20.0645 14.1429C20.0645 14.3607 19.9772 14.5696 19.8218 14.7237C19.6665 14.8777 19.4557 14.9643 19.236 14.9643H17.5789C17.3592 14.9643 17.1485 14.8777 16.9931 14.7237C16.8377 14.5696 16.7504 14.3607 16.7504 14.1429C16.7504 13.925 16.8377 13.7161 16.9931 13.562C17.1485 13.408 17.3592 13.3214 17.5789 13.3214ZM17.5789 17.4286H19.236C19.4557 17.4286 19.6665 17.5151 19.8218 17.6692C19.9772 17.8232 20.0645 18.0321 20.0645 18.25C20.0645 18.4679 19.9772 18.6768 19.8218 18.8308C19.6665 18.9849 19.4557 19.0714 19.236 19.0714H17.5789C17.3592 19.0714 17.1485 18.9849 16.9931 18.8308C16.8377 18.6768 16.7504 18.4679 16.7504 18.25C16.7504 18.0321 16.8377 17.8232 16.9931 17.6692C17.1485 17.5151 17.3592 17.4286 17.5789 17.4286ZM11.7793 13.3214H13.4363C13.6561 13.3214 13.8668 13.408 14.0222 13.562C14.1776 13.7161 14.2649 13.925 14.2649 14.1429C14.2649 14.3607 14.1776 14.5696 14.0222 14.7237C13.8668 14.8777 13.6561 14.9643 13.4363 14.9643H11.7793C11.5596 14.9643 11.3488 14.8777 11.1935 14.7237C11.0381 14.5696 10.9508 14.3607 10.9508 14.1429C10.9508 13.925 11.0381 13.7161 11.1935 13.562C11.3488 13.408 11.5596 13.3214 11.7793 13.3214ZM11.7793 17.4286H13.4363C13.6561 17.4286 13.8668 17.5151 14.0222 17.6692C14.1776 17.8232 14.2649 18.0321 14.2649 18.25C14.2649 18.4679 14.1776 18.6768 14.0222 18.8308C13.8668 18.9849 13.6561 19.0714 13.4363 19.0714H11.7793C11.5596 19.0714 11.3488 18.9849 11.1935 18.8308C11.0381 18.6768 10.9508 18.4679 10.9508 18.25C10.9508 18.0321 11.0381 17.8232 11.1935 17.6692C11.3488 17.5151 11.5596 17.4286 11.7793 17.4286ZM5.97967 13.3214H7.63671C7.85644 13.3214 8.06718 13.408 8.22256 13.562C8.37794 13.7161 8.46523 13.925 8.46523 14.1429C8.46523 14.3607 8.37794 14.5696 8.22256 14.7237C8.06718 14.8777 7.85644 14.9643 7.63671 14.9643H5.97967C5.75993 14.9643 5.54919 14.8777 5.39381 14.7237C5.23844 14.5696 5.15115 14.3607 5.15115 14.1429C5.15115 13.925 5.23844 13.7161 5.39381 13.562C5.54919 13.408 5.75993 13.3214 5.97967 13.3214ZM5.97967 17.4286H7.63671C7.85644 17.4286 8.06718 17.5151 8.22256 17.6692C8.37794 17.8232 8.46523 18.0321 8.46523 18.25C8.46523 18.4679 8.37794 18.6768 8.22256 18.8308C8.06718 18.9849 7.85644 19.0714 7.63671 19.0714H5.97967C5.75993 19.0714 5.54919 18.9849 5.39381 18.8308C5.23844 18.6768 5.15115 18.4679 5.15115 18.25C5.15115 18.0321 5.23844 17.8232 5.39381 17.6692C5.54919 17.5151 5.75993 17.4286 5.97967 17.4286Z" fill="white"/>
</svg>
