<svg width="26" height="25" viewBox="0 0 26 25" fill="none" xmlns="http://www.w3.org/2000/svg">
<path d="M18.8291 1H6.38709C3.67648 1 1.5617 3.32349 1.84185 5.99383L3.30521 19.9418C3.54721 22.2479 5.50957 24 7.8505 24H11.9285V18.5859C11.9285 18.2141 12.2328 17.9127 12.6081 17.9127C12.9835 17.9127 13.2878 18.2141 13.2878 18.5859V24H17.3657C19.7066 24 21.669 22.2479 21.911 19.9418L23.3743 5.99383C23.6545 3.32349 21.5397 1 18.8291 1ZM20.318 8.37545L16.6147 12.5916C16.5509 12.6642 16.4721 12.7225 16.3836 12.7624C16.2952 12.8023 16.1991 12.8229 16.1019 12.8229H9.11428C9.01709 12.823 8.92104 12.8023 8.83258 12.7624C8.74413 12.7225 8.66533 12.6643 8.60151 12.5916L4.89821 8.37545C4.7906 8.25298 4.73133 8.09605 4.73133 7.93362C4.73133 7.7712 4.7906 7.61427 4.89821 7.4918C6.95165 5.15397 9.68976 3.86651 12.6081 3.86651C15.5265 3.86651 18.2646 5.15402 20.318 7.49184C20.4256 7.6143 20.4849 7.77123 20.4849 7.93365C20.4849 8.09606 20.4256 8.25299 20.318 8.37545Z" fill="white"/>
<path d="M17.6686 6.8888L17.0789 7.58077C17.0151 7.65669 16.9352 7.71774 16.8449 7.75959C16.7547 7.80144 16.6562 7.82305 16.5565 7.8229C16.3976 7.82306 16.2436 7.76781 16.1216 7.6668C15.8334 7.42876 15.7945 7.00429 16.0348 6.71872L16.4931 6.16362C15.4884 5.64527 14.4068 5.33109 13.2876 5.24048V6.06951C13.2876 6.44128 12.9833 6.74267 12.6079 6.74267C12.2326 6.74267 11.9283 6.44128 11.9283 6.06951V5.24048C10.8091 5.33109 9.7274 5.64527 8.72266 6.16358L9.18096 6.71868C9.42133 7.00425 9.38241 7.42871 9.09415 7.66675C8.97214 7.76775 8.81821 7.823 8.65927 7.82286C8.5596 7.82301 8.46113 7.8014 8.37084 7.75955C8.28056 7.7177 8.20068 7.65665 8.13689 7.58073L7.54501 6.89037C7.11679 7.20172 6.70796 7.55404 6.32251 7.94599L9.4236 11.4766H11.2335L12.3009 9.18673C12.4217 8.92735 12.794 8.92735 12.9148 9.18673L13.9822 11.4766H15.7921L18.8932 7.94599C18.5072 7.55342 18.0976 7.20055 17.6686 6.8888Z" fill="white"/>
</svg>
