<svg width="22" height="21" viewBox="0 0 22 21" fill="none" xmlns="http://www.w3.org/2000/svg">
<path d="M10.5066 0C8.42859 0 6.39725 0.610927 4.66945 1.75552C2.94165 2.90012 1.59499 4.52698 0.799772 6.43038C0.00455234 8.33378 -0.203513 10.4282 0.201886 12.4489C0.607285 14.4695 1.60794 16.3256 3.07732 17.7824C4.54669 19.2392 6.41879 20.2313 8.45687 20.6332C10.4949 21.0351 12.6075 20.8288 14.5273 20.0404C16.4471 19.252 18.088 17.9169 19.2425 16.2039C20.397 14.4908 21.0132 12.4769 21.0132 10.4167C21.0101 7.65493 19.9022 5.00717 17.9325 3.05432C15.9628 1.10147 13.2922 0.00303291 10.5066 0ZM14.4014 14.2781C14.2044 14.4734 13.9372 14.5831 13.6586 14.5831C13.38 14.5831 13.1128 14.4734 12.9158 14.2781L9.76378 11.1531C9.56673 10.9578 9.456 10.6929 9.45594 10.4167V4.16667C9.45594 3.8904 9.56664 3.62545 9.76367 3.4301C9.96071 3.23475 10.2279 3.125 10.5066 3.125C10.7853 3.125 11.0525 3.23475 11.2495 3.4301C11.4466 3.62545 11.5573 3.8904 11.5573 4.16667V9.98542L14.4014 12.8052C14.5984 13.0005 14.709 13.2655 14.709 13.5417C14.709 13.8179 14.5984 14.0828 14.4014 14.2781Z" fill="white"/>
</svg>
