<svg width="25" height="25" viewBox="0 0 25 25" fill="none" xmlns="http://www.w3.org/2000/svg">
<g clip-path="url(#clip0_106_1109)">
<path d="M22.764 3.27759L20.6807 1.19424C20.4772 0.990772 20.1476 0.990772 19.9442 1.19424C19.7407 1.39771 19.7407 1.72729 19.9442 1.93071L21.6593 3.6458L19.9442 5.36089C19.8465 5.45854 19.7916 5.59077 19.7916 5.72915V7.29165C19.7916 8.44067 20.726 9.375 21.875 9.375V18.2292C21.875 18.5165 21.6415 18.75 21.3541 18.75C21.0668 18.75 20.8333 18.5166 20.8333 18.2292V17.1875C20.8333 16.3259 20.1324 15.625 19.2708 15.625H18.75V2.08335C18.75 0.934326 17.8156 0 16.6666 0H6.24995C5.10098 0 4.1666 0.934326 4.1666 2.08335V20.8333C3.01763 20.8333 2.08325 21.7677 2.08325 22.9167V24.4792C2.08321 24.5476 2.09665 24.6154 2.12281 24.6786C2.14897 24.7418 2.18733 24.7992 2.23571 24.8476C2.28408 24.896 2.34152 24.9343 2.40473 24.9605C2.46794 24.9867 2.53569 25.0001 2.6041 25H20.3125C20.3809 25.0001 20.4486 24.9867 20.5118 24.9605C20.575 24.9343 20.6325 24.896 20.6809 24.8476C20.7292 24.7992 20.7676 24.7418 20.7937 24.6786C20.8199 24.6154 20.8333 24.5476 20.8333 24.4792V22.9167C20.8333 21.7677 19.899 20.8333 18.75 20.8333V16.6667H19.2708C19.5582 16.6667 19.7917 16.9001 19.7917 17.1875V18.2292C19.7917 19.0908 20.4925 19.7917 21.3542 19.7917C22.2158 19.7917 22.9167 19.0908 22.9167 18.2292V3.64585C22.9166 3.57745 22.9032 3.50972 22.877 3.44653C22.8508 3.38335 22.8124 3.32594 22.764 3.27759ZM16.6666 8.86382C16.6666 8.93223 16.6532 8.99998 16.627 9.06319C16.6009 9.1264 16.5625 9.18384 16.5141 9.23221C16.4658 9.28059 16.4083 9.31895 16.3451 9.34511C16.2819 9.37127 16.2142 9.38471 16.1458 9.38467H6.77075C6.70234 9.38471 6.63459 9.37127 6.57138 9.34511C6.50817 9.31895 6.45073 9.28059 6.40236 9.23221C6.35398 9.18384 6.31562 9.1264 6.28946 9.06319C6.2633 8.99998 6.24986 8.93223 6.2499 8.86382V2.60415C6.24986 2.53574 6.2633 2.46799 6.28946 2.40478C6.31562 2.34156 6.35398 2.28413 6.40236 2.23575C6.45073 2.18738 6.50817 2.14902 6.57138 2.12286C6.63459 2.0967 6.70234 2.08326 6.77075 2.0833H16.1458C16.2142 2.08326 16.2819 2.0967 16.3451 2.12286C16.4083 2.14902 16.4658 2.18738 16.5141 2.23575C16.5625 2.28413 16.6009 2.34156 16.627 2.40478C16.6532 2.46799 16.6666 2.53574 16.6666 2.60415V8.86382Z" fill="white"/>
</g>
<defs>
<clipPath id="clip0_106_1109">
<rect width="25" height="25" fill="white"/>
</clipPath>
</defs>
</svg>
