<svg width="23" height="23" viewBox="0 0 23 23" fill="none" xmlns="http://www.w3.org/2000/svg">
<path d="M16.8418 0H1.87131C1.3757 0.00225025 0.901033 0.200128 0.550581 0.550581C0.200128 0.901033 0.00225025 1.3757 0 1.87131V21.1191C0.00225025 21.6147 0.200128 22.0894 0.550581 22.4398C0.901033 22.7903 1.3757 22.9881 1.87131 22.9904H17.9111C18.0288 22.9904 18.1464 22.9904 18.264 22.9797C18.2766 22.967 18.291 22.9562 18.3068 22.9476C18.5022 22.4129 18.6314 21.8563 18.6917 21.2902C18.4365 21.3544 18.1743 21.3867 17.9111 21.3864C16.9894 21.3864 16.1055 21.0203 15.4537 20.3685C14.802 19.7168 14.4358 18.8328 14.4358 17.9111C14.4358 16.9894 14.802 16.1055 15.4537 15.4537C16.1055 14.802 16.9894 14.4358 17.9111 14.4358C18.1814 14.4349 18.4507 14.4672 18.7131 14.5321V1.87131C18.7109 1.3757 18.513 0.901033 18.1625 0.550581C17.8121 0.200128 17.3374 0.00225025 16.8418 0ZM4.54461 4.27728H14.1685C14.3812 4.27728 14.5852 4.36178 14.7356 4.51218C14.886 4.66258 14.9705 4.86657 14.9705 5.07927C14.9705 5.29198 14.886 5.49597 14.7356 5.64637C14.5852 5.79677 14.3812 5.88127 14.1685 5.88127H4.54461C4.33191 5.88127 4.12792 5.79677 3.97752 5.64637C3.82712 5.49597 3.74262 5.29198 3.74262 5.07927C3.74262 4.86657 3.82712 4.66258 3.97752 4.51218C4.12792 4.36178 4.33191 4.27728 4.54461 4.27728ZM4.54461 8.55457H14.1685C14.3812 8.55457 14.5852 8.63906 14.7356 8.78946C14.886 8.93987 14.9705 9.14386 14.9705 9.35656C14.9705 9.56926 14.886 9.77325 14.7356 9.92365C14.5852 10.0741 14.3812 10.1585 14.1685 10.1585H4.54461C4.33191 10.1585 4.12792 10.0741 3.97752 9.92365C3.82712 9.77325 3.74262 9.56926 3.74262 9.35656C3.74262 9.14386 3.82712 8.93987 3.97752 8.78946C4.12792 8.63906 4.33191 8.55457 4.54461 8.55457ZM10.4259 18.7131H4.54461C4.33191 18.7131 4.12792 18.6286 3.97752 18.4782C3.82712 18.3278 3.74262 18.1238 3.74262 17.9111C3.74262 17.6984 3.82712 17.4944 3.97752 17.344C4.12792 17.1936 4.33191 17.1091 4.54461 17.1091H10.4259C10.6386 17.1091 10.8426 17.1936 10.993 17.344C11.1434 17.4944 11.2279 17.6984 11.2279 17.9111C11.2279 18.1238 11.1434 18.3278 10.993 18.4782C10.8426 18.6286 10.6386 18.7131 10.4259 18.7131ZM11.4952 14.4358H4.54461C4.33191 14.4358 4.12792 14.3513 3.97752 14.2009C3.82712 14.0505 3.74262 13.8465 3.74262 13.6338C3.74262 13.4211 3.82712 13.2172 3.97752 13.0667C4.12792 12.9163 4.33191 12.8319 4.54461 12.8319H11.4952C11.7079 12.8319 11.9119 12.9163 12.0623 13.0667C12.2127 13.2172 12.2972 13.4211 12.2972 13.6338C12.2972 13.8465 12.2127 14.0505 12.0623 14.2009C11.9119 14.3513 11.7079 14.4358 11.4952 14.4358Z" fill="white"/>
<path d="M18.7133 12.8959C18.0533 12.799 17.3806 12.8331 16.7338 12.9961C16.087 13.1592 15.4786 13.448 14.9434 13.8462C14.4082 14.2444 13.9566 14.7441 13.6145 15.3168C13.2725 15.8894 13.0465 16.5239 12.9496 17.1839C12.8527 17.8439 12.8868 18.5165 13.0498 19.1633C13.2129 19.8102 13.5017 20.4186 13.8999 20.9538C14.2981 21.489 14.7978 21.9405 15.3705 22.2826C15.9432 22.6247 16.5776 22.8506 17.2376 22.9475C17.4609 22.9777 17.686 22.992 17.9113 22.9903C18.0289 22.9903 18.1465 22.9903 18.2641 22.9796C19.5091 22.8941 20.679 22.3534 21.5507 21.4604C22.4225 20.5675 22.935 19.3849 22.9905 18.1383C23.046 16.8916 22.6407 15.6682 21.8518 14.7013C21.0629 13.7344 19.9457 13.0917 18.7133 12.8959ZM18.6919 21.2901C18.4366 21.3543 18.1745 21.3866 17.9113 21.3863C16.9896 21.3863 16.1056 21.0202 15.4539 20.3684C14.8021 19.7167 14.436 18.8327 14.436 17.911C14.436 16.9893 14.8021 16.1054 15.4539 15.4536C16.1056 14.8019 16.9896 14.4357 17.9113 14.4357C18.1815 14.4348 18.4509 14.4671 18.7133 14.532C19.4761 14.7116 20.1556 15.1442 20.6412 15.7593C21.1267 16.3744 21.3897 17.1358 21.3872 17.9195C21.3847 18.7032 21.117 19.4629 20.6275 20.075C20.1381 20.687 19.4558 21.1153 18.6919 21.2901Z" fill="white"/>
<path d="M17.3764 19.7823C17.2711 19.7823 17.1669 19.7616 17.0696 19.7212C16.9723 19.6808 16.884 19.6216 16.8097 19.5471L15.7404 18.4777C15.6616 18.4043 15.5984 18.3158 15.5545 18.2174C15.5107 18.119 15.4871 18.0128 15.4852 17.9051C15.4833 17.7975 15.5031 17.6905 15.5435 17.5906C15.5838 17.4908 15.6439 17.4001 15.72 17.3239C15.7962 17.2477 15.8869 17.1877 15.9867 17.1474C16.0866 17.107 16.1936 17.0872 16.3012 17.0891C16.4089 17.091 16.5151 17.1146 16.6135 17.1584C16.7119 17.2023 16.8004 17.2655 16.8738 17.3443L17.3764 17.8468L18.9483 16.2749C19.1004 16.1333 19.3014 16.0562 19.5092 16.0598C19.717 16.0635 19.9152 16.1477 20.0622 16.2946C20.2091 16.4415 20.2933 16.6398 20.2969 16.8475C20.3006 17.0553 20.2235 17.2564 20.0818 17.4084L17.9432 19.5471C17.8688 19.6216 17.7805 19.6808 17.6833 19.7212C17.586 19.7616 17.4817 19.7823 17.3764 19.7823Z" fill="white"/>
</svg>
