<svg width="23" height="23" viewBox="0 0 23 23" fill="none" xmlns="http://www.w3.org/2000/svg">
<path d="M21.4138 5.94828H19.6234L20.932 2.09698C20.9991 1.89977 21.0266 1.69128 21.0131 1.48341C20.9996 1.27554 20.9453 1.07237 20.8533 0.885492C20.7613 0.698614 20.6333 0.531691 20.4768 0.394254C20.3203 0.256816 20.1382 0.151556 19.941 0.0844821C19.5427 -0.0509793 19.1069 -0.0226741 18.7295 0.163171C18.5426 0.255192 18.3757 0.38312 18.2383 0.539652C18.1008 0.696183 17.9956 0.878252 17.9285 1.07546L16.2725 5.94828H10.5027L11.8113 2.09698C11.9468 1.69869 11.9184 1.26291 11.7326 0.885492C11.5468 0.508075 11.2186 0.219944 10.8203 0.0844821C10.422 -0.0509793 9.98624 -0.0226741 9.60882 0.163171C9.2314 0.349016 8.94327 0.677177 8.80781 1.07546L7.15181 5.94828H2.37931C1.95862 5.94828 1.55516 6.1154 1.25769 6.41287C0.960221 6.71034 0.793103 7.1138 0.793103 7.53449C0.793103 7.95518 0.960221 8.35863 1.25769 8.6561C1.55516 8.95358 1.95862 9.12069 2.37931 9.12069H6.07319L4.59009 13.4828H1.58621C1.16552 13.4828 0.762061 13.6499 0.464589 13.9473C0.167118 14.2448 0 14.6483 0 15.069C0 15.4896 0.167118 15.8931 0.464589 16.1906C0.762061 16.488 1.16552 16.6552 1.58621 16.6552H3.51147L2.06722 20.903C2.00015 21.1002 1.97258 21.3087 1.98608 21.5166C1.99958 21.7245 2.05389 21.9276 2.14591 22.1145C2.23793 22.3014 2.36586 22.4683 2.52239 22.6057C2.67893 22.7432 2.861 22.8484 3.05821 22.9155C3.25542 22.9826 3.46391 23.0102 3.67178 22.9967C3.87965 22.9832 4.08282 22.9289 4.2697 22.8368C4.45657 22.7448 4.6235 22.6169 4.76093 22.4603C4.89837 22.3038 5.00363 22.1217 5.07071 21.9245L6.86233 16.6552H12.6322L11.1879 20.903C11.0525 21.3013 11.0808 21.7371 11.2666 22.1145C11.4524 22.4919 11.7806 22.7801 12.1789 22.9155C12.5772 23.051 13.013 23.0227 13.3904 22.8368C13.7678 22.651 14.0559 22.3228 14.1914 21.9245L15.983 16.6552H20.6207C21.0414 16.6552 21.4448 16.488 21.7423 16.1906C22.0398 15.8931 22.2069 15.4896 22.2069 15.069C22.2069 14.6483 22.0398 14.2448 21.7423 13.9473C21.4448 13.6499 21.0414 13.4828 20.6207 13.4828H17.0616L18.5447 9.12069H21.4138C21.8345 9.12069 22.2379 8.95358 22.5354 8.6561C22.8329 8.35863 23 7.95518 23 7.53449C23 7.1138 22.8329 6.71034 22.5354 6.41287C22.2379 6.1154 21.8345 5.94828 21.4138 5.94828ZM13.7108 13.4828H7.94095L9.42405 9.12069H15.1939L13.7108 13.4828Z" fill="white"/>
</svg>
