<svg width="16" height="16" viewBox="0 0 16 16" fill="none" xmlns="http://www.w3.org/2000/svg">
<path d="M3.09768 1C1.94598 1 1.00003 1.95233 1.00003 3.10347V5.20014C1.00003 6.35134 1.94595 7.30224 3.09771 7.30224H5.1954C6.34713 7.30224 7.29989 6.35131 7.29989 5.20014V3.10347C7.29986 1.95233 6.3471 1 5.19537 1H3.09768ZM10.7978 1C9.64609 1 8.70014 1.95233 8.70014 3.10347V5.20014C8.70014 6.35134 9.64606 7.30224 10.7978 7.30224H12.9023C14.054 7.30224 15 6.35131 15 5.20014V3.10347C15 1.9523 14.0541 1 12.9023 1H10.7978ZM3.09768 8.7032C1.94595 8.7032 1 9.64869 1 10.7999V12.8979C1 14.0491 1.94592 15 3.09768 15H5.19537C6.3471 15 7.29986 14.049 7.29986 12.8979V10.7999C7.29986 9.64869 6.3471 8.7032 5.19537 8.7032H3.09768ZM10.7978 8.7032C9.64609 8.7032 8.70014 9.64869 8.70014 10.7999V12.8979C8.70014 14.0491 9.64606 15 10.7978 15H12.9023C14.054 15 15 14.049 15 12.8979V10.7999C15 9.64869 14.0541 8.7032 12.9023 8.7032H10.7978Z" fill="white"/>
</svg>
