<svg width="16" height="16" viewBox="0 0 16 16" fill="none" xmlns="http://www.w3.org/2000/svg">
<path d="M9.61328 14.1747H9.16161C8.97106 13.2398 8.14263 12.5341 7.15235 12.5341H3.87111C2.88083 12.5341 2.0524 13.2398 1.86184 14.1747H1.41018C1.18347 14.1747 1.00002 14.3582 1.00002 14.5849C1.00002 14.8116 1.18347 14.995 1.41018 14.995H9.61328C9.83998 14.995 10.0234 14.8116 10.0234 14.5849C10.0234 14.3582 9.83998 14.1747 9.61328 14.1747ZM11.6811 4.72054L8.20087 1.24029C7.88048 0.919904 7.36109 0.919904 7.04076 1.24029C6.72043 1.56062 6.72043 2.08001 7.04076 2.40037L10.5211 5.88065C10.8414 6.20098 11.3608 6.20098 11.6811 5.88065C12.0015 5.56026 12.0015 5.04092 11.6811 4.72054ZM5.88067 10.521L2.40037 7.04073C2.08004 6.7204 1.56065 6.7204 1.24029 7.04073C0.919904 7.36106 0.919904 7.88046 1.24029 8.20084L4.72056 11.6811C5.04095 12.0014 5.56029 12.0014 5.88067 11.6811C6.20101 11.3608 6.20101 10.8414 5.88067 10.521ZM2.98022 6.46072L6.4605 2.9805L9.94069 6.46072L6.4605 9.94094L2.98022 6.46072ZM14.6396 12.8945L14.056 12.2612L12.3159 14.0013L12.8995 14.6347C13.38 15.1152 14.1591 15.1152 14.6396 14.6347C15.1201 14.1541 15.1201 13.3751 14.6396 12.8945ZM10.7222 8.98199C10.7913 8.71069 10.7334 8.41319 10.5211 8.20084C10.2007 7.88046 9.68128 7.88046 9.36095 8.20084L8.20087 9.36092C7.88048 9.68125 7.88048 10.2006 8.20087 10.521C8.41322 10.7334 8.71074 10.7913 8.98202 10.7221L11.7358 13.4212L13.476 11.6811L10.7222 8.98199Z" fill="white"/>
</svg>
