<svg width="16" height="16" viewBox="0 0 16 16" fill="none" xmlns="http://www.w3.org/2000/svg">
<path d="M6.014 14.8334C5.79299 14.8343 5.58067 14.7473 5.42377 14.5917C5.26686 14.436 5.17822 14.2244 5.17733 14.0034C5.17645 13.7824 5.2634 13.57 5.41905 13.4131C5.57471 13.2562 5.78632 13.1676 6.00733 13.1667H6.014C6.23501 13.1667 6.44698 13.2545 6.60326 13.4108C6.75954 13.5671 6.84733 13.779 6.84733 14C6.84733 14.2211 6.75954 14.433 6.60326 14.5893C6.44698 14.7456 6.23501 14.8334 6.014 14.8334ZM12.1807 14C12.1807 13.779 12.0929 13.5671 11.9366 13.4108C11.7803 13.2545 11.5683 13.1667 11.3473 13.1667H11.3407C11.1761 13.168 11.0157 13.218 10.8795 13.3104C10.7434 13.4027 10.6376 13.5333 10.5755 13.6857C10.5135 13.8381 10.4979 14.0055 10.5308 14.1667C10.5637 14.3279 10.6436 14.4757 10.7604 14.5916C10.8772 14.7075 11.0257 14.7862 11.1872 14.8178C11.3487 14.8494 11.5159 14.8325 11.6678 14.7693C11.8196 14.706 11.9494 14.5992 12.0407 14.4623C12.132 14.3254 12.1807 14.1646 12.1807 14ZM13.9733 5.57337L13.3 9.69337C13.2914 9.93483 13.232 10.1718 13.1256 10.3887C13.0193 10.6057 12.8685 10.7978 12.6829 10.9525C12.4973 11.1073 12.2812 11.2212 12.0487 11.2868C11.8162 11.3524 11.5724 11.3683 11.3333 11.3334H5.82C5.49852 11.3342 5.18764 11.2184 4.94495 11.0076C4.70225 10.7968 4.54417 10.5051 4.5 10.1867L3.49933 3.22137C3.47318 3.02114 3.37482 2.83735 3.22272 2.70453C3.07062 2.5717 2.87526 2.49899 2.67333 2.50004H2.5C2.36739 2.50004 2.24021 2.44736 2.14645 2.35359C2.05268 2.25982 2 2.13265 2 2.00004C2 1.86743 2.05268 1.74025 2.14645 1.64648C2.24021 1.55272 2.36739 1.50004 2.5 1.50004H2.67333C3.11571 1.4972 3.54396 1.65564 3.87797 1.94572C4.21197 2.23579 4.42884 2.63763 4.488 3.07604L4.62733 4.00004H12.6667C12.8617 4.00075 13.0542 4.04424 13.2305 4.12742C13.4069 4.21061 13.5629 4.33147 13.6875 4.48149C13.8121 4.63152 13.9023 4.80704 13.9516 4.9957C14.001 5.18435 14.0084 5.38154 13.9733 5.57337ZM10.338 6.42404C10.2916 6.37757 10.2364 6.34072 10.1757 6.31557C10.1151 6.29042 10.05 6.27748 9.98433 6.27748C9.91865 6.27748 9.8536 6.29042 9.79292 6.31557C9.73223 6.34072 9.6771 6.37757 9.63067 6.42404L8.20667 7.84804L7.67333 7.3147C7.57908 7.22358 7.4528 7.17312 7.3217 7.1742C7.1906 7.17528 7.06517 7.2278 6.97242 7.32046C6.87967 7.41312 6.82703 7.53851 6.82583 7.6696C6.82463 7.8007 6.87496 7.92703 6.966 8.02137L7.85467 8.9107C7.94862 9.00422 8.07578 9.05671 8.20833 9.05671C8.34089 9.05671 8.46805 9.00422 8.562 8.9107L10.338 7.13337C10.3848 7.0869 10.4219 7.03164 10.4472 6.97077C10.4725 6.90991 10.4856 6.84463 10.4856 6.7787C10.4856 6.71278 10.4725 6.6475 10.4472 6.58663C10.4219 6.52577 10.3848 6.47051 10.338 6.42404Z" fill="white"/>
</svg>
