<svg width="16" height="16" viewBox="0 0 16 16" fill="none" xmlns="http://www.w3.org/2000/svg">
<path d="M13.0663 11.4668C12.5199 11.4668 12.0516 11.7959 11.8454 12.2668H9.50169C9.28137 11.6459 8.69545 11.2001 7.99961 11.2001C7.30377 11.2001 6.71833 11.6459 6.49753 12.2668H4.15385C3.94761 11.7959 3.47929 11.4668 2.93289 11.4668C2.19641 11.4668 1.59961 12.0636 1.59961 12.8001C1.59961 13.5366 2.19641 14.1334 2.93289 14.1334C3.47977 14.1334 3.94809 13.8033 4.15385 13.3334H6.49753C6.71785 13.9532 7.30377 14.4001 7.99961 14.4001C8.69545 14.4001 9.28137 13.9532 9.50169 13.3334H11.8454C12.0511 13.8033 12.5194 14.1334 13.0663 14.1334C13.8028 14.1334 14.3996 13.5366 14.3996 12.8001C14.3996 12.0636 13.8028 11.4668 13.0663 11.4668ZM7.99961 13.3334C7.70473 13.3334 7.46633 13.095 7.46633 12.8001C7.46633 12.5052 7.70473 12.2668 7.99961 12.2668C8.29449 12.2668 8.53289 12.5052 8.53289 12.8001C8.53289 13.095 8.29449 13.3334 7.99961 13.3334ZM7.99961 1.6001C5.93865 1.6001 4.26633 3.27082 4.26633 5.33338C4.26633 6.36362 4.68393 7.2969 5.36009 7.97306L7.99961 10.4001L10.6398 7.97194C10.9872 7.62589 11.2626 7.21449 11.4502 6.76147C11.6378 6.30844 11.7339 5.82275 11.7329 5.33242C11.7329 3.27194 10.0617 1.6001 7.99961 1.6001ZM7.99961 6.93338C7.11625 6.93338 6.39961 6.21674 6.39961 5.33338C6.39961 4.45002 7.11625 3.73338 7.99961 3.73338C8.88345 3.73338 9.59961 4.45002 9.59961 5.33338C9.59961 6.21674 8.88345 6.93338 7.99961 6.93338Z" fill="white"/>
</svg>
