<svg width="16" height="16" viewBox="0 0 16 16" fill="none" xmlns="http://www.w3.org/2000/svg">
<path d="M12.666 0.833252H3.33271C3.0234 0.833605 2.72686 0.956635 2.50814 1.17535C2.28942 1.39407 2.16639 1.69061 2.16604 1.99992V13.6386C2.16457 13.8574 2.2255 14.072 2.34169 14.2574C2.45788 14.4428 2.62451 14.5912 2.82204 14.6853C3.02311 14.7819 3.24753 14.8194 3.4691 14.7933C3.69068 14.7672 3.90025 14.6786 4.07338 14.5379C4.17607 14.4472 4.30976 14.3994 4.44671 14.4046C4.68138 14.4046 4.78004 14.4873 4.99071 14.6919C5.14385 14.8695 5.33348 15.0119 5.54666 15.1096C5.75983 15.2072 5.99156 15.2578 6.22604 15.2578C6.46052 15.2578 6.69225 15.2072 6.90543 15.1096C7.11861 15.0119 7.30823 14.8695 7.46138 14.6919C7.67471 14.4873 7.77004 14.4046 8.00404 14.4046C8.23804 14.4046 8.33337 14.4873 8.54604 14.6919C8.699 14.8691 8.88833 15.0112 9.10116 15.1087C9.31399 15.2061 9.54531 15.2565 9.77938 15.2565C10.0134 15.2565 10.2448 15.2061 10.4576 15.1087C10.6704 15.0112 10.8598 14.8691 11.0127 14.6919C11.226 14.4873 11.3214 14.4046 11.5554 14.4046C11.6895 14.3992 11.8207 14.4452 11.922 14.5333C12.0958 14.6737 12.306 14.762 12.528 14.7877C12.75 14.8134 12.9747 14.7756 13.176 14.6786C13.373 14.5846 13.5392 14.4364 13.655 14.2514C13.7708 14.0664 13.8316 13.8522 13.83 13.6339V1.99992C13.8297 1.69107 13.707 1.39493 13.4889 1.17629C13.2707 0.95765 12.9749 0.834309 12.666 0.833252ZM7.01937 10.3533L5.68604 11.6866C5.63971 11.7331 5.58465 11.77 5.52401 11.7952C5.46338 11.8204 5.39837 11.8334 5.33271 11.8334C5.26705 11.8334 5.20204 11.8204 5.1414 11.7952C5.08077 11.77 5.02571 11.7331 4.97937 11.6866L4.31271 11.0199C4.26358 10.9741 4.22418 10.9189 4.19685 10.8576C4.16953 10.7963 4.15483 10.7301 4.15365 10.6629C4.15246 10.5958 4.16481 10.5291 4.18996 10.4669C4.21511 10.4046 4.25254 10.348 4.30002 10.3006C4.3475 10.2531 4.40405 10.2157 4.46631 10.1905C4.52857 10.1654 4.59525 10.153 4.66239 10.1542C4.72953 10.1554 4.79573 10.1701 4.85707 10.1974C4.9184 10.2247 4.9736 10.2641 5.01938 10.3133L5.33271 10.6259L6.31271 9.64659C6.40749 9.55827 6.53286 9.51018 6.66239 9.51247C6.79192 9.51475 6.91551 9.56723 7.00712 9.65884C7.09873 9.75045 7.15121 9.87404 7.15349 10.0036C7.15578 10.1331 7.1077 10.2585 7.01937 10.3533ZM7.01937 7.01992L5.68604 8.35325C5.63971 8.39977 5.58465 8.43669 5.52401 8.46188C5.46338 8.48707 5.39837 8.50003 5.33271 8.50003C5.26705 8.50003 5.20204 8.48707 5.1414 8.46188C5.08077 8.43669 5.02571 8.39977 4.97937 8.35325L4.31271 7.68659C4.22439 7.5918 4.17631 7.46644 4.17859 7.3369C4.18088 7.20737 4.23335 7.08378 4.32496 6.99217C4.41657 6.90056 4.54016 6.84809 4.66969 6.8458C4.79923 6.84352 4.92459 6.8916 5.01938 6.97992L5.33271 7.29259L6.31271 6.31325C6.40749 6.22493 6.53286 6.17685 6.66239 6.17914C6.79192 6.18142 6.91551 6.2339 7.00712 6.3255C7.09873 6.41711 7.15121 6.5407 7.15349 6.67024C7.15578 6.79977 7.1077 6.92514 7.01937 7.01992ZM7.01937 3.68659L5.68604 5.01992C5.63971 5.06644 5.58465 5.10336 5.52401 5.12854C5.46338 5.15373 5.39837 5.1667 5.33271 5.1667C5.26705 5.1667 5.20204 5.15373 5.1414 5.12854C5.08077 5.10336 5.02571 5.06644 4.97937 5.01992L4.31271 4.35325C4.22439 4.25847 4.17631 4.1331 4.17859 4.00357C4.18088 3.87404 4.23335 3.75045 4.32496 3.65884C4.41657 3.56723 4.54016 3.51475 4.66969 3.51247C4.79923 3.51018 4.92459 3.55827 5.01938 3.64659L5.33271 3.95925L6.31271 2.97992C6.40749 2.8916 6.53286 2.84352 6.66239 2.8458C6.79192 2.84809 6.91551 2.90056 7.00712 2.99217C7.09873 3.08378 7.15121 3.20737 7.15349 3.3369C7.15578 3.46644 7.1077 3.5918 7.01937 3.68659ZM11.3327 11.1666H8.66604C8.53343 11.1666 8.40626 11.1139 8.31249 11.0201C8.21872 10.9264 8.16604 10.7992 8.16604 10.6666C8.16604 10.534 8.21872 10.4068 8.31249 10.313C8.40626 10.2193 8.53343 10.1666 8.66604 10.1666H11.3327C11.4653 10.1666 11.5925 10.2193 11.6863 10.313C11.78 10.4068 11.8327 10.534 11.8327 10.6666C11.8327 10.7992 11.78 10.9264 11.6863 11.0201C11.5925 11.1139 11.4653 11.1666 11.3327 11.1666ZM11.3327 7.83325H8.66604C8.53343 7.83325 8.40626 7.78057 8.31249 7.68681C8.21872 7.59304 8.16604 7.46586 8.16604 7.33325C8.16604 7.20064 8.21872 7.07347 8.31249 6.9797C8.40626 6.88593 8.53343 6.83325 8.66604 6.83325H11.3327C11.4653 6.83325 11.5925 6.88593 11.6863 6.9797C11.78 7.07347 11.8327 7.20064 11.8327 7.33325C11.8327 7.46586 11.78 7.59304 11.6863 7.68681C11.5925 7.78057 11.4653 7.83325 11.3327 7.83325ZM11.3327 4.49992H8.66604C8.53343 4.49992 8.40626 4.44724 8.31249 4.35347C8.21872 4.2597 8.16604 4.13253 8.16604 3.99992C8.16604 3.86731 8.21872 3.74013 8.31249 3.64637C8.40626 3.5526 8.53343 3.49992 8.66604 3.49992H11.3327C11.4653 3.49992 11.5925 3.5526 11.6863 3.64637C11.78 3.74013 11.8327 3.86731 11.8327 3.99992C11.8327 4.13253 11.78 4.2597 11.6863 4.35347C11.5925 4.44724 11.4653 4.49992 11.3327 4.49992Z" fill="white"/>
</svg>
