<svg width="16" height="16" viewBox="0 0 16 16" fill="none" xmlns="http://www.w3.org/2000/svg">
<g clip-path="url(#clip0_399_66)">
<path fill-rule="evenodd" clip-rule="evenodd" d="M14.6875 9.4075C14.1852 9.11813 13.8732 8.57904 13.8732 7.99997C13.8732 7.42119 14.1852 6.8821 14.6861 6.593C15.2001 6.29747 15.4139 5.68341 15.1942 5.13304C14.9189 4.43782 14.544 3.78847 14.0827 3.20279C13.7151 2.73647 13.0766 2.61435 12.5625 2.91179C12.0617 3.20279 11.4378 3.20366 10.9355 2.91397C10.4346 2.62429 10.1241 2.08432 10.1256 1.50422C10.1256 0.910786 9.70087 0.418286 9.11362 0.333348C8.37442 0.226372 7.62361 0.227109 6.88462 0.335536C6.29881 0.421067 5.87412 0.913286 5.87556 1.50554C5.87556 2.08491 5.56506 2.62457 5.06422 2.91397C4.56187 3.20335 3.93947 3.20275 3.43715 2.91207C2.92312 2.61463 2.28459 2.73735 1.917 3.20366C1.6868 3.4963 1.47782 3.80503 1.29165 4.12747C1.10565 4.44954 0.943091 4.7871 0.805434 5.13022C0.584278 5.68147 0.798122 6.29641 1.31215 6.59269C1.8145 6.88179 2.12643 7.42116 2.12643 7.99994C2.12643 8.57872 1.8145 9.11766 1.31362 9.40719C0.799591 9.70275 0.585778 10.3165 0.805434 10.8667C1.08031 11.5607 1.45476 12.211 1.917 12.7971C2.28459 13.2634 2.92312 13.3855 3.43715 13.0881C3.93803 12.7971 4.5619 12.7965 5.06422 13.0859C5.56506 13.3756 5.87556 13.9156 5.87556 14.4957C5.87409 15.0889 6.30025 15.5814 6.88606 15.6666C7.25224 15.7196 7.62175 15.7462 7.99175 15.7462C8.36668 15.7462 8.74159 15.719 9.11503 15.6643C9.70084 15.5787 10.1255 15.0869 10.1255 14.4946C10.1241 13.915 10.4345 13.3753 10.9354 13.0859C11.4377 12.7965 12.0602 12.7971 12.5625 13.0878C13.0765 13.3853 13.715 13.2628 14.0826 12.7962C14.3127 12.5036 14.5217 12.195 14.708 11.8727C14.8925 11.5507 15.058 11.2131 15.1942 10.8697C15.4154 10.3184 15.2016 9.70332 14.6875 9.4075ZM9.99231 9.15063C9.68622 9.68285 9.18975 10.0638 8.59518 10.2228C8.00206 10.3818 7.38109 10.3003 6.84947 9.99272C5.75109 9.35829 5.37325 7.94841 6.00737 6.84929C6.43209 6.11204 7.20828 5.69935 8.0035 5.69935C8.39453 5.69935 8.7885 5.79835 9.15022 6.00719C10.2486 6.64147 10.6264 8.05179 9.99231 9.15063Z" fill="white"/>
</g>
<defs>
<clipPath id="clip0_399_66">
<rect width="16" height="16" fill="white"/>
</clipPath>
</defs>
</svg>
