<svg width="14" height="14" viewBox="0 0 14 14" fill="none" xmlns="http://www.w3.org/2000/svg">
<path d="M14 0.954545C13.999 0.701694 13.8981 0.459485 13.7193 0.280691C13.5405 0.101896 13.2983 0.00100539 13.0455 0L8.27273 0V3.81818C8.27273 4.15573 8.13864 4.47945 7.89995 4.71814C7.66127 4.95682 7.33755 5.09091 7 5.09091C6.66245 5.09091 6.33873 4.95682 6.10005 4.71814C5.86136 4.47945 5.72727 4.15573 5.72727 3.81818V0H0.954545C0.701591 0.000671862 0.459189 0.101456 0.280322 0.280322C0.101455 0.459189 0.000671862 0.701591 0 0.954545V13.0455C0 13.5711 0.428909 14 0.954545 14H13.0455C13.5698 14 14 13.5711 14 13.0455V0.954545Z" fill="white"/>
</svg>
