<svg width="16" height="16" viewBox="0 0 16 16" fill="none" xmlns="http://www.w3.org/2000/svg">
<path d="M13.377 5.8083V4.08416C13.377 3.69664 13.223 3.32499 12.949 3.05098C12.675 2.77696 12.3034 2.62302 11.9158 2.62302H10.2282L9.0301 1.42489C8.75634 1.15275 8.38601 1 8 1C7.61399 1 7.24366 1.15275 6.9699 1.42489L5.8083 2.62302H4.08416C3.69664 2.62302 3.32499 2.77696 3.05098 3.05098C2.77696 3.32499 2.62302 3.69664 2.62302 4.08416V5.8083L1.42489 6.9699C1.15275 7.24366 1 7.61399 1 8C1 8.38601 1.15275 8.75634 1.42489 9.0301L2.62302 10.2282V11.9158C2.62302 12.3034 2.77696 12.675 3.05098 12.949C3.32499 13.223 3.69664 13.377 4.08416 13.377H5.8083L6.9699 14.5751C7.24366 14.8472 7.61399 15 8 15C8.38601 15 8.75634 14.8472 9.0301 14.5751L10.2282 13.377H11.9158C12.3034 13.377 12.675 13.223 12.949 12.949C13.223 12.675 13.377 12.3034 13.377 11.9158V10.2282L14.5751 9.0301C14.8472 8.75634 15 8.38601 15 8C15 7.61399 14.8472 7.24366 14.5751 6.9699L13.377 5.8083Z" fill="white"/>
<path d="M7.45202 9.82717C7.35587 9.82772 7.26056 9.80929 7.17155 9.77294C7.08254 9.73658 7.00158 9.68301 6.93331 9.6153L5.80824 8.51945C5.67067 8.38188 5.59338 8.1953 5.59338 8.00075C5.59338 7.8062 5.67067 7.61961 5.80824 7.48204C5.94581 7.34448 6.13239 7.26719 6.32694 7.26719C6.52149 7.26719 6.70808 7.34448 6.84564 7.48204L7.42279 8.0665L9.09579 6.38619C9.23336 6.24087 9.42302 6.15615 9.62306 6.15067C9.82309 6.14519 10.0171 6.2194 10.1624 6.35697C10.3077 6.49454 10.3925 6.6842 10.3979 6.88423C10.4034 7.08426 10.3292 7.27828 10.1916 7.4236L7.99994 9.6153C7.92825 9.68661 7.84253 9.74227 7.74821 9.77874C7.6539 9.8152 7.55304 9.8317 7.45202 9.82717Z" fill="#35BB63"/>
</svg>
