<svg width="16" height="16" viewBox="0 0 16 16" fill="none" xmlns="http://www.w3.org/2000/svg">
<path d="M8 15C11.866 15 15 11.866 15 8C15 4.13401 11.866 1 8 1C4.13401 1 1 4.13401 1 8C1 11.866 4.13401 15 8 15Z" fill="white"/>
<path d="M5.19697 10.7846C5.26933 10.858 5.35555 10.9162 5.45061 10.956C5.54568 10.9958 5.6477 11.0162 5.75075 11.0162C5.8538 11.0162 5.95582 10.9958 6.05088 10.956C6.14595 10.9162 6.23217 10.858 6.30453 10.7846L7.98141 9.10771L9.6583 10.7846C9.80517 10.9315 10.0044 11.014 10.2121 11.014C10.4198 11.014 10.619 10.9315 10.7659 10.7846C10.9127 10.6377 10.9952 10.4385 10.9952 10.2308C10.9952 10.0231 10.9127 9.82391 10.7659 9.67704L9.08897 8.00015L10.7659 6.32327C10.8386 6.25054 10.8963 6.16421 10.9356 6.06919C10.975 5.97417 10.9952 5.87233 10.9952 5.76949C10.9952 5.66664 10.975 5.5648 10.9356 5.46979C10.8963 5.37477 10.8386 5.28843 10.7659 5.21571C10.6931 5.14299 10.6068 5.0853 10.5118 5.04594C10.4168 5.00659 10.3149 4.98633 10.2121 4.98633C10.1092 4.98633 10.0074 5.00659 9.91238 5.04594C9.81736 5.0853 9.73103 5.14299 9.6583 5.21571L7.98141 6.8926L6.30453 5.21571C6.2318 5.14299 6.14547 5.0853 6.05045 5.04594C5.95543 5.00659 5.85359 4.98633 5.75075 4.98633C5.6479 4.98633 5.54606 5.00659 5.45105 5.04594C5.35603 5.0853 5.26969 5.14299 5.19697 5.21571C5.12425 5.28843 5.06656 5.37477 5.0272 5.46979C4.98785 5.5648 4.96759 5.66664 4.96759 5.76949C4.96759 5.87233 4.98785 5.97417 5.0272 6.06919C5.06656 6.16421 5.12425 6.25054 5.19697 6.32327L6.87386 8.00015L5.19697 9.67704C5.1236 9.7494 5.06534 9.83562 5.02557 9.93069C4.98581 10.0258 4.96533 10.1278 4.96533 10.2308C4.96533 10.3339 4.98581 10.4359 5.02557 10.531C5.06534 10.626 5.1236 10.7122 5.19697 10.7846Z" fill="#DC3623"/>
</svg>
