<svg width="16" height="16" viewBox="0 0 16 16" fill="none" xmlns="http://www.w3.org/2000/svg">
<g clip-path="url(#clip0_1680_1810)">
<path d="M13.4624 5.77329V4.02178C13.4624 3.62811 13.306 3.25057 13.0276 2.9722C12.7492 2.69384 12.3717 2.53745 11.978 2.53745H10.2636L9.04648 1.3203C8.76837 1.04385 8.39217 0.888672 8.00003 0.888672C7.60789 0.888672 7.23168 1.04385 6.95358 1.3203L5.77353 2.53745H4.02203C3.62836 2.53745 3.25081 2.69384 2.97245 2.9722C2.69408 3.25057 2.5377 3.62811 2.5377 4.02178V5.77329L1.32055 6.95333C1.04409 7.23144 0.888916 7.60764 0.888916 7.99978C0.888916 8.39192 1.04409 8.76813 1.32055 9.04623L2.5377 10.2634V11.9778C2.5377 12.3715 2.69408 12.749 2.97245 13.0274C3.25081 13.3057 3.62836 13.4621 4.02203 13.4621H5.77353L6.95358 14.6793C7.23168 14.9557 7.60789 15.1109 8.00003 15.1109C8.39217 15.1109 8.76837 14.9557 9.04648 14.6793L10.2636 13.4621H11.978C12.3717 13.4621 12.7492 13.3057 13.0276 13.0274C13.306 12.749 13.4624 12.3715 13.4624 11.9778V10.2634L14.6795 9.04623C14.956 8.76813 15.1111 8.39192 15.1111 7.99978C15.1111 7.60764 14.956 7.23144 14.6795 6.95333L13.4624 5.77329Z" fill="white"/>
<path d="M10.5778 9.75366C10.8059 9.98182 10.8059 10.3504 10.5778 10.5786C10.5237 10.6328 10.4594 10.6758 10.3886 10.7052C10.3178 10.7345 10.242 10.7496 10.1653 10.7495C10.016 10.7495 9.86671 10.6923 9.75293 10.5786L8.00006 8.82559L6.24719 10.5786C6.19309 10.6328 6.1288 10.6759 6.05802 10.7052C5.98725 10.7345 5.91138 10.7496 5.83476 10.7495C5.75814 10.7496 5.68226 10.7345 5.61148 10.7052C5.54069 10.6759 5.4764 10.6328 5.42228 10.5786C5.19424 10.3504 5.19424 9.98182 5.42228 9.75366L7.17526 8.00079L5.42226 6.24792C5.19421 6.01977 5.19421 5.65114 5.42226 5.42302C5.65041 5.19497 6.01903 5.19497 6.24719 5.42302L8.00006 7.176L9.75293 5.42299C9.98109 5.19494 10.3497 5.19494 10.5778 5.42299C10.8059 5.65114 10.8059 6.01977 10.5778 6.24792L8.82486 8.00079L10.5778 9.75366Z" fill="#2196F3"/>
</g>
<defs>
<clipPath id="clip0_1680_1810">
<rect width="16" height="16" fill="white"/>
</clipPath>
</defs>
</svg>
