<svg width="16" height="16" viewBox="0 0 16 16" fill="none" xmlns="http://www.w3.org/2000/svg">
<path d="M8 1.5C6.71442 1.5 5.45772 1.88122 4.3888 2.59545C3.31988 3.30968 2.48676 4.32484 1.99479 5.51256C1.50282 6.70028 1.37409 8.00721 1.6249 9.26809C1.8757 10.529 2.49477 11.6872 3.40381 12.5962C4.31285 13.5052 5.47104 14.1243 6.73192 14.3751C7.99279 14.6259 9.29973 14.4972 10.4874 14.0052C11.6752 13.5132 12.6903 12.6801 13.4046 11.6112C14.1188 10.5423 14.5 9.28558 14.5 8C14.4982 6.27663 13.8129 4.62436 12.5942 3.40576C11.3756 2.18715 9.72337 1.50176 8 1.5ZM10.3533 10.3533C10.2596 10.447 10.1325 10.4996 10 10.4996C9.8675 10.4996 9.74042 10.447 9.64667 10.3533L7.64667 8.35333C7.55288 8.25965 7.50012 8.13256 7.5 8V4C7.5 3.86739 7.55268 3.74021 7.64645 3.64645C7.74022 3.55268 7.86739 3.5 8 3.5C8.13261 3.5 8.25979 3.55268 8.35356 3.64645C8.44732 3.74021 8.5 3.86739 8.5 4V7.79333L10.3533 9.64667C10.447 9.74042 10.4996 9.8675 10.4996 10C10.4996 10.1325 10.447 10.2596 10.3533 10.3533Z" fill="#212121"/>
</svg>
