<svg width="55" height="62" viewBox="0 0 55 62" fill="none" xmlns="http://www.w3.org/2000/svg">
<g clip-path="url(#clip0_87_3359)">
<path d="M42.2703 53.5564H30.6637V40.115H34.4994C35.4721 40.115 36.0469 38.8482 35.4721 37.936L28.0107 26.1036C27.5354 25.3435 26.5516 25.3435 26.0763 26.1036L18.6149 37.936C18.04 38.8482 18.6038 40.115 19.5876 40.115H23.4233V53.5564H10.4239C4.62055 53.189 0 46.9687 0 40.2291C0 35.5797 2.19974 31.5257 5.46065 29.3341C5.16219 28.4093 5.00744 27.4211 5.00744 26.3823C5.00744 21.6316 8.35679 17.793 12.502 17.793C13.3974 17.793 14.2596 17.9704 15.0665 18.3124C17.4652 12.4849 22.6385 8.4436 28.6518 8.4436C36.4338 8.45627 42.8451 15.2846 43.5747 23.9879C49.5549 25.1661 54.098 31.5131 54.098 38.6962C54.098 46.3733 48.8806 53.0243 42.2703 53.5564Z" fill="#A6A6A6"/>
</g>
<defs>
<clipPath id="clip0_87_3359">
<rect width="54.098" height="62" fill="white"/>
</clipPath>
</defs>
</svg>
