<svg width="22" height="22" viewBox="0 0 22 22" fill="none" xmlns="http://www.w3.org/2000/svg">
<path fill-rule="evenodd" clip-rule="evenodd" d="M15.6836 4.64131C17.591 5.08389 18.3206 6.19923 19.2354 7.73438H15.6836V4.64131ZM4.53655 7.86328C4.91004 7.86328 5.18109 8.04354 5.18109 8.46484C5.18109 8.8202 4.89358 9.10839 4.5384 9.10938H0.644531C0.288535 9.10938 0 9.39808 0 9.75391C0 10.1099 0.288535 10.3984 0.644531 10.3984H6.44531C6.80466 10.3984 7.09238 10.6868 7.09238 11.043C7.09238 11.399 6.80384 11.6875 6.44785 11.6875H0.644531C0.288535 11.6875 0 11.976 0 12.332C0 12.688 0.288535 12.9766 0.644531 12.9766H2.0625V14.9102C2.0625 15.2662 2.35104 15.5547 2.70703 15.5547H4.00262C4.23358 16.6924 5.23884 17.5312 6.42383 17.5312C7.60882 17.5312 8.61407 16.6924 8.84503 15.5547H15.3893C15.6203 16.6924 16.6256 17.5312 17.8105 17.5312C18.9955 17.5312 20.0008 16.6924 20.2318 15.5547H21.3555C21.7115 15.5547 22 15.2662 22 14.9102V11.043C22 9.15183 20.0053 9.02627 20.0035 9.02344H15.0391C14.6831 9.02344 14.3945 8.7349 14.3945 8.37891V4.51172H2.70703C2.35104 4.51172 2.0625 4.80025 2.0625 5.15625V6.57422H1.28906C0.933066 6.57422 0.644531 6.86275 0.644531 7.21875C0.644531 7.57475 0.933066 7.86328 1.28906 7.86328H4.53655ZM18.6461 14.225C19.1075 14.6864 19.1075 15.4348 18.6461 15.8962C17.9039 16.6385 16.6289 16.1104 16.6289 15.0605C16.6289 14.0108 17.9039 13.4828 18.6461 14.225ZM7.25936 14.225C7.7208 14.6864 7.7208 15.4348 7.25936 15.8962C6.51716 16.6385 5.24219 16.1104 5.24219 15.0605C5.24219 14.0108 6.51716 13.4828 7.25936 14.225Z" fill="#212121"/>
</svg>
