<svg width="22" height="22" viewBox="0 0 22 22" fill="none" xmlns="http://www.w3.org/2000/svg">
<path d="M17.9683 11.5821C17.8491 11.5634 17.7274 11.5687 17.6102 11.5976C17.4931 11.6266 17.3829 11.6786 17.2861 11.7506C17.1893 11.8227 17.1079 11.9133 17.0465 12.0172C16.9852 12.1211 16.9452 12.2362 16.9288 12.3557C16.7437 13.6138 16.155 14.7777 15.2513 15.6722C14.1332 16.7882 12.618 17.4149 11.0383 17.4149C9.4586 17.4149 7.94342 16.7882 6.82532 15.6722C5.70959 14.554 5.08299 13.0389 5.08299 11.4592C5.08299 9.87959 5.70959 8.36446 6.82532 7.24624C7.69616 6.3731 8.81949 5.79588 10.0364 5.59624C10.5954 5.49468 11.1664 5.47769 11.7304 5.54582C12.5278 5.64176 13.2972 5.90007 13.9909 6.30482L12.7974 6.50923C12.6773 6.52796 12.5621 6.57039 12.4586 6.63404C12.3551 6.6977 12.2652 6.78131 12.1943 6.88001C12.1233 6.97871 12.0727 7.09053 12.0454 7.20897C12.0181 7.32741 12.0146 7.45009 12.0352 7.56989C12.0557 7.68968 12.0999 7.8042 12.1651 7.90677C12.2303 8.00934 12.3153 8.09792 12.415 8.16735C12.5148 8.23678 12.6274 8.28567 12.7462 8.31119C12.865 8.33671 12.9878 8.33834 13.1072 8.31598L16.3064 7.76965C16.5458 7.72798 16.7589 7.59318 16.899 7.39475C17.0392 7.19632 17.0951 6.95043 17.0544 6.7109L16.5072 3.51173C16.4906 3.38979 16.4496 3.27243 16.3867 3.16665C16.3238 3.06087 16.2403 2.96884 16.141 2.89605C16.0418 2.82326 15.9289 2.77119 15.8091 2.74296C15.6894 2.71472 15.5651 2.7109 15.4438 2.73171C15.3225 2.75252 15.2067 2.79754 15.1031 2.86409C14.9996 2.93064 14.9106 3.01735 14.8413 3.11906C14.772 3.22076 14.7239 3.33538 14.6998 3.45608C14.6758 3.57677 14.6763 3.70107 14.7013 3.82157L14.8443 4.66398C13.9479 4.16044 12.96 3.841 11.9385 3.7244C11.1974 3.63504 10.4471 3.6579 9.71282 3.79224C8.12679 4.0559 6.66349 4.81064 5.52915 5.95007C2.49224 8.9879 2.49224 13.9297 5.52915 16.9684C6.2521 17.6923 7.11098 18.2662 8.05642 18.6571C9.00187 19.048 10.0152 19.2483 11.0383 19.2463C12.0614 19.2483 13.0748 19.048 14.0202 18.6571C14.9657 18.2662 15.8245 17.6923 16.5475 16.9684C17.7303 15.7956 18.5004 14.2705 18.742 12.6225C18.7774 12.3821 18.7159 12.1374 18.571 11.9423C18.4261 11.7472 18.2096 11.6176 17.9692 11.5821H17.9683Z" fill="#373737"/>
</svg>
