<svg width="22" height="22" viewBox="0 0 22 22" fill="none" xmlns="http://www.w3.org/2000/svg">
<path fill-rule="evenodd" clip-rule="evenodd" d="M11.473 1.98911C11.3453 1.86803 11.176 1.80054 11 1.80054C10.824 1.80054 10.6547 1.86803 10.527 1.98911C8.58117 3.837 5.98962 4.85033 3.30642 4.81244C3.16025 4.81054 3.01727 4.85529 2.89825 4.94018C2.77924 5.02508 2.69038 5.1457 2.64459 5.28453C2.25773 6.46351 2.06124 7.69661 2.06251 8.93744C2.06251 14.3843 5.78784 18.9594 10.8286 20.2564C10.941 20.2854 11.059 20.2854 11.1714 20.2564C16.2122 18.9594 19.9375 14.3843 19.9375 8.93744C19.9375 7.66328 19.7331 6.43494 19.3554 5.28453C19.3098 5.14552 19.221 5.0247 19.102 4.93964C18.9829 4.85457 18.8399 4.80969 18.6936 4.81153L18.5625 4.81244C15.8162 4.81244 13.3219 3.73994 11.473 1.98911ZM14.3092 9.33711C14.3642 9.26382 14.404 9.18028 14.4262 9.0914C14.4485 9.00251 14.4527 8.91007 14.4387 8.81952C14.4248 8.72896 14.3928 8.64212 14.3448 8.56408C14.2968 8.48605 14.2336 8.41841 14.1591 8.36512C14.0845 8.31184 14.0001 8.274 13.9107 8.25382C13.8213 8.23364 13.7288 8.23153 13.6386 8.24762C13.5484 8.2637 13.4623 8.29766 13.3854 8.34749C13.3085 8.39732 13.2424 8.46201 13.1908 8.53778L10.2245 12.6903L8.73584 11.2016C8.60551 11.0802 8.43314 11.0141 8.25503 11.0172C8.07692 11.0203 7.90698 11.0925 7.78102 11.2185C7.65506 11.3444 7.5829 11.5144 7.57976 11.6925C7.57662 11.8706 7.64273 12.0429 7.76417 12.1733L9.82667 14.2358C9.89725 14.3063 9.98232 14.3606 10.076 14.395C10.1697 14.4293 10.2697 14.4428 10.3691 14.4346C10.4686 14.4264 10.565 14.3967 10.6518 14.3475C10.7386 14.2983 10.8136 14.2307 10.8717 14.1496L14.3092 9.33711Z" fill="#373737"/>
</svg>
