<svg width="22" height="22" viewBox="0 0 22 22" fill="none" xmlns="http://www.w3.org/2000/svg">
<path d="M3.3008 1.00209C3.23783 1.00818 3.17789 1.03204 3.12797 1.07089C3.07804 1.10974 3.04017 1.16197 3.01879 1.22151C2.9974 1.28105 2.99337 1.34544 3.00717 1.40717C3.02097 1.46891 3.05203 1.52546 3.09672 1.57023L5.33527 3.805V4.53061L4.5303 5.33432H3.80721L1.56866 3.09829C1.52186 3.05264 1.46268 3.02175 1.39847 3.00943C1.33427 2.99712 1.26786 3.00393 1.20749 3.02902C1.14712 3.0541 1.09544 3.09636 1.05887 3.15056C1.0223 3.20475 1.00245 3.26849 1.00178 3.33386V6.00324C1.00237 6.09062 1.03719 6.1743 1.09878 6.23629L2.76541 7.90292C2.82803 7.96512 2.91272 8 3.00098 7.99992H5.52801L8.39013 10.8608L10.8617 8.39044L8.00088 5.52832V3.00003C8.00029 2.91203 7.96497 2.82782 7.90262 2.76572L6.23725 1.09783C6.17412 1.03578 6.08893 1.00134 6.00042 1.00209H3.33229C3.32138 1.00155 3.31171 1.00155 3.3008 1.00209ZM19.6282 1.00209C19.5888 1.00676 19.5504 1.01827 19.5149 1.0361L16.1841 2.70273C16.1286 2.73036 16.0818 2.77294 16.0491 2.82568C16.0164 2.87842 15.999 2.93923 15.9989 3.00129V4.19804L8.47202 11.7224L10.276 13.5289L17.8029 6.00198H18.9996C19.1256 6.00198 19.2402 5.92892 19.2969 5.8168L20.9648 2.48354C20.9958 2.42095 21.0064 2.35022 20.9951 2.28129C20.9838 2.21237 20.9512 2.14872 20.9018 2.09932L19.9016 1.09783C19.8662 1.06236 19.8232 1.03534 19.7758 1.01876C19.7285 1.00219 19.6781 0.996489 19.6282 1.00209ZM13.6117 11.1379L11.1389 13.612L13.9985 16.4717V19.0012C13.9988 19.0451 14.0077 19.0885 14.0248 19.1289C14.0419 19.1693 14.0667 19.206 14.098 19.2368L15.7634 20.9034C15.8258 20.9661 15.9105 21.0014 15.9989 21.0017H18.6671C18.733 21.0012 18.7973 20.9813 18.8519 20.9443C18.9065 20.9074 18.949 20.8551 18.9739 20.7941C18.9988 20.733 19.0051 20.666 18.992 20.6014C18.9789 20.5367 18.9469 20.4775 18.9001 20.431L16.6666 18.1962V17.4731L17.4703 16.6669H18.1947L20.4307 18.9029C20.4775 18.9491 20.5369 18.9804 20.6015 18.9929C20.666 19.0054 20.7328 18.9986 20.7935 18.9733C20.8541 18.948 20.906 18.9054 20.9425 18.8507C20.9791 18.7961 20.9986 18.7318 20.9988 18.6661V16.0018C20.9986 15.9133 20.9632 15.8286 20.9006 15.7662L19.2352 14.097C19.1721 14.035 19.0869 14.0006 18.9984 14.0013H16.4726L13.6117 11.1379ZM7.3307 11.6645C7.24357 11.6657 7.16038 11.701 7.09891 11.7628L6.33425 12.5287L9.47099 15.6654L10.2356 14.9008C10.2976 14.8382 10.3323 14.7538 10.3323 14.6658C10.3323 14.5778 10.2976 14.4934 10.2356 14.4309L7.57005 11.7628C7.53855 11.7311 7.50102 11.7061 7.4597 11.6892C7.41837 11.6724 7.37533 11.664 7.3307 11.6645ZM5.8631 12.9998L1.70975 17.1519C0.805262 18.0564 0.752353 19.5001 1.62535 20.3731C2.49835 21.246 3.94327 21.1919 4.8465 20.2887L8.99859 16.1366L5.8631 12.9998Z" fill="#373737"/>
</svg>
