<svg width="40" height="40" viewBox="0 0 40 40" fill="none" xmlns="http://www.w3.org/2000/svg">
<path d="M19.8378 12.7607C15.8454 12.7607 12.5974 16.0087 12.5974 20.0008C12.5974 23.9933 15.8454 27.2412 19.8378 27.2412C23.8301 27.2412 27.0779 23.9933 27.0779 20.0009C27.0779 16.0086 23.8301 12.7607 19.8378 12.7607ZM24.1364 18.6374L18.9495 23.8242C18.8461 23.928 18.7231 24.0102 18.5878 24.0663C18.4525 24.1224 18.3074 24.1512 18.1609 24.151C18.0145 24.1512 17.8695 24.1224 17.7342 24.0664C17.5989 24.0103 17.4761 23.928 17.3727 23.8242L15.3905 21.8421C14.955 21.4069 14.955 20.701 15.3905 20.2655C15.8256 19.8301 16.5316 19.8301 16.967 20.2655L18.1609 21.4594L22.5599 17.0608C22.995 16.6253 23.701 16.6253 24.1364 17.0608C24.5719 17.496 24.5719 18.2019 24.1364 18.6374Z" fill="#00796B"/>
<path d="M35.9799 11.3104L35.9788 11.2808C35.9615 10.8874 35.9501 10.4938 35.9445 10.1C35.9135 8.00473 34.2479 6.27158 32.1524 6.15454C27.7834 5.91065 24.4035 4.48603 21.5157 1.67121L21.4911 1.64776C20.5491 0.78408 19.1282 0.78408 18.186 1.64776L18.1613 1.67121C15.2735 4.48603 11.8936 5.91066 7.5246 6.15476C5.42941 6.27158 3.7635 8.00481 3.73248 10.1002C3.72703 10.4939 3.71565 10.8875 3.69834 11.2808L3.69655 11.3495C3.61157 15.8047 3.50604 21.3493 5.36091 26.3819C6.38089 29.1495 7.92553 31.5552 9.95177 33.5327C12.2595 35.7848 15.2822 37.5728 18.9357 38.8466C19.056 38.8885 19.179 38.922 19.3038 38.9469C19.4813 38.9823 19.6599 39 19.8385 39C20.0171 39 20.1959 38.9823 20.3731 38.9469C20.4985 38.9218 20.622 38.8881 20.7427 38.846C24.3919 37.5698 27.4114 35.781 29.7171 33.5293C31.7425 31.5512 33.2871 29.1449 34.3079 26.3767C36.1698 21.329 36.0646 15.7739 35.9799 11.3104ZM19.8379 29.4707C14.6159 29.4707 10.3678 25.2226 10.3678 20.0006C10.3678 14.7786 14.616 10.5305 19.8379 10.5305C25.0596 10.5305 29.3081 14.7786 29.3081 20.0006C29.3081 25.2226 25.0596 29.4707 19.8379 29.4707Z" fill="#00796B"/>
</svg>
