<svg width="40" height="40" viewBox="0 0 40 40" fill="none" xmlns="http://www.w3.org/2000/svg">
<path fill-rule="evenodd" clip-rule="evenodd" d="M19.2333 37.2517L19.35 37.3183L19.3967 37.345C19.5817 37.4451 19.7888 37.4975 19.9992 37.4975C20.2095 37.4975 20.4166 37.4451 20.6017 37.345L20.6483 37.32L20.7667 37.2517C21.4185 36.8652 22.0546 36.4526 22.6733 36.015C24.2751 34.8841 25.7717 33.6112 27.145 32.2117C30.385 28.895 33.75 23.9117 33.75 17.5C33.75 13.8533 32.3013 10.3559 29.7227 7.77728C27.1441 5.19866 23.6467 3.75 20 3.75C16.3533 3.75 12.8559 5.19866 10.2773 7.77728C7.69866 10.3559 6.25 13.8533 6.25 17.5C6.25 23.91 9.61667 28.895 12.855 32.2117C14.2277 33.6111 15.7238 34.8841 17.325 36.015C17.9443 36.4526 18.5809 36.8652 19.2333 37.2517ZM20 22.5C21.3261 22.5 22.5979 21.9732 23.5355 21.0355C24.4732 20.0979 25 18.8261 25 17.5C25 16.1739 24.4732 14.9021 23.5355 13.9645C22.5979 13.0268 21.3261 12.5 20 12.5C18.6739 12.5 17.4021 13.0268 16.4645 13.9645C15.5268 14.9021 15 16.1739 15 17.5C15 18.8261 15.5268 20.0979 16.4645 21.0355C17.4021 21.9732 18.6739 22.5 20 22.5Z" fill="#00796B"/>
</svg>
