<svg width="16" height="16" viewBox="0 0 16 16" fill="none" xmlns="http://www.w3.org/2000/svg">
<g clip-path="url(#clip0_1693_1025)">
<path d="M10.5594 11.2132L11.2911 10.0259L12.6115 9.57563L12.7577 8.18884L13.7512 7.21088L13.2788 5.89819L13.7512 4.58547L12.7578 3.6075L12.6115 2.22075L11.2911 1.77044L10.5595 0.583156L9.17556 0.75025L7.99997 0L6.82437 0.750313L5.4405 0.583219L4.70884 1.77047L3.38847 2.22078L3.24219 3.60753L2.24878 4.5855L2.72109 5.89822L2.24878 7.21094L3.24215 8.18888L3.38844 9.57566L4.70881 10.026L5.44047 11.2132L6.82437 11.0462L7.99997 11.7964L9.17556 11.0462L10.5594 11.2132ZM3.95531 5.89822C3.95531 3.668 5.76975 1.85356 7.99997 1.85356C10.2302 1.85356 12.0446 3.668 12.0446 5.89822C12.0446 8.12844 10.2302 9.94287 7.99997 9.94287C5.76975 9.94287 3.95531 8.12844 3.95531 5.89822Z" fill="white"/>
<path d="M8.00002 2.79199C6.28705 2.79199 4.89346 4.18559 4.89346 5.89855C4.89346 7.61152 6.28705 9.00512 8.00002 9.00512C9.71299 9.00512 11.1066 7.61152 11.1066 5.89855C11.1066 4.18559 9.71299 2.79199 8.00002 2.79199ZM6.60312 12.0181L4.95687 12.2168L4.08708 10.8054L3.7914 10.7046L2.51599 14.691L4.81208 14.5647L6.60849 16.0003L7.66562 12.6962L6.60312 12.0181ZM11.913 10.8054L11.0431 12.2168L9.39693 12.0181L8.33443 12.6962L9.39155 16.0003L11.188 14.5647L13.4841 14.691L12.2086 10.7046L11.913 10.8054Z" fill="white"/>
</g>
<defs>
<clipPath id="clip0_1693_1025">
<rect width="16" height="16" fill="white"/>
</clipPath>
</defs>
</svg>
